<?xml version="1.0" encoding="UTF-8"?>
<svg id="Layer_1" data-name="Layer 1" xmlns="http://www.w3.org/2000/svg" viewBox="0 0 237.08 237.08">
  <defs>
    <style>
      .cls-1 {
        fill: #255061;
      }

      .cls-2 {
        fill: #fcf1e8;
      }
    </style>
  </defs>
  <circle class="cls-2" cx="118.54" cy="118.54" r="118.54"/>
  <g>
    <path class="cls-1" d="M190.5,84.93h-90.9c-1.16,0-2.1.94-2.1,2.1v67.93c0,1.16.94,2.1,2.1,2.1h90.9c1.16,0,2.1-.94,2.1-2.1v-67.93c0-1.16-.94-2.1-2.1-2.1ZM188.4,152.86h-86.7v-63.73h86.7v63.73Z"/>
    <path class="cls-1" d="M197.39,74.55h-104.68c-5.01,0-9.09,4.08-9.09,9.09v74.7c0,5.01,4.08,9.09,9.09,9.09h104.68c5.01,0,9.09-4.08,9.09-9.09v-74.7c0-5.01-4.08-9.09-9.09-9.09ZM202.28,158.34c0,2.69-2.19,4.89-4.89,4.89h-104.68c-2.7,0-4.89-2.19-4.89-4.89v-74.7c0-2.69,2.19-4.89,4.89-4.89h104.68c2.69,0,4.89,2.19,4.89,4.89v74.7Z"/>
    <path class="cls-1" d="M159.96,170.88c-1.09-.39-2.3.19-2.68,1.28-1.69,4.79-4.64,9.31-8.79,13.46h-56.46c1.6-2.82,3.61-4.97,5.99-6.42,4.46-2.7,9.73-2.65,12.88-2.6.72,0,1.33.01,1.82,0,1.16-.05,2.06-1.03,2.01-2.19-.05-1.16-1.03-2.03-2.19-2.01-.43.02-.97.01-1.6,0-3.6-.05-9.62-.11-15.11,3.21-3.93,2.38-6.99,6.18-9.11,11.31-.27.65-.19,1.39.2,1.97.39.58,1.05.93,1.75.93h60.67c.54,0,1.07-.21,1.46-.59,4.94-4.77,8.45-10.04,10.44-15.68.39-1.1-.19-2.3-1.28-2.68Z"/>
    <path class="cls-1" d="M84.76,165.04c-1.1-.36-2.29.22-2.66,1.32l-6.88,20.48-20.16-.35c.27-1.64.86-2.96,1.76-3.95,1.24-1.36,2.61-1.56,4.49-1.84,1.79-.26,3.83-.56,5.88-1.98,6.8-4.68,6.02-16.18,5.44-24.57-.23-3.36-.58-4.92-1.11-7.29-.46-2.03-1.02-4.55-1.8-9.41-1.8-11.31-2.71-16.99-2.07-20.78.69-4.08,2.02-6.96,3.31-9.76,1.79-3.87,3.47-7.52,2.46-12.86-.41-2.13-1.18-4.19-2.3-6.16l6.96-3.28c1.05-.5,1.5-1.75,1.01-2.8-.49-1.05-1.75-1.5-2.8-1.01l-9.1,4.29s0,0,0,0h-.02c-.06.04-.12.08-.17.12-.06.03-.11.06-.17.1,0,0,0,0,0,0-.05.04-.1.09-.15.13-8.57,3.88-18.19,2.97-24.72-2.42-.97-.8-1.81-1.66-2.55-2.54,3.23-1.45,5.5-4.71,5.5-8.44,0-.99-.15-1.95-.45-2.87,5.01-1.52,8.97-3.93,11.8-7.25,1.49-1.74,2.61-3.44,3.6-4.94,2.1-3.19,3.31-4.87,5.91-5.38,1.44-.28,2.63-.25,3.79-.22.23,0,.47.01.71.01-.1.66-.1,1.35,0,2.04l1.77,11.21c.39,2.49,2.05,4.45,4.34,5.11.53.15,1.06.23,1.59.23,1.63,0,3.21-.71,4.36-2.01l5.3-5.99c.42,1.91.89,3.78,1.42,5.59.27.92,1.11,1.51,2.02,1.51.2,0,.39-.03.59-.09,1.11-.33,1.75-1.49,1.43-2.61-.94-3.23-1.7-6.64-2.29-10.16.04-.65,0-1.31-.16-1.96-.08-.35-.2-.68-.33-1-.02-.07-.06-.13-.09-.2-.66-1.47-1.82-2.64-3.28-3.22l-8.62-3.48c-1.44-.58-2.99-.55-4.37.04-.32.02-.63.1-.93.26-.92.52-1.75.53-3.36.49-1.25-.03-2.8-.07-4.69.3-4.46.86-6.48,3.94-8.62,7.19-.96,1.46-1.96,2.98-3.28,4.52-3.67,4.28-9.82,6.8-18.28,7.48-1.32.11-2.53.78-3.3,1.86-.78,1.08-1.04,2.44-.73,3.73.56,2.31,1.57,5.19,3.35,8.05.02.02.03.05.05.08,1.28,2.04,2.94,4.06,5.13,5.87,4.62,3.81,10.5,5.77,16.62,5.77,3.81,0,7.7-.76,11.44-2.29.96,1.63,1.62,3.34,1.96,5.09.77,4.02-.45,6.66-2.14,10.31-1.34,2.9-2.86,6.19-3.64,10.82-.75,4.47.19,10.38,2.06,22.14.79,4.99,1.4,7.7,1.85,9.67.51,2.25.81,3.61,1.02,6.65.47,6.97,1.19,17.5-3.64,20.83-1.25.86-2.57,1.05-4.1,1.28-2.11.31-4.73.69-6.99,3.16-1.97,2.16-2.99,5.13-3.03,8.83-.01,1.15.91,2.1,2.07,2.12l23.73.41h.2s.02,0,.04,0c.9,0,1.7-.58,1.99-1.43l7.37-21.93c.37-1.1-.22-2.29-1.32-2.66ZM76.72,50.32l8.62,3.48c.47.19.74.53.92.85.08.58.18,1.16.27,1.73-.08.41-.25.8-.53,1.11l-6.85,7.73c-.62.69-1.28.63-1.63.53-.72-.21-1.22-.86-1.36-1.73l-1.77-11.21c-.17-1.06.3-1.86.8-2.25.23-.18.55-.36.96-.36.18,0,.37.03.57.12ZM34.86,71.03c.06-.08.14-.12.23-.13,1.83-.15,3.57-.38,5.21-.69.24.59.37,1.21.37,1.86,0,2.3-1.6,4.26-3.73,4.84-1.08-2.01-1.74-3.98-2.14-5.62-.03-.12.01-.21.05-.27Z"/>
    <path class="cls-1" d="M119.96,98.21l4.96,3.02c17.05,10.38,29.26,27.53,33.49,47.03.21.98,1.08,1.66,2.05,1.66.15,0,.3-.02.45-.05,1.13-.25,1.85-1.37,1.61-2.5-4.48-20.63-17.38-38.75-35.41-49.73l-4.96-3.02c-.99-.6-2.28-.29-2.89.7-.6.99-.29,2.28.7,2.89Z"/>
    <path class="cls-1" d="M106.66,131.79c.38,0,.76-.1,1.1-.31,6.45-3.99,11.3-10.16,13.65-17.38l.12-.38c2.91,2.37,5.55,5,7.92,7.88-2.28,7.1-6.95,13.22-13.22,17.28l-.96.62c-.97.63-1.25,1.93-.62,2.91.4.62,1.08.96,1.77.96.39,0,.79-.11,1.14-.34l.96-.62c6.28-4.07,11.12-9.95,13.94-16.81,1.93,2.83,3.62,5.85,5.03,9.03-2.65,5.45-6.71,10.1-11.75,13.47-.97.64-1.23,1.95-.58,2.91.4.61,1.07.94,1.75.94.4,0,.81-.11,1.16-.35,4.63-3.09,8.5-7.15,11.4-11.86.65,1.95,1.21,3.94,1.65,5.95.21.98,1.08,1.66,2.05,1.66.15,0,.3-.02.45-.05,1.13-.25,1.85-1.37,1.61-2.5-.76-3.51-1.84-6.97-3.21-10.29-4.98-12.1-13.52-22.1-24.7-28.91l-3.88-2.36c-.99-.6-2.28-.29-2.89.7-.6.99-.29,2.29.7,2.89l3.88,2.36c.98.59,1.92,1.22,2.86,1.87l-.57,1.75c-2.04,6.27-6.26,11.63-11.87,15.1-.99.61-1.29,1.91-.68,2.89.4.64,1.09,1,1.79,1Z"/>
  </g>
</svg>