<?xml version="1.0" encoding="UTF-8"?>
<svg id="Layer_1" data-name="Layer 1" xmlns="http://www.w3.org/2000/svg" viewBox="0 0 220.35 220.35">
  <defs>
    <style>
      .cls-1 {
        fill: #255061;
      }
    </style>
  </defs>
  <path class="cls-1" d="M201.04,169.16s0-.05.01-.08c.07-.23.12-.47.12-.72,0-.01,0-.02,0-.04,0,0,0,0,0,0V52.04s0-.07-.01-.11c0-.06-.01-.11-.02-.17-.02-.21-.07-.42-.14-.62,0-.02,0-.05-.02-.07,0,0-.01-.02-.01-.02-.09-.22-.21-.43-.35-.61-.03-.04-.07-.08-.1-.13-.14-.17-.3-.32-.49-.45-.01,0-.02-.02-.03-.03-.19-.13-.4-.23-.63-.31-.05-.02-.1-.03-.16-.05-.23-.06-.47-.11-.71-.11H21.84c-.25,0-.49.05-.71.11-.05.02-.11.03-.16.05-.22.08-.44.17-.63.31-.01,0-.02.02-.03.03-.18.13-.34.28-.49.45-.04.04-.07.08-.1.12-.14.19-.26.39-.35.62,0,0,0,.01-.01.02,0,.02,0,.04-.01.07-.07.2-.12.41-.14.62,0,.05-.01.11-.02.16,0,.04-.01.07-.01.11v116.27s0,0,0,0c0,0,0,.02,0,.03,0,.25.05.49.12.72,0,.03,0,.05.01.08,0,.02.02.04.03.06.08.23.2.45.34.65.02.03.05.06.08.09.14.18.3.33.47.47.03.02.05.04.08.06.2.14.41.24.64.33.05.02.1.03.15.05.24.07.48.12.75.12h176.68c.26,0,.51-.05.75-.12.05-.02.1-.03.15-.05.23-.08.45-.19.64-.33.03-.02.05-.04.08-.06.18-.14.33-.29.47-.47.03-.03.05-.06.08-.1.14-.2.25-.42.34-.65,0-.02.02-.04.03-.06ZM195.85,162.98l-63.15-47.35,63.15-57.54v104.9ZM191.62,54.71l-81.45,74.22L28.73,54.71h162.9ZM87.66,115.62l-63.15,47.35V58.08l63.15,57.54ZM29.84,165.64l61.83-46.36,16.71,15.22c.51.46,1.15.7,1.8.7s1.29-.23,1.8-.7l16.71-15.22,61.83,46.36H29.84Z"/>
</svg>