<?xml version="1.0" encoding="UTF-8"?>
<svg id="Layer_1" data-name="Layer 1" xmlns="http://www.w3.org/2000/svg" viewBox="0 0 220.35 220.35">
  <defs>
    <style>
      .cls-1 {
        fill: #255061;
      }

      .cls-2 {
        fill: #fcf1e8;
      }
    </style>
  </defs>
  <circle class="cls-2" cx="110.18" cy="110.18" r="110.18"/>
  <path class="cls-1" d="M183.76,157.94s0-.04.01-.07c.06-.19.09-.38.1-.58,0,0,0-.02,0-.03,0,0,0,0,0,0V63.1s0-.06,0-.09c0-.04,0-.09-.01-.13-.02-.17-.05-.34-.11-.5,0-.02,0-.04-.01-.06,0,0,0-.01-.01-.02-.07-.18-.17-.35-.29-.5-.03-.04-.06-.07-.08-.1-.12-.14-.25-.26-.39-.37,0,0-.02-.01-.03-.02-.16-.11-.33-.18-.51-.25-.04-.01-.08-.03-.13-.04-.19-.05-.38-.09-.58-.09H38.64c-.2,0-.39.04-.58.09-.04.01-.09.02-.13.04-.18.06-.35.14-.51.25,0,0-.02.01-.03.02-.15.1-.28.23-.39.37-.03.03-.06.07-.08.1-.12.15-.21.32-.29.5,0,0,0,.01-.01.02,0,.02,0,.04-.01.05-.06.16-.09.33-.11.5,0,.04-.01.09-.01.13,0,.03,0,.06,0,.09v94.16s0,0,0,0c0,0,0,.02,0,.02,0,.2.04.4.1.59,0,.02,0,.04.01.07,0,.02.02.03.02.05.07.19.16.37.27.53.02.03.04.05.06.08.11.14.24.27.38.38.02.02.04.04.06.05.16.11.33.2.52.26.04.01.08.02.12.04.19.06.39.1.6.1h143.07c.21,0,.41-.04.6-.1.04-.01.08-.02.12-.04.19-.07.36-.15.52-.26.02-.02.04-.04.06-.05.14-.11.27-.24.38-.38.02-.03.04-.05.06-.08.12-.16.21-.34.27-.53,0-.02.02-.03.02-.05ZM179.55,152.93l-51.14-38.35,51.14-46.6v84.95ZM176.13,65.26l-65.96,60.1-65.96-60.1h131.91ZM91.94,114.59l-51.14,38.35v-84.95l51.14,46.6ZM45.12,155.09l50.07-37.54,13.53,12.33c.41.38.93.56,1.46.56s1.04-.19,1.45-.56l13.53-12.33,50.07,37.54H45.12Z"/>
</svg>