<?xml version="1.0" encoding="UTF-8"?>
<svg id="Layer_1" data-name="Layer 1" xmlns="http://www.w3.org/2000/svg" viewBox="0 0 220.35 220.35">
  <defs>
    <style>
      .cls-1 {
        fill: #255061;
      }

      .cls-2 {
        fill: #fcf1e8;
      }
    </style>
  </defs>
  <circle class="cls-2" cx="110.18" cy="110.18" r="110.18"/>
  <path class="cls-1" d="M113.4,188.42h-28.5c-1.84,0-3.34-1.5-3.34-3.34v-59.92h-21.46c-1.84,0-3.34-1.5-3.34-3.34v-27.18c0-1.84,1.5-3.34,3.34-3.34h21.46v-15.88c0-15.47,4.24-26.96,12.59-34.15,10.11-8.7,25.99-11.28,48.56-7.89,1.81.27,3.18,1.86,3.18,3.69v23.73c0,1.9-1.54,3.44-3.44,3.44h-15.8c-6.27,0-9.9,1.83-9.9,11.19v15.88h24.34c1.03,0,2,.44,2.68,1.21.68.77,1,1.79.88,2.81l-3.23,26.66c-.22,1.82-1.77,3.19-3.6,3.19h-21.06v59.92c0,1.84-1.5,3.34-3.34,3.34ZM86.64,183.34h25.02v-60.24c0-1.66,1.35-3.02,3.02-3.02h21.84l2.88-23.7h-24.71c-1.66,0-3.02-1.35-3.02-3.02v-17.95c0-11.1,4.76-16.27,14.98-16.27h14.16v-20.92c-20.39-2.91-34.58-.65-43.34,6.89-7.28,6.27-10.83,16.18-10.83,30.3v17.95c0,1.66-1.35,3.02-3.02,3.02h-21.79v23.7h21.79c1.66,0,3.02,1.35,3.02,3.02v60.24Z"/>
</svg>