<?xml version="1.0" encoding="UTF-8"?>
<svg id="Layer_1" data-name="Layer 1" xmlns="http://www.w3.org/2000/svg" viewBox="0 0 220.35 220.35">
  <defs>
    <style>
      .cls-1 {
        fill: #255061;
      }

      .cls-2 {
        fill: #fcf1e8;
      }
    </style>
  </defs>
  <circle class="cls-2" cx="110.18" cy="110.18" r="110.18"/>
  <g>
    <path class="cls-1" d="M141.83,174.9h-63.32c-18.24,0-33.07-14.84-33.07-33.07v-63.32c0-18.23,14.84-33.07,33.07-33.07h63.32c18.24,0,33.07,14.84,33.07,33.07v63.32c0,18.23-14.84,33.07-33.07,33.07ZM78.52,50.35c-15.53,0-28.17,12.64-28.17,28.17v63.32c0,15.53,12.64,28.17,28.17,28.17h63.32c15.53,0,28.17-12.64,28.17-28.17v-63.32c0-15.53-12.64-28.17-28.17-28.17h-63.32Z"/>
    <path class="cls-1" d="M110.18,140.63c-16.8,0-30.46-13.66-30.46-30.46s13.66-30.46,30.46-30.46,30.46,13.66,30.46,30.46-13.66,30.46-30.46,30.46ZM110.18,84.62c-14.09,0-25.56,11.46-25.56,25.56s11.46,25.56,25.56,25.56,25.56-11.46,25.56-25.56-11.46-25.56-25.56-25.56Z"/>
    <path class="cls-1" d="M146.77,79.3c-2.89,0-5.25-2.36-5.25-5.25s2.36-5.25,5.25-5.25,5.25,2.36,5.25,5.25-2.36,5.25-5.25,5.25ZM146.77,73.71c-.19,0-.35.16-.35.35s.16.35.35.35.35-.16.35-.35-.16-.35-.35-.35Z"/>
  </g>
</svg>