<?xml version="1.0" encoding="UTF-8"?>
<svg id="Layer_1" data-name="Layer 1" xmlns="http://www.w3.org/2000/svg" viewBox="0 0 237.08 237.08">
  <defs>
    <style>
      .cls-1 {
        fill: #255061;
      }

      .cls-2 {
        fill: #fcf1e8;
      }
    </style>
  </defs>
  <circle class="cls-2" cx="118.54" cy="118.54" r="118.54"/>
  <g>
    <path class="cls-1" d="M156.94,80.58c-6.16-1.21-10.62-6.64-10.62-12.91v-.74h.71c5.7,0,10.33-4.64,10.33-10.33v-14.98c0-5.7-4.63-10.33-10.33-10.33h-56.97c-5.7,0-10.33,4.64-10.33,10.33v14.98c0,5.7,4.64,10.33,10.33,10.33h.71v.74c0,6.27-4.47,11.7-10.62,12.91-8.26,1.62-14.25,8.9-14.25,17.31v88.1c0,10.92,8.88,19.8,19.8,19.8h65.69c10.92,0,19.8-8.88,19.8-19.8v-88.1c0-8.41-5.99-15.69-14.25-17.31ZM70.38,100.14h96.31v79.39h-96.31v-79.39ZM84.21,56.6v-14.98c0-3.22,2.62-5.85,5.84-5.85h56.97c3.22,0,5.84,2.62,5.84,5.85v14.98c0,3.22-2.62,5.84-5.84,5.84h-56.97c-3.22,0-5.84-2.62-5.84-5.84ZM81.01,84.99c8.26-1.62,14.25-8.9,14.25-17.31v-.74h46.57v.74c0,8.41,5.99,15.7,14.25,17.31,5.41,1.06,9.51,5.38,10.43,10.67h-95.92c.92-5.29,5.02-9.61,10.43-10.67ZM151.38,201.31h-65.69c-8.44,0-15.31-6.87-15.31-15.31v-1.98h96.31v1.98c0,8.44-6.87,15.31-15.31,15.31Z"/>
    <path class="cls-1" d="M98.8,129.98c-4.86-4.86-11.48-5.85-15.07-2.25-1.8,1.8-2.52,4.53-1.96,7.49.51,2.69,2,5.38,4.21,7.58,2.21,2.21,4.9,3.7,7.59,4.21.66.12,1.31.19,1.94.19,2.19,0,4.15-.74,5.55-2.14,3.59-3.59,2.61-10.21-2.25-15.07ZM97.88,141.88c-1.01,1.01-2.61.89-3.48.72-1.78-.34-3.69-1.42-5.25-2.97-1.55-1.55-2.63-3.46-2.97-5.24-.16-.87-.29-2.47.72-3.48.54-.54,1.37-.82,2.37-.82,1.85,0,4.26.97,6.36,3.07,1.55,1.55,2.63,3.46,2.97,5.25.16.87.29,2.47-.72,3.48Z"/>
    <path class="cls-1" d="M153.35,126.82c-3.59-3.59-10.21-2.61-15.07,2.25-4.86,4.86-5.85,11.48-2.25,15.07,1.4,1.4,3.36,2.14,5.55,2.14.63,0,1.28-.06,1.94-.19,2.69-.51,5.38-2,7.58-4.21,4.86-4.86,5.85-11.48,2.25-15.07ZM147.92,138.72c-3.23,3.23-7.19,3.78-8.72,2.25-1.53-1.53-.98-5.49,2.25-8.72,2.1-2.1,4.51-3.07,6.36-3.07,1,0,1.83.28,2.37.82,1.53,1.53.98,5.49-2.25,8.72Z"/>
    <path class="cls-1" d="M126.2,130.9c.64.18,1.28.27,1.93.27,4.29,0,8.5-3.85,10.12-9.59,1.87-6.61-.5-12.87-5.4-14.25-4.89-1.39-10.19,2.72-12.05,9.33-1.87,6.61.5,12.87,5.4,14.25ZM125.12,117.87c1.24-4.4,4.42-6.82,6.51-6.23,2.08.59,3.54,4.31,2.3,8.71-1.24,4.4-4.43,6.82-6.51,6.23-2.08-.59-3.54-4.31-2.3-8.71Z"/>
    <path class="cls-1" d="M108.49,131.16c.64,0,1.29-.09,1.93-.27,4.89-1.38,7.26-7.64,5.4-14.25-1.87-6.61-7.16-10.7-12.05-9.33-4.89,1.38-7.26,7.64-5.4,14.25,1.62,5.75,5.83,9.59,10.12,9.59ZM104.99,111.64c.21-.06.43-.09.65-.09,2.05,0,4.74,2.35,5.86,6.31,1.24,4.4-.21,8.12-2.3,8.71-2.08.59-5.27-1.82-6.51-6.23-1.24-4.4.21-8.12,2.3-8.71Z"/>
    <path class="cls-1" d="M135.36,150.92c-1.24-.91-2.25-2.29-2.9-3.99-2-5.21-7.09-8.71-12.66-8.71-5.23,0-9.9,2.92-12.2,7.61-.81,1.66-2.18,3.01-3.95,3.89-4.97,2.49-7.9,7.68-7.46,13.24.51,6.46,5.54,11.68,11.97,12.4,2.7.3,5.39-.19,7.77-1.41,1.63-.84,3.58-.84,5.21,0,1.92.99,4.05,1.5,6.21,1.5.52,0,1.04-.03,1.56-.09,6.38-.72,11.41-5.9,11.96-12.31.41-4.78-1.66-9.31-5.52-12.13ZM136.41,162.68c-.36,4.22-3.79,7.76-7.99,8.23-1.82.21-3.62-.12-5.22-.94-1.46-.75-3.06-1.13-4.66-1.13s-3.21.38-4.67,1.13c-1.59.82-3.4,1.15-5.21.94-4.23-.48-7.67-4.04-8-8.29-.29-3.72,1.67-7.21,5-8.87,2.66-1.33,4.72-3.38,5.97-5.93,1.54-3.15,4.67-5.1,8.17-5.1,3.73,0,7.13,2.34,8.47,5.83.97,2.51,2.5,4.59,4.44,6.01h0c2.59,1.89,3.97,4.93,3.7,8.13Z"/>
    <path class="cls-1" d="M98.68,42.27c-1.24,0-2.24,1-2.24,2.24v9.19c0,1.24,1,2.24,2.24,2.24s2.24-1,2.24-2.24v-9.19c0-1.24-1-2.24-2.24-2.24Z"/>
    <path class="cls-1" d="M118.54,42.27c-1.24,0-2.24,1-2.24,2.24v9.19c0,1.24,1,2.24,2.24,2.24s2.24-1,2.24-2.24v-9.19c0-1.24-1-2.24-2.24-2.24Z"/>
    <path class="cls-1" d="M138.4,42.27c-1.24,0-2.24,1-2.24,2.24v9.19c0,1.24,1,2.24,2.24,2.24s2.24-1,2.24-2.24v-9.19c0-1.24-1-2.24-2.24-2.24Z"/>
  </g>
</svg>