<?xml version="1.0" encoding="UTF-8"?>
<svg id="Layer_1" data-name="Layer 1" xmlns="http://www.w3.org/2000/svg" viewBox="0 0 237.08 237.08">
  <defs>
    <style>
      .cls-1 {
        fill: #255061;
      }

      .cls-2 {
        fill: #fcf1e8;
      }
    </style>
  </defs>
  <circle class="cls-2" cx="118.54" cy="118.54" r="118.54"/>
  <g>
    <path class="cls-1" d="M85.83,165.01h-27.9c-1.16,0-2.1.94-2.1,2.1v12.03c0,1.16.94,2.1,2.1,2.1h27.9c1.16,0,2.1-.94,2.1-2.1v-12.03c0-1.16-.94-2.1-2.1-2.1ZM83.73,177.04h-23.71v-7.83h23.71v7.83Z"/>
    <path class="cls-1" d="M125.08,141.95c-.4-1.09-1.61-1.65-2.69-1.25-3.18,1.17-7.37,1.81-11.79,1.81-3.95,0-7.7-.51-10.71-1.45-.59-2.44-1.57-4.61-2.9-6.43,2.24-2.01,3.72-4.84,3.97-8.03l.22-2.82c1.78.44,3.62.68,5.5.68h5.88c2.57,0,5.06-.44,7.43-1.24l.26,3.38c.35,4.53,3.17,8.43,7.36,10.18.27.11.54.16.81.16.82,0,1.6-.48,1.94-1.29.45-1.07-.06-2.3-1.12-2.75-1.43-.6-2.61-1.6-3.45-2.83l1.16-.23c14.4-2.81,25.18-14.27,26.82-28.52.16-1.34.23-2.71.23-4.07v-26.55c0-.17-.02-.33-.06-.49-1.18-23.38-20.56-42.03-44.22-42.03s-43.05,18.66-44.22,42.03c-.04.16-.06.32-.06.49v26.55c0,.45,0,.9.03,1.35.59,15.36,12.25,28.47,27.72,31.17l2.19.38c-1.27,1.8-3.27,3.05-5.58,3.3l-15.38,1.65c-10.01,1.18-19.06,6.6-24.83,14.86-4.17,5.97-6.37,12.97-6.37,20.25v15.68c0,1.16.94,2.1,2.1,2.1s2.1-.94,2.1-2.1v-15.68c0-6.42,1.94-12.59,5.62-17.85,4.63-6.63,11.67-11.18,19.54-12.72v5.81c-3.58.93-6.24,4.19-6.24,8.06,0,4.6,3.74,8.34,8.34,8.34s8.34-3.74,8.34-8.34c0-3.87-2.66-7.12-6.24-8.06v-6.38l13.48-1.45c1.11-.12,2.18-.39,3.18-.79,1.33,1.7,2.23,3.87,2.66,6.48.35,2.06.38,4.37.1,6.69-.37,3.02-1.14,5.96-1.95,9.07-.67,2.58-1.37,5.25-1.82,7.98-1.05,6.45-.66,13.19,1.13,19.49.26.92,1.1,1.53,2.02,1.53.19,0,.38-.03.58-.08,1.12-.32,1.76-1.48,1.45-2.59-1.62-5.7-1.98-11.81-1.02-17.66.41-2.53,1.09-5.1,1.74-7.59.81-3.11,1.65-6.32,2.05-9.63.21-1.7.25-3.36.17-4.96,3.03.73,6.5,1.13,10.09,1.13,4.9,0,9.6-.74,13.23-2.07,1.09-.4,1.65-1.61,1.25-2.69ZM78.79,153.56c0,2.28-1.86,4.14-4.14,4.14s-4.14-1.86-4.14-4.14,1.86-4.14,4.14-4.14,4.14,1.86,4.14,4.14ZM106.68,120.29c-5.02,0-9.74-1.95-13.3-5.49-5.78-5.75-9.1-13.73-9.1-21.89v-17.75l.89-.1c9.98-1.09,19.15-6.76,25.21-15.57,5.9,8.67,14.85,14.38,24.61,15.68v17.71c0,8.25-3.22,16.01-9.1,21.89-3.56,3.56-8.3,5.52-13.33,5.52h-5.88ZM69.65,98.48c-.02-.4-.02-.79-.02-1.19v-24.79c0-22.1,17.98-40.08,40.08-40.08s40.08,17.98,40.08,40.08v24.79c0,1.19-.07,2.4-.21,3.59-1.44,12.42-10.86,22.42-23.46,24.88l-1.72.33-.36-4.69c1.74-1.01,3.38-2.23,4.85-3.7,6.63-6.63,10.29-15.44,10.29-24.81v-19.6c0-1.1-.85-2.02-1.95-2.09-9.89-.71-19.07-6.66-24.56-15.9l-.43-.72c-.37-.62-1.03-1.01-1.75-1.03-.73-.02-1.4.33-1.8.93l-1.57,2.34c-5.37,7.98-13.53,13.11-22.42,14.09l-2.76.3c-1.06.12-1.87,1.02-1.87,2.09v19.63c0,9.27,3.77,18.33,10.34,24.87,1.96,1.95,4.22,3.48,6.66,4.6l-.3,3.8-2.88-.5c-13.54-2.37-23.74-13.8-24.25-27.2Z"/>
    <path class="cls-1" d="M142.67,157.44h0c-2.26-2.26-5.01-3.79-7.76-4.31-2.99-.57-5.75.15-7.57,1.97-1.82,1.82-2.54,4.58-1.97,7.57.52,2.75,2.05,5.5,4.31,7.76,2.96,2.96,6.55,4.52,9.74,4.52,2.15,0,4.12-.71,5.59-2.18,3.64-3.64,2.61-10.38-2.34-15.33ZM142.04,169.8c-1.91,1.91-6.21.84-9.39-2.34-1.64-1.64-2.79-3.68-3.15-5.57-.18-.94-.31-2.7.81-3.82.73-.73,1.73-.93,2.6-.93.46,0,.89.06,1.22.12,1.9.36,3.93,1.51,5.57,3.15,3.18,3.18,4.25,7.48,2.34,9.4Z"/>
    <path class="cls-1" d="M199.35,154.16c-3.64-3.64-10.38-2.62-15.33,2.34h0c-2.26,2.26-3.79,5.01-4.31,7.76-.57,2.99.15,5.75,1.97,7.57,1.41,1.41,3.39,2.16,5.6,2.16.64,0,1.3-.06,1.97-.19,2.75-.52,5.5-2.05,7.76-4.31,4.96-4.95,5.98-11.69,2.34-15.33ZM194.04,166.52c-1.64,1.64-3.67,2.79-5.57,3.15-.94.18-2.7.31-3.82-.81-1.12-1.12-.99-2.88-.81-3.82.36-1.9,1.51-3.93,3.15-5.57h0c2.11-2.11,4.71-3.29,6.78-3.29,1.05,0,1.97.3,2.61.95,1.91,1.91.84,6.22-2.34,9.4Z"/>
    <path class="cls-1" d="M171.37,158.01c.62.17,1.26.26,1.9.26,1.93,0,3.92-.77,5.67-2.24,2.14-1.79,3.8-4.48,4.67-7.55.87-3.07.86-6.23-.03-8.88-.97-2.89-2.94-4.95-5.42-5.65-4.96-1.4-10.33,2.79-12.24,9.53h0c-1.9,6.74.49,13.12,5.45,14.52ZM169.96,144.62c1.22-4.33,4.46-7.37,7.06-6.63,1.53.43,2.27,2.03,2.58,2.94.61,1.83.6,4.16-.03,6.4-.63,2.24-1.84,4.23-3.32,5.47-.74.62-2.21,1.59-3.73,1.16-2.6-.73-3.77-5.01-2.55-9.34Z"/>
    <path class="cls-1" d="M148.06,133.95c-4.96,1.4-7.35,7.78-5.45,14.52,1.66,5.87,5.94,9.8,10.29,9.8.65,0,1.3-.09,1.94-.27,2.47-.7,4.45-2.76,5.42-5.65.89-2.65.9-5.8.03-8.88-.87-3.07-2.53-5.76-4.67-7.55-2.34-1.96-5.1-2.68-7.57-1.98ZM152.93,139.15c1.48,1.24,2.69,3.23,3.32,5.47h0c.63,2.24.64,4.57.03,6.4-.31.91-1.05,2.51-2.58,2.94-2.6.74-5.83-2.3-7.06-6.63-1.22-4.33-.06-8.61,2.55-9.34.26-.07.53-.11.78-.11,1.23,0,2.34.75,2.95,1.26Z"/>
    <path class="cls-1" d="M180.69,175.46c-1.33-.97-2.4-2.44-3.09-4.25-2.04-5.32-7.25-8.9-12.94-8.9-5.34,0-10.12,2.98-12.47,7.78-.87,1.77-2.32,3.21-4.21,4.15-5.08,2.54-8.07,7.85-7.63,13.53.52,6.6,5.66,11.93,12.24,12.67.53.06,1.06.09,1.59.09,2.21,0,4.38-.52,6.35-1.54,1.76-.91,3.87-.91,5.63,0,2.44,1.26,5.19,1.75,7.95,1.45,6.53-.74,11.67-6.03,12.22-12.58.41-4.88-1.69-9.52-5.64-12.4ZM182.14,187.51c-.38,4.49-4.04,8.26-8.51,8.76-1.93.22-3.85-.13-5.55-1-2.97-1.53-6.51-1.53-9.48,0-1.7.88-3.61,1.22-5.55,1-4.5-.51-8.16-4.3-8.52-8.83-.31-3.96,1.78-7.67,5.32-9.45,2.71-1.36,4.82-3.45,6.1-6.06,1.64-3.35,4.97-5.43,8.7-5.43,3.97,0,7.6,2.49,9.02,6.2.99,2.57,2.56,4.69,4.54,6.14h0c2.75,2.01,4.23,5.25,3.94,8.66Z"/>
  </g>
</svg>