<?xml version="1.0" encoding="UTF-8"?><svg id="Layer_2" xmlns="http://www.w3.org/2000/svg" viewBox="0 0 300 300"><defs><style>.cls-1{fill:none;}.cls-2{fill:#04b1aa;}.cls-3{fill:#093c5e;}</style></defs><g id="Layer_1-2"><path class="cls-2" d="M158.66,134.4c5.48,6.68,27.92,4.3,27.9,20.51-.02,12.36-11.67,17.29-22.48,16.52-5.86-.42-22.03-4.62-19.52-12.68,1.8-5.79,9.93.39,12.96,1.53,4.21,1.59,14.48,3.52,17.09-1.01,5.16-8.95-11.74-10.77-17.09-13.02-19.1-8.02-11.1-30.18,7.95-30.17,4.01,0,17.41,2.83,19.18,6.72,1.22,2.69,0,6.08-2.97,6.63-5.31.98-11.72-5.97-20.32-3.36-3.45,1.05-5,5.52-2.7,8.32Z"/><path class="cls-2" d="M203.49,107.66c.5-2.32,3.68-4.3,6.08-3.93,6.23.96,4.92,9.42,4.96,14.14,4.8,2.71,12.54-.71,16.63-3.95,8.55-6.79,10.81-17.65,6.2-27.58-1.75-3.77-7.05-7.2-5.7-11.05,3.92-5.36,9.81,2.92,11.84,6.38,12.81,21.79-3.91,48.84-28.95,47.03l.16,29.01c2.68,6.61,13.75-.98,14.55,6.11.58,5.08-3.01,6.46-7.69,6.97s-11.67-.67-14.74-4.46c-.79-.97-3.35-6.75-3.35-7.72v-29.91c-4.66-.29-12.35,1.65-12.62-4.79-.31-7.28,7.48-5.28,12.62-5.55.45-3.15-.62-7.8,0-10.71Z"/><path class="cls-2" d="M252.97,112.45l7.04-9.57c2.75-5.58,3.21-10.13,1.22-16.05l-6.43-11.3c17.11,6.9,17,32.63-1.84,36.91Z"/><path class="cls-2" d="M276.58,99.17c1.6,4.29,2.31,7.68-.4,11.78-4.06,6.15-11.89,3.18-10.67,2.26,5.12.14,8.19-3.36,9.27-8.09.21-.92-.06-7.82,1.79-5.95Z"/><path class="cls-2" d="M26.05,100.05c14.94,1.33,46.43-6.7,50.69,13.98,1.78,8.63-2.26,14.76-9.1,19.46,9.21,4.66,14.53,9.38,13.19,20.59-1.13,9.55-10.58,15.06-19.49,15.95-7.72.77-26.4.92-33.97.02-3.81-.45-4.49-1.91-4.82-5.52-1.74-19,1.4-40.6,0-59.89.03-2.11,1.88-3.57,3.51-4.61ZM33.65,129.44h23.26c3.85,0,8.49-6.06,8.5-9.97.01-4.15-5.3-9.23-9.24-9.23h-21.41l-1.11,1.11v18.09ZM33.65,159.71h26.21c7.26,0,13.1-10.82,6.3-16.64-1.26-1.08-5.66-3.3-7.04-3.3h-24.37l-1.11,1.11v18.83Z"/><path class="cls-2" d="M100.11,147.9c1.58,10.8,9.49,15.67,20.13,13.85,4.85-.83,11.74-8.87,15.25-3.83,5.27,7.54-11.51,13.17-16.56,13.59-40.6,3.41-39.74-57.15-2.91-55.4,12.43.59,22.75,10.77,23.26,23.26.09,2.23.03,8.52-3.35,8.52h-35.81ZM128.17,140.52c-1.21-19.85-26.66-19.76-28.06,0h28.06Z"/><path class="cls-3" d="M35.87,59.29v18.09c0,6-10.87,7.42-12.54.72l.37-63.84c1.96-2.73,4.09-3.46,7.34-3.74,18.88-1.61,47.99-1.05,47.68,24.73-.15,12.07-11.94,24.04-24.02,24.04h-18.83ZM35.87,47.47h19.57c.33,0,4.41-1.91,5.05-2.33,7.18-4.69,6.84-16.87-.94-20.97-.69-.36-4.45-1.8-4.85-1.8h-18.83v25.11Z"/><path class="cls-3" d="M95.31,59.29c-2,.5.52,5.74,1.23,6.89,4.43,7.21,13.37,8.61,20.83,5.56,3.44-1.41,8.91-7.6,12.2-2.41,5.71,8.98-14.59,14.4-20.85,14.27-37.17-.75-35.41-61.29,4.99-56.01,11.16,1.46,20.51,14.52,20.37,25.42-.02,1.59-1.91,6.27-3.32,6.27h-35.44ZM121.52,51.17c-1.6-18.91-24.98-18.16-27.32,0h27.32Z"/><path class="cls-3" d="M195.19,27.73c5.61-.82,11.53.06,16.8,2.01,4.04,1.49,10.82,5.02,6.27,10-3.91,4.29-7.91-.1-11.97-1.35-4.67-1.43-16.68-2.39-14.32,5.41,2.06,6.81,24.63,6.18,28,17.83,1.33,4.6.39,11.07-2.56,14.9-7.43,9.65-28.45,7.59-37.07.36-2.51-2.1-3.53-3.61-1.86-6.8,3.31-6.3,9.76.3,14.27,1.77,4.97,1.63,18.15,3.08,16.53-5.39-.9-4.72-16.43-7.43-21.06-10.01-14.09-7.84-8.05-26.54,6.97-28.74Z"/><path class="cls-3" d="M158.45,28.28h10.71c.97,0,3.85,2.76,4.07,4.1.27,1.65-1.09,6.24-2.59,6.24h-12.18v29.91c0,.24,2.8,2.97,3.47,3.17,3.38,1.01,8.76-1.58,10.92,3.12,4.17,9.12-18.7,11.87-24.61,2.44-.58-.92-2.34-5.05-2.34-5.79v-32.86l-10.17-.49c-6.75-8.37,2.67-11.05,10.17-9.85v-10.71c0-2.36,4.81-5.03,7.41-4.51,6.78,1.34,4.95,10.24,5.15,15.22Z"/><rect class="cls-1" width="300" height="300"/></g></svg>