<?xml version="1.0" encoding="UTF-8"?><svg id="Layer_2" xmlns="http://www.w3.org/2000/svg" viewBox="0 0 300 300"><defs><style>.cls-1{fill:none;}.cls-2{fill:#204560;}.cls-3{fill:#7dcecb;}</style></defs><g id="Layer_1-2"><path class="cls-2" d="M22,14.33l.65-.99,54.47-.18c1.64-.04,1.16,5.81.77,6.35-.1.13-.98.72-1.06.72H31.46v12.24l.44.44h27.49c1.39,0,1.64,7.08-.3,7.08h-27.19l-.44.44v19.76c0,.13-.45,1.03-.6,1.17-.68.66-6.98.64-7.91.23-.4-.18-.65-.66-.96-.96V14.33Z"/><path class="cls-2" d="M22,75.96c4.01.47,11.85-2.02,10.92,4.55-.15,1.09-1.42,2.53-2.49,2.53h-6.95v5.43s-1.48.17-1.48.17v-12.68ZM23.48,81.86h6.36c1.78,0,2.64-3.1,1.16-4.1-1-.68-5.55-.84-6.77-.61-.33.06-.55.15-.74.44v4.28Z"/><path class="cls-2" d="M177.19,42.05l-20.19-.35c-1.11-.32-1-4.63-.79-5.68.22-1.13,1.53-1.26,2.49-1.35,8.08-.74,17.25.59,25.45,0l2.06.9.1,18.38c-10.84,7.56-25.17,9.8-38.24,9.06-16.86-.96-41.36-13.7-31.68-33.99,9.3-19.48,43.57-20.51,61.01-13.26,1.33.55,5.97,2.7,6.89,3.45.47.38.23.25.01.58-.3.44-3.57,4.22-3.85,4.42-1.73,1.21-4.03-.59-5.83-1.25-11.75-4.3-21.94-6.12-34.29-2.51-9.43,2.75-19.41,9.92-15.95,21.08,5.33,17.2,36.85,16.65,50.07,10.6.96-.44,2.02-.88,2.76-1.67v-8.4Z"/><path class="cls-2" d="M267.64,41.75c4.57-11.23-7.09-18.39-16.33-21.02-10.62-3.02-24.32-2.17-34.01,3.38-6.17,3.53-11.57,10.36-7.89,17.63-.37.31-2.34-1.85-2.65-2.22-5.75-6.74-4.41-14.52,1.9-20.2,13.04-11.74,40.83-12,55.41-3.07,10.37,6.35,13.95,16.95,3.57,25.49Z"/><path class="cls-2" d="M92.56,13.21c.65-.19,6.54-.2,7.32-.05.59.11.95.42,1.03,1.03l.02,46.01c0,.75-.61,1.46-1.35,1.6-.9.17-5.57.14-6.43-.06-.81-.19-1.27-.77-1.37-1.58l.13-46.43c.15-.25.36-.44.65-.53Z"/><path class="cls-2" d="M237.74,76.61s-.02-.09-.02-.4c0-.35,0-.57.02-.86,0-.21,0-.18,0-.62,0,0,0-.43.02-.96,0-.48.2-6.51.15-7.92,0-.11-.02-.35-.15-.62,0,0-.1-.57-.58-.63-4.03-.47-7.94-.73-11.93-1.63-9.74-2.19-21.44-8.63-24.92-18.49-1.06-2.99-1.61-6.54-.99-9.75.13-.66,1.05-.7,1.26-.06,3.82,12.12,19.47,19.28,31.14,20.94,3.69.52,10.42-.53,10.14,4.96-.03.57-.29.86-1.49,3.24,0,0,0,0,0,0,0,0,0,0,0,0s-.46.91-.51,1.02c-.4.9.44,7.6.46,8.93,0,.14,0,.49.02,1.06,0,.07,0,.41.02,1.09,0,.46,0,.69-.1.93-.11.25-.29.43-.32.46-.06.06-.16.15-.31.24-.22.12-.43.14-.57.15-.12,0-.34,0-.58-.12-.25-.12-.39-.28-.45-.36-.23-.27-.29-.54-.3-.6ZM219.24,55.26c0-.93-.75-1.68-1.68-1.68s-1.68.75-1.68,1.68.75,1.68,1.68,1.68,1.68-.75,1.68-1.68ZM227.73,58.12c0-.92-.75-1.67-1.67-1.67s-1.67.75-1.67,1.67.75,1.67,1.67,1.67,1.67-.75,1.67-1.67ZM236.36,59.57c0-.91-.74-1.65-1.66-1.65s-1.66.74-1.66,1.65.74,1.65,1.66,1.65,1.66-.74,1.66-1.65Z"/><path class="cls-2" d="M243.1,63.57c1.8-2.51,1.6-5.85-.29-8.25,12.73-1.77,27.53-7.51,33.11-19.9l1.17-4.87c5.73,20.27-16.81,32.44-33.99,33.02Z"/><path class="cls-2" d="M138.91,75.96c2.93.41,4.29,3.44,2.64,5.88-.75,1.11-1.47,1-2.49,1.64l2.65,5.16c-.41-.06-1.12.15-1.43-.05-.25-.16-2.5-4.53-2.71-5.26h-5.32v5.31h-1.48v-12.68c2.53.25,5.68-.34,8.13,0ZM132.26,81.86h7.24c1.1,0,1.54-2.1,1.27-3.04-.21-.71-1.78-1.68-2.45-1.68h-6.06v4.72Z"/><path class="cls-2" d="M91.17,86.29v-10.32h1.48v12.68l-1.65-.27-7.96-10.04c-.92.61-.18,1.5-.21,2.21-.11,2.7-.56,5.42.06,8.11h-1.48s0-12.68,0-12.68c.41,0,.87-.07,1.27.06,1.48.49,6.56,8.96,8.49,10.26Z"/><path class="cls-2" d="M102.03,75.75c2.23-.29,4.94.25,6.57,1.84l-1.03.98c-1.55-2.41-9.82-1.84-8.28,1.52,1.2,2.62,9.19-.73,9.89,4.01.87,5.89-9.75,5.89-12.39,2.04l1.03-1.03c1.47,2.91,9.78,3.44,10.12-.2.42-4.6-10.33,0-10.16-5.51.07-2.32,2.2-3.38,4.26-3.65Z"/><path class="cls-2" d="M172.16,75.96h1.18v12.68l-1.62-.3-8.13-10.02v10.32h-1.48v-12.68c.42,0,.86-.07,1.27.06,1.46.48,6.74,8.76,8.34,10.25.26.02.44-1.47.44-1.62v-8.7Z"/><path class="cls-2" d="M47.72,75.96v1.47c-.11.15-.38-.29-.44-.29h-8.42v4.13h4.29l.44,1.47h-4.73v4.42h9.16v1.47h-10.64v-12.68h10.35Z"/><path class="cls-2" d="M206.74,75.96v1.18h-8.72c-.91,1.02-.26,2.82-.44,4.13h4.73v1.47h-4.73v4.42h9.46v1.47h-10.64v-12.68h10.35Z"/><path class="cls-2" d="M158.27,88.64c-2.26.5-2.6-2.74-3.52-4.24l-6.49-.14-1.86,4.34-1.43.05,5.91-12.54c.58-.28,1.4-.3,1.75.33l5.64,12.21ZM153.83,82.75c0-.65-1.94-5.01-2.22-5.01-.78,1.63-1.9,3.24-2.22,5.01h4.43Z"/><path class="cls-2" d="M183.91,75.74c.76-.12,1.5-.12,2.26-.04,1.01.1,5.29,1.43,4.91,2.76-.35,1.21-2.73-.69-3.46-.96-9.78-3.64-10.77,12.33-.14,9.76,1.59-.39,3.57-3.15,3.77-.68-5.07,4.54-13.93,1.96-12.85-5.73.37-2.63,2.97-4.72,5.51-5.11Z"/><path class="cls-2" d="M115.11,75.96v8.7c0,.35.8,1.76,1.19,2.06,1.31,1,4.68,1.05,6.01.12.38-.27,1.37-1.83,1.37-2.17v-8.7h1.18v9.29c0,.12-.6,1.39-.75,1.61-1.73,2.53-7.32,2.63-9.3.46-.16-.17-.88-1.39-.88-1.48v-9.88h1.18Z"/><polygon class="cls-2" points="62.2 75.96 62.2 77.14 57.91 77.14 57.47 77.59 57.47 88.65 55.99 88.65 55.99 77.14 51.56 77.14 51.56 75.96 62.2 75.96"/><rect class="cls-2" x="74.02" y="75.96" width="1.18" height="12.68"/><path class="cls-3" d="M248.54,74.91c-2.06-.56-4.77-1.1-7.98-1.25.02.09.03.18.03.28v2.55c0,.86-.7,1.56-1.56,1.56s-1.56-.7-1.56-1.56v-2.55c0-.1.01-.19.03-.28-3.32.13-6.11.69-8.2,1.26l-.26,2.56c-.29,3.21.16,5.78.58,7.41,1.27,4.96,3.94,7.99,5.33,9.54,1.81,2.01,2.91,3.19,4.45,3.17,1.94-.03,3.32-1.93,5.13-4.45,1.22-1.68,2.87-4.02,3.85-7.62,1.26-4.61.65-8.54.17-10.61Z"/><rect class="cls-1" width="300" height="300"/></g></svg>