<?xml version="1.0" encoding="UTF-8"?><svg id="Layer_2" xmlns="http://www.w3.org/2000/svg" viewBox="0 0 804.55 273.6"><defs><style>.cls-1{fill:#ff8884;}</style></defs><g id="Layer_1-2"><path class="cls-1" d="M675.59,272.42c-8.24-1.36-4.35-10-2.73-15.17-3.49.76-17.47,1.77-18.69-2.25-1.37-4.51,6.44-18.07,7.04-23.72.25-2.3-.68-3.32-2.93-2.17-2.92,9.22-5.39,21.45-11.53,29.03-18.35,22.67-68.78,15.01-94.17,10.44-5.26-.94-15.72-2.34-20.21-4.06-.94-.36-1.75-.52-1.52-1.81l23.99.63c25.03-1.52,58.2-3.41,67.35-31.58,13.05-40.15,9.36-80.09,48.41-107.56,15.12-10.64,33.35-13.71,47.46-25.37,5.98-4.94,15.52-14.31,18.86-21.2,5.17-10.67,4.52-25.96,18.48-30.38.9-.82-.05-1.11-.9-1.21-3.07-.37-6.28-.23-9.55-.78-17.38-2.92-32.53-13.63-31.49-32.79l1.21-.74,58.34,29.14c12.77,7.39,22.34,19.64,31.54,30.95-1.29,2.81-3.29,7.27-6.64,7.97-2.26.47-6.64-1.33-9.44-1.57-6.11-.53-15.13-.39-20,3.65-5.23,4.34-15.94,24.43-16.63,31.31-1.45,14.53,7.82,17.81,16.33,26.61,3.11,3.22,6.9,7.46,9.68,10.96,4.89,6.14,11.01,14.28,12.15,22.14-8.48-8-15.8-18.55-25.28-25.39-1.58-1.14-5.54-3.85-7.19-4.34-2.18-.65.25,2.17.43,2.6,5.26,12.53,5.63,28.87.79,41.68-2.53,6.69-5.61,8.61-12.75,9.1-3.03.21-17.74-1.09-19.4-3.04-3.96-4.64,2.16-17.7,9.02-17.54,4.13.1,14.48,7.75,18.51,1.41,2.53-3.98-2.05-6.62-4.07-9.77-4.24-6.6-4.78-12-13.44-14.48-1.52-.44-3.01-.21-4.72-.74-7.17-2.24-15.96-9.87-23.21-11.99-.82-.24-1.59-.4-2.44-.28-.23,10.17,8.59,14.78,17.59,15.47-4.06,2.86-4.52,7.67-6.57,11.64-2.28,4.42-7.21,10.01-11.02,13.25-1.4,1.19-3.8,3.66-5.43,3.03-4.58-1.78-14.31-9.82-16.94-14.06-.86-1.39-.67-4.19-2.52-3.85-2.26,6.95,5.75,13.23,10.73,16.88,13.26,9.73,37.44,18.8,53.92,17.73,1.78-.12,3.5-.53,5.13-1.24.28,1.05-.43,1.22-.9,1.82-9.28,11.93-23.78,19.37-38.25,23.05-3.13,8.01-7,15.66-11.82,22.77,10.22-.61,21.39,2.2,27.91,10.62h-35.5c-.5,0-1.22,1.51-.9,2.11.51.88,1.2.85,2.08.95,24.44,2.83,52.93-11.01,74.05,7.27l5.18,4.84h-97.41ZM732.94,151.64l-11.85-17.58-2.1-.62c-.83,2.53-2.12,7.25-.92,9.71.45.93,6.4,4.19,7.79,4.96.9.5,6.78,3.82,7.08,3.53ZM670.43,248.13c1.51.37,4.62,1.39,5.77.01l3.93-13.36c-1.22,1.55-10.22,12.62-9.7,13.34Z"/><path class="cls-1" d="M767.53,34.5l-29.41-14.59c-2.21-5.4-1.94-11.81.41-17.13.64-1.44,1.8-4.16,3.5-1.95l25.49,33.67Z"/><path class="cls-1" d="M744.87,238.41c0,6.94-5.63,12.57-12.57,12.57s-12.57-5.63-12.57-12.57,5.63-12.57,12.57-12.57,12.57,5.63,12.57,12.57ZM743.04,238.41c0-5.93-4.81-10.74-10.74-10.74s-10.74,4.81-10.74,10.74,4.81,10.74,10.74,10.74,10.74-4.81,10.74-10.74Z"/><path class="cls-1" d="M727.81,230.95c2.99.17,8.27-.95,9.23,3,.55,2.29-.3,4.37-2.49,5.31l3.98,6.64h-2.99l-3.44-5.91h-1.61v5.91h-2.7v-14.96ZM730.51,237.75h2.02c.05,0,.52-.13.61-.16.84-.29,1.28-.91,1.35-1.79.22-2.74-1.9-2.59-3.98-2.6v4.56Z"/><path d="M289.1,243.58c15.34-.35,38.94,9.59,41.98-12.51-14.18-.27-28.8,2.2-41.37-5.83-18.84-12.03-18.05-54.9,2.12-65.61,13.32-7.07,48.56-10.56,56.95,4.75,5.79,10.57,5.06,73.24-1.18,84.16-9.22,16.12-41.51,16.65-56.46,8.7l-2.04-13.65ZM328.99,172.57c-40.9-15.81-45.2,48.81-3.48,41.45l3.48-2.81v-38.64Z"/><path d="M22.49,185.1c18.92-8.11,27.52-38.25,52.49-29.22,4.48,5.13-25.68,28.98-29.36,34.44l31.41,35.51c-24.73,14.55-33.72-13.9-48.18-27.22-2.08-1.91-2.96-3.81-6.36-3.07v33.42c-8.54,2.35-18.07,5.63-20.52-5.69-2.92-13.43-2.13-73.91-.59-89.47,1.32-13.31,10.62-14.98,21.11-8.23v59.53Z"/><path d="M139,185.1l2.23-4.25c-5.48-19.56-36.61-4.49-43.31-9.2-2.83-1.99-2.88-11.19-1.02-13.83,1.38-1.97,23.8-6.15,27.5-6.2,13.75-.16,31.24,6.47,36.08,20.46s7.44,53.51-13.2,56.76c-8.02,1.27-35.44,1.07-42.97-.87-20.74-5.34-15.58-42.87,3.2-42.87h31.49ZM140.06,199.71l-25.95.31c-12.99,17.52,9.94,15.01,22.5,14.03,5.22-1.7,3.21-9.85,3.45-14.34Z"/><path d="M550.97,154.27c18.93-3.19,39.11-.37,47.14,18.93,15.69,37.68-15.16,69.12-53.39,55.21-30.61-11.13-27.86-68.4,6.25-74.14ZM559.43,170.9c-21.69,3.13-18.79,45.28,5.23,43,22.23-2.12,21.85-46.91-5.23-43Z"/><path d="M391.97,204.94c3.07,14.34,33.59,9.84,33.59,0v-45.95c6.39-6.9,14.71-6.8,20.99,0v48.04c0,.83-4.28,9.84-5.34,11.39-11.98,17.61-52.99,17.46-64.89,0-1.06-1.55-5.34-10.57-5.34-11.39v-48.04c6.39-6.9,14.71-6.8,20.99,0v45.95Z"/><path d="M182.04,179.88c3.48-24.54,28.13-28.81,49.15-25.93,9.85,1.35,26.43,10.96,26.43,21.75v50.13c-4.51,4.93-16.48,4.93-20.99,0v-45.95c0-12.18-33.59-13.54-33.59,2.09v43.86c-2.29,5.21-20.99,4.02-20.99,0,1.44-14.36-1.97-32.09,0-45.95Z"/><path d="M485.94,228.47c-4.19,4.15-17.88,4.32-20.07-3.06-1.76-5.94-1.24-48.16.08-55.49,3.13-17.39,28.56-16.23,42.25-15.85,10.64,16.25.06,20.59-16.22,18.79l-3.14,3.14c-2.29,10.08,3.11,46.52-2.89,52.47Z"/></g></svg>