<?xml version="1.0" encoding="UTF-8"?><svg id="Layer_2" xmlns="http://www.w3.org/2000/svg" viewBox="0 0 500 290.31"><defs><style>.cls-1{fill:none;}</style></defs><g id="Layer_2-2"><g id="Layer_1-2"><path d="M382.73,211.02c-4-.66-2.11-4.86-1.33-7.37-1.69.37-8.48.86-9.08-1.09-.67-2.19,3.13-8.77,3.42-11.52.12-1.12-.33-1.61-1.42-1.05-1.42,4.48-2.62,10.42-5.6,14.1-8.91,11.01-33.4,7.29-45.73,5.07-2.55-.46-7.63-1.14-9.81-1.97-.46-.17-.85-.25-.74-.88l11.65.31c12.15-.74,28.26-1.66,32.71-15.34,6.34-19.5,4.55-38.89,23.51-52.23,7.34-5.17,16.2-6.66,23.05-12.32,2.9-2.4,7.54-6.95,9.16-10.29,2.51-5.18,2.19-12.61,8.97-14.75.44-.4-.02-.54-.44-.59-1.49-.18-3.05-.11-4.64-.38-8.44-1.42-15.8-6.62-15.29-15.92l.59-.36,28.33,14.15c6.2,3.59,10.85,9.54,15.32,15.03-.63,1.36-1.6,3.53-3.22,3.87-1.1.23-3.22-.65-4.58-.76-2.97-.26-7.35-.19-9.71,1.77-2.54,2.11-7.74,11.86-8.08,15.2-.7,7.06,3.8,8.65,7.93,12.92,1.51,1.56,3.35,3.62,4.7,5.32,2.37,2.98,5.35,6.93,5.9,10.75-4.12-3.88-7.67-9.01-12.28-12.33-.77-.55-2.69-1.87-3.49-2.11-1.06-.32.12,1.05.21,1.26,2.55,6.08,2.73,14.02.38,20.24-1.23,3.25-2.72,4.18-6.19,4.42-1.47.1-8.61-.53-9.42-1.48-1.92-2.25,1.05-8.6,4.38-8.52,2.01.05,7.03,3.76,8.99.68,1.23-1.93-1-3.21-1.98-4.74-2.06-3.21-2.32-5.83-6.53-7.03-.74-.21-1.46-.1-2.29-.36-3.48-1.09-7.75-4.79-11.27-5.82-.4-.12-.77-.19-1.18-.14-.11,4.94,4.17,7.18,8.54,7.51-1.97,1.39-2.19,3.72-3.19,5.65-1.11,2.15-3.5,4.86-5.35,6.43-.68.58-1.85,1.78-2.64,1.47-2.22-.86-6.95-4.77-8.23-6.83-.42-.67-.33-2.03-1.22-1.87-1.1,3.37,2.79,6.42,5.21,8.2,6.44,4.72,18.18,9.13,26.18,8.61.86-.06,1.7-.26,2.49-.6.14.51-.21.59-.44.88-4.51,5.79-11.55,9.41-18.57,11.19-1.52,3.89-3.4,7.6-5.74,11.06,4.96-.3,10.39,1.07,13.55,5.16h-17.24c-.24,0-.59.73-.44,1.02.25.43.58.41,1.01.46,11.87,1.37,25.7-5.35,35.96,3.53l2.52,2.35h-47.3v.04h0ZM410.58,152.37l-5.75-8.54-1.02-.3c-.4,1.23-1.03,3.52-.45,4.72.22.45,3.11,2.03,3.78,2.41.44.24,3.29,1.86,3.44,1.71h0ZM380.22,199.22c.73.18,2.24.67,2.8,0l1.91-6.49c-.59.75-4.96,6.13-4.71,6.48h0Z"/><path d="M427.37,95.48l-14.28-7.09c-1.07-2.62-.94-5.74.2-8.32.31-.7.87-2.02,1.7-.95l12.38,16.35h0Z"/><path d="M416.37,194.5c0,3.37-2.73,6.1-6.1,6.1s-6.1-2.73-6.1-6.1,2.73-6.1,6.1-6.1,6.1,2.73,6.1,6.1ZM415.48,194.5c0-2.88-2.34-5.22-5.22-5.22s-5.22,2.34-5.22,5.22,2.34,5.22,5.22,5.22,5.22-2.34,5.22-5.22Z"/><path d="M408.08,190.88c1.45.08,4.02-.46,4.48,1.46.27,1.11-.15,2.12-1.21,2.58l1.93,3.22h-1.45l-1.67-2.87h-.78v2.87h-1.31v-7.26h.01ZM409.4,194.18h.98s.25-.06.3-.08c.41-.14.62-.44.66-.87.11-1.33-.92-1.26-1.93-1.26v2.21h-.01Z"/><path d="M195.04,197.01c7.45-.17,18.91,4.66,20.39-6.07-6.89-.13-13.99,1.07-20.09-2.83-9.15-5.84-8.77-26.66,1.03-31.86,6.47-3.43,23.58-5.13,27.66,2.31,2.81,5.13,2.46,35.57-.57,40.87-4.48,7.83-20.16,8.09-27.42,4.22l-.99-6.63h0ZM214.41,162.53c-19.86-7.68-21.95,23.7-1.69,20.13l1.69-1.36v-18.76h0Z"/><path d="M65.57,168.62c9.19-3.94,13.36-18.57,25.49-14.19,2.18,2.49-12.47,14.07-14.26,16.72l15.25,17.24c-12.01,7.07-16.37-6.75-23.4-13.22-1.01-.93-1.44-1.85-3.09-1.49v16.23c-4.15,1.14-8.77,2.73-9.96-2.76-1.42-6.52-1.03-35.89-.29-43.45.64-6.46,5.16-7.27,10.25-4v28.91h.01Z"/><path d="M122.15,168.62l1.08-2.06c-2.66-9.5-17.78-2.18-21.03-4.47-1.37-.97-1.4-5.43-.5-6.72.67-.96,11.56-2.99,13.35-3.01,6.68-.08,15.17,3.14,17.52,9.94s3.61,25.99-6.41,27.56c-3.89.62-17.21.52-20.87-.42-10.07-2.59-7.57-20.82,1.55-20.82h15.31,0ZM122.67,175.71l-12.6.15c-6.31,8.51,4.83,7.29,10.93,6.81,2.53-.83,1.56-4.78,1.68-6.96h0Z"/><path d="M322.21,153.64c9.19-1.55,18.99-.18,22.89,9.19,7.62,18.3-7.36,33.57-25.93,26.81-14.86-5.4-13.53-33.22,3.04-36ZM326.32,161.72c-10.53,1.52-9.12,21.99,2.54,20.88,10.8-1.03,10.61-22.78-2.54-20.88Z"/><path d="M245,178.25c1.49,6.96,16.31,4.78,16.31,0v-22.31c3.1-3.35,7.14-3.3,10.19,0v23.33c0,.4-2.08,4.78-2.59,5.53-5.82,8.55-25.73,8.48-31.51,0-.51-.75-2.59-5.13-2.59-5.53v-23.33c3.1-3.35,7.14-3.3,10.19,0v22.31h0Z"/><path d="M143.05,166.08c1.69-11.92,13.66-13.99,23.87-12.59,4.78.66,12.83,5.32,12.83,10.56v24.34c-2.19,2.39-8,2.39-10.19,0v-22.31c0-5.91-16.31-6.58-16.31,1.01v21.3c-1.11,2.53-10.19,1.95-10.19,0,.7-6.97-.96-15.58,0-22.31h0Z"/><path d="M290.63,189.68c-2.03,2.02-8.68,2.1-9.75-1.49-.85-2.88-.6-23.39.04-26.95,1.52-8.44,13.87-7.88,20.52-7.7,5.17,7.89.03,10-7.88,9.12l-1.52,1.52c-1.11,4.89,1.51,22.59-1.4,25.48h0v.02h-.01Z"/></g><rect class="cls-1" width="500" height="290.31"/></g></svg>