<?xml version="1.0" encoding="UTF-8"?>
<svg id="Layer_1" data-name="Layer 1" xmlns="http://www.w3.org/2000/svg" viewBox="0 0 400 150">
  <defs>
    <style>
      .cls-1 {
        fill: #fff;
      }
    </style>
  </defs>
  <g id="Layer_1-2" data-name="Layer 1-2">
    <path class="cls-1" d="M286.28,117.82c-2.6-.43-1.37-3.16-.86-4.79-1.1.24-5.51.56-5.9-.71-.44-1.42,2.03-5.7,2.22-7.49.08-.73-.21-1.05-.92-.68-.92,2.91-1.7,6.77-3.64,9.17-5.79,7.16-21.71,4.74-29.73,3.3-1.66-.3-4.96-.74-6.38-1.28-.3-.11-.55-.16-.48-.57l7.57.2c7.9-.48,18.37-1.08,21.26-9.97,4.12-12.68,2.96-25.28,15.28-33.95,4.77-3.36,10.53-4.33,14.98-8.01,1.89-1.56,4.9-4.52,5.95-6.69,1.63-3.37,1.42-8.2,5.83-9.59.29-.26-.01-.35-.29-.38-.97-.12-1.98-.07-3.02-.25-5.49-.92-10.27-4.3-9.94-10.35l.38-.23,18.42,9.2c4.03,2.33,7.05,6.2,9.96,9.77-.41.88-1.04,2.29-2.09,2.52-.72.15-2.09-.42-2.98-.49-1.93-.17-4.78-.12-6.31,1.15-1.65,1.37-5.03,7.71-5.25,9.88-.46,4.59,2.47,5.62,5.16,8.4.98,1.01,2.18,2.35,3.06,3.46,1.54,1.94,3.48,4.51,3.84,6.99-2.68-2.52-4.99-5.86-7.98-8.02-.5-.36-1.75-1.22-2.27-1.37-.69-.21.08.68.14.82,1.66,3.95,1.77,9.11.25,13.16-.8,2.11-1.77,2.72-4.02,2.87-.96.07-5.6-.34-6.12-.96-1.25-1.46.68-5.59,2.85-5.54,1.31.03,4.57,2.44,5.84.44.8-1.25-.65-2.09-1.29-3.08-1.34-2.09-1.51-3.79-4.25-4.57-.48-.14-.95-.07-1.49-.23-2.26-.71-5.04-3.11-7.33-3.78-.26-.08-.5-.12-.77-.09-.07,3.21,2.71,4.67,5.55,4.88-1.28.9-1.42,2.42-2.07,3.67-.72,1.4-2.28,3.16-3.48,4.18-.44.38-1.2,1.16-1.72.96-1.44-.56-4.52-3.1-5.35-4.44-.27-.44-.21-1.32-.79-1.22-.72,2.19,1.81,4.17,3.39,5.33,4.19,3.07,11.82,5.94,17.02,5.6.56-.04,1.11-.17,1.62-.39.09.33-.14.38-.29.57-2.93,3.76-7.51,6.12-12.07,7.27-.99,2.53-2.21,4.94-3.73,7.19,3.22-.2,6.75.7,8.81,3.35h-11.21c-.16,0-.38.47-.29.66.16.28.38.27.66.3,7.72.89,16.71-3.48,23.38,2.29l1.64,1.53h-30.75v.03ZM304.39,79.69l-3.74-5.55-.66-.2c-.26.8-.67,2.29-.29,3.07.14.29,2.02,1.32,2.46,1.57.29.16,2.14,1.21,2.24,1.11h0ZM284.65,110.15c.47.12,1.46.44,1.82,0l1.24-4.22c-.38.49-3.22,3.99-3.06,4.21h0Z"/>
    <path class="cls-1" d="M315.3,42.7l-9.28-4.61c-.7-1.7-.61-3.73.13-5.41.2-.46.57-1.31,1.11-.62l8.05,10.63h0Z"/>
    <path class="cls-1" d="M308.15,107.08c0,2.19-1.77,3.97-3.97,3.97s-3.97-1.77-3.97-3.97,1.77-3.97,3.97-3.97,3.97,1.77,3.97,3.97ZM307.58,107.08c0-1.87-1.52-3.39-3.39-3.39s-3.39,1.52-3.39,3.39,1.52,3.39,3.39,3.39,3.39-1.52,3.39-3.39Z"/>
    <path class="cls-1" d="M302.76,104.72c.94.05,2.61-.3,2.91.95.18.72-.1,1.38-.79,1.68l1.25,2.09h-.94l-1.09-1.87h-.51v1.87h-.85v-4.72h0ZM303.62,106.87h.64s.16-.04.2-.05c.27-.09.4-.29.43-.57.07-.86-.6-.82-1.25-.82v1.44h0Z"/>
    <path class="cls-1" d="M164.27,108.71c4.84-.11,12.29,3.03,13.26-3.95-4.48-.08-9.09.7-13.06-1.84-5.95-3.8-5.7-17.33.67-20.71,4.21-2.23,15.33-3.33,17.98,1.5,1.83,3.33,1.6,23.12-.37,26.57-2.91,5.09-13.11,5.26-17.83,2.74l-.64-4.31h0ZM176.86,86.29c-12.91-4.99-14.27,15.41-1.1,13.09l1.1-.88v-12.2h0Z"/>
    <path class="cls-1" d="M80.1,90.25c5.97-2.56,8.69-12.07,16.57-9.22,1.42,1.62-8.11,9.15-9.27,10.87l9.91,11.21c-7.81,4.6-10.64-4.39-15.21-8.59-.66-.6-.94-1.2-2.01-.97v10.55c-2.7.74-5.7,1.77-6.47-1.79-.92-4.24-.67-23.33-.19-28.25.42-4.2,3.35-4.73,6.66-2.6v18.79h0Z"/>
    <path class="cls-1" d="M116.88,90.25l.7-1.34c-1.73-6.18-11.56-1.42-13.67-2.91-.89-.63-.91-3.53-.33-4.37.44-.62,7.52-1.94,8.68-1.96,4.34-.05,9.86,2.04,11.39,6.46s2.35,16.9-4.17,17.92c-2.53.4-11.19.34-13.57-.27-6.55-1.68-4.92-13.53,1.01-13.53h9.95ZM117.22,94.86l-8.19.1c-4.1,5.53,3.14,4.74,7.11,4.43,1.64-.54,1.01-3.11,1.09-4.52h0Z"/>
    <path class="cls-1" d="M246.94,80.51c5.97-1.01,12.35-.12,14.88,5.97,4.95,11.9-4.78,21.82-16.86,17.43-9.66-3.51-8.8-21.6,1.98-23.4ZM249.61,85.77c-6.85.99-5.93,14.3,1.65,13.57,7.02-.67,6.9-14.81-1.65-13.57Z"/>
    <path class="cls-1" d="M196.75,96.51c.97,4.52,10.6,3.11,10.6,0v-14.5c2.02-2.18,4.64-2.15,6.62,0v15.17c0,.26-1.35,3.11-1.68,3.59-3.78,5.56-16.73,5.51-20.48,0-.33-.49-1.68-3.33-1.68-3.59v-15.17c2.02-2.18,4.64-2.15,6.62,0v14.5h0Z"/>
    <path class="cls-1" d="M130.47,88.6c1.1-7.75,8.88-9.09,15.52-8.18,3.11.43,8.34,3.46,8.34,6.86v15.82c-1.42,1.55-5.2,1.55-6.62,0v-14.5c0-3.84-10.6-4.28-10.6.66v13.85c-.72,1.64-6.62,1.27-6.62,0,.46-4.53-.62-10.13,0-14.5h0Z"/>
    <path class="cls-1" d="M226.41,103.94c-1.32,1.31-5.64,1.37-6.34-.97-.55-1.87-.39-15.21.03-17.52.99-5.49,9.02-5.12,13.34-5.01,3.36,5.13.02,6.5-5.12,5.93l-.99.99c-.72,3.18.98,14.69-.91,16.56h0Z"/>
  </g>
</svg>