<?xml version="1.0" encoding="UTF-8"?><svg id="Layer_2" xmlns="http://www.w3.org/2000/svg" viewBox="0 0 500 500"><defs><style>.cls-1{fill:none;}.cls-2{fill:#b6a999;}.cls-3{fill:#17bebb;}.cls-4{fill:#f2dab2;}.cls-5{fill:#564138;}.cls-6{fill:#cfd2d3;}</style></defs><g id="Layer_2-2"><path class="cls-6" d="M182.99,172.05c-.08,1.16-.08,2.32,0,3.47,3.67-4.36,8.24-7.88,13.39-10.31l-2.99-3.28c-2.63,1.81-5.62,3.05-8.76,3.61-.74,2.11-1.29,4.29-1.64,6.51Z"/><path class="cls-6" d="M249.61,202.44c-.39-7.41-3.02-14.54-7.56-20.42-4.82-5.66-11.49-9.41-18.83-10.59-10.45-2.1-21.29.53-29.61,7.18-10.26,8.87-15.7,28.41-5.78,39.6,7.47,8.48,21.24,10.98,32.08,10.12,7.45-.42,14.65-2.78,20.9-6.84,6.08-4.35,9.43-11.58,8.81-19.03h0Z"/><path class="cls-6" d="M242.13,157.5l-6.69,7.32c5.31,2.36,10.04,5.88,13.83,10.31.1-1.33.1-2.66,0-4-.11-.99-.28-1.97-.48-2.94,0-.96-.48-1.93-.73-2.84-.78-2.58-1.8-5.07-3.03-7.47-.06-.13-.13-.24-.24-.34h-.82c-.18-.03-.35-.03-.53,0h0c-.42-.16-.87-.18-1.3-.04h0Z"/><path class="cls-4" d="M137.14,192.9c-6.7-7.08-9.38-17.06-7.12-26.54,1.96-8.89,9.6-15.39,18.69-15.9-.86-1.81-1.55-3.69-2.02-5.63-.25-1.02-.42-2.04-.53-3.08-.03-.52-.03-1.03,0-1.55,0-1.25.29-1.25-.77-1.73-1.96-.57-3.98-.93-6.02-1.06l-6.07-.82c-3.69-.47-7.41-.59-11.12-.34l-5.39.63-3.14.43c-1.1-.03-2.19.16-3.23.53-.53.39,0,1.82,0,2.7.08,1.01.08,2.02,0,3.03-.25,2.01-.76,3.98-1.49,5.88-1.05,2.89-2.52,5.63-4.39,8.1-3.72,4.72-8.97,7.99-14.83,9.3-1.2.29-1.16.34-1.35,1.59l-.43,2.94c-.34,2.07-.57,4.1-.82,6.16-.52,4.05-.83,8.14-.92,12.24-.48,3.5-.32,7.06.48,10.5,1.42,3.57,3.35,6.9,5.73,9.92,9,11.8,23.55,20.18,38.77,17.77,7.93-1.47,15.29-5.16,21.2-10.65,6.78-5.32,11.53-12.82,13.44-21.24-8.97,7.53-20.87,4.4-28.66-3.16h0Z"/><path class="cls-4" d="M83.87,157.64c6.9-.5,12.85-5.09,15.08-11.65,1.48-3.83,1.31-8.1-.43-11.8-1.25-2.55-3.85-6.26-7.08-6.21-3.23.04-3.95,3.28-5.1,5.44-1.68,3.08-3.95,5.78-6.69,7.94-2.98,2.41-6.36,4.29-9.1,6.89-1.49,1.45-3.61,4-2.45,6.21s4.82,2.51,6.79,2.84c2.96.5,5.99.61,8.99.34h0,0Z"/><path class="cls-4" d="M156.5,143.39c1.83,6.98,7.8,12.1,14.98,12.86,4.87.73,9.85.19,14.45-1.59,7.41-3.41-4.82-11.08-7.41-13.06-2.89-1.92-5.4-4.35-7.41-7.18-1.55-2.32-2.41-6.55-5.25-7.61-2.84-1.06-5.73,1.88-7.18,4.04-2.61,3.62-3.4,8.25-2.17,12.54Z"/><path class="cls-2" d="M155.59,156.78c-2-.85-4.14-1.3-6.31-1.35-1.8,0-3.59.34-5.25,1.01-8.67,3.47-12.28,14.79-8.14,25.28,2.08,5.49,6.23,9.93,11.55,12.37,3.62,1.62,7.73,1.77,11.47.39,8.67-3.47,12.28-14.83,8.14-25.34-2.07-5.45-6.19-9.89-11.47-12.37h0Z"/><path class="cls-5" d="M231.16,209.56c-.8-.36-1.74-.02-2.11.77-.02.04-.03.1-.06.14,0,.24-2.7,6.26-11.94,2.7-.26-.11-.54-.19-.82-.24-.29.03-.56.11-.82.24-9,3.47-11.71-2.07-11.94-2.75-.46-.81-1.49-1.08-2.31-.62-.67.39-.99,1.18-.78,1.92,1.79,3.67,5.56,5.97,9.64,5.88,2.03.02,4.04-.3,5.98-.96,1.94.76,4.02,1.17,6.12,1.2,4.08.07,7.83-2.22,9.64-5.88.52-.77.31-1.81-.46-2.33-.06-.03-.1-.04-.13-.08h0Z"/><ellipse class="cls-5" cx="229.53" cy="195.02" rx="3.61" ry="4.29"/><ellipse class="cls-5" cx="202.4" cy="195.02" rx="3.61" ry="4.29"/><path class="cls-5" d="M215.27,211.84c.26.4.8.51,1.2.24.1-.07.18-.15.24-.24l3.8-6.59c.15-.25.15-.56,0-.82-.13-.28-.41-.44-.73-.43h-7.61c-.3,0-.6.16-.73.43-.15.25-.15.56,0,.82l3.81,6.59h0Z"/><path class="cls-5" d="M259.19,198.44c0-1.73-.57-3.47-.96-5.2,0-.92-.48-1.82-.77-2.75-.4-.85-.69-1.73-.86-2.64.32-1.66.82-3.27,1.49-4.82.5-1.93.85-3.9,1.06-5.88.41-6.83-.81-13.64-3.57-19.89-2.12-5.16-5.2-9.64-11.32-10.31-4.23-.11-8.27,1.82-10.84,5.2l-7.37,8.14c-1.35,1.49-1.35,1.2-3.52.92-3.51-.31-7.04-.31-10.55,0l-3.18.34c-.53,0-1.98.57-2.41.39-.43-.19-.53-.57-.67-.77l-3.47-4.14c-1.11-1.25-2.51-2.45-3.52-3.8-1.01-1.35-.53-3.47-1.01-5.25-1.96-5.14-5.59-9.46-10.31-12.28-2.5-1.58-4.82-3.42-6.94-5.49-1.31-1.68-2.4-3.53-3.23-5.49-2.52-5.12-7.83-8.27-13.53-8.05-6.58.96-12.22,5.26-14.88,11.37-.48.92-.53.86-1.49.67l-1.98-.39-4.48-.77c-3.57-.53-7.12-.96-10.74-1.25-7-.36-14.03.16-20.9,1.58-.67.24-1.39.38-2.12.39-.63,0-1.01-1.2-1.49-1.82-1.05-1.62-2.33-3.08-3.8-4.34-2.33-2.16-5.28-3.56-8.43-4-5.95-.78-11.75,2.29-14.45,7.66-.87,1.97-1.96,3.84-3.23,5.59-2.05,2.12-4.36,3.97-6.89,5.49-4.67,2.81-8.32,7.05-10.4,12.08-2.15,7.21,1.94,14.8,9.15,16.97.29.09.57.16.86.22,3.02.92,6.14,1.44,9.3,1.55-1.11,6.37-1.81,12.81-2.07,19.26-.44,5.28.04,10.59,1.45,15.7,7.17,18.13,23.1,31.35,42.24,35.07,10.91,1.55,22.04-.8,31.4-6.59,9.39-5.74,17.01-13.97,22.01-23.79,1.73,19.99,20.66,29.48,38.53,30.97,13.51,1.55,27.07-2.26,37.81-10.59,8.17-7.36,11.98-18.41,10.06-29.24l.02-.02h0ZM242.13,157.5c2.17-2.36,3.85,2.7,4.34,3.91,1.88,4.33,2.83,9,2.79,13.72-3.78-4.42-8.49-7.95-13.83-10.31l6.69-7.32h0ZM193.06,161.93l2.98,3.28c-5.16,2.43-9.72,5.95-13.39,10.31,0-1.93.19-3.85.57-5.73,0-.77.29-1.49.48-2.21s.24-.92.39-1.35.29-.92.92-.82c1.3-.67,2.98-.82,4.39-1.39,1.3-.54,2.53-1.24,3.67-2.08h0ZM83.87,157.64c-4.99.81-10.13.07-14.69-2.12-5.54-3.66,5.39-10.46,7.75-12.14,3.1-2.03,5.81-4.61,8-7.61,1.55-2.32,2.36-6.51,5.2-7.56,2.84-1.05,5.39,1.49,6.89,3.52,2.36,3.2,3.37,7.19,2.79,11.12-1.27,8.02-7.86,14.13-15.95,14.79h0ZM165.07,199.98c-5.51,13.52-17.06,23.68-31.16,27.45-14.74,2.81-29.81-2.76-39.21-14.45-5.24-5.32-8.45-12.31-9.1-19.75-.11-7.92.55-15.85,1.98-23.65,0-.73,0-2.02.63-2.41.63-.24,1.3-.41,1.98-.48,1.66-.41,3.27-.97,4.82-1.69,2.53-1.2,4.85-2.83,6.84-4.82,4.63-4.66,7.54-10.76,8.24-17.29.08-1.14.08-2.28,0-3.41-.04-.5-.04-.99,0-1.49.69-.21,1.4-.34,2.12-.39l6.79-.92c3.88-.51,7.8-.6,11.71-.24,4.43.43,8.82,1.01,13.2,1.82.39,0,1.11,0,1.49.29s.73.48.77,1.73c.04,1.17.19,2.32.43,3.47.46,2.35,1.23,4.63,2.26,6.79-9.12.42-16.82,6.89-18.83,15.81-2.22,9.5.49,19.48,7.22,26.54-4.23-2.05-8.97-2.83-13.63-2.21-3.03.12-6.01.84-8.76,2.12-2.98,1.64-2.26,4.82-.67,7.12.76,1.18,1.7,2.24,2.79,3.14,1.42.95,3.12,1.41,4.82,1.3h2.32c.24,0,0,.57,0,.77.12,1.17.12,2.34,0,3.52.1,1.18.1,2.39,0,3.57v.73c0,.19-2.02.63-2.55.73-2.81.69-5.76.14-8.14-1.49-.95-.89-1.78-1.92-2.45-3.03-.41-.81-1.4-1.14-2.21-.73-.81.41-1.14,1.4-.73,2.21.16.46.39.91.67,1.3,1.49,2.26,3.72,3.98,6.31,4.82,1.65.51,3.39.7,5.1.53,1.05-.07,2.07-.22,3.08-.48.7-.25,1.4-.46,2.12-.63.73-.13,1.49-.04,2.17.24,5.93,2.45,12.77.31,16.24-5.1,1.16-2.21-1.25-4.04-2.79-1.73-.71,1.23-1.68,2.28-2.84,3.08-1.31.81-2.83,1.26-4.39,1.3-.85.08-1.7.08-2.55,0-.57,0-3.37-.43-3.71-.96s0-1.88,0-2.41v-4.43c0-1.55,0-1.59,1.59-1.73,1.88.15,3.78-.13,5.54-.82,2.45-1.49,5.98-6.16,4.57-9.15,7.42,7.11,18.92,7.78,27.12,1.55-.29,1.34-.67,2.68-1.19,3.98v.03h0ZM158.91,194.49c-8.23,2.45-17.04-1.18-21.15-8.72-4.29-6.51-4.96-14.75-1.78-21.86,3.44-7.19,11.93-10.4,19.26-7.28,7.24,3.31,12.26,10.12,13.29,18.02,1.69,8.03-2.26,16.19-9.63,19.84h0ZM172.21,156.3c-6.75-.34-12.66-4.62-15.08-10.94-2.45-6.02-1.3-15.03,5.2-18.2,2.64-1.35,4.82,0,5.98,2.51,1.39,3.12,3.31,5.97,5.69,8.43,2.91,2.52,5.97,4.87,9.15,7.03,2.02,1.59,6.07,4.82,4.82,7.9-.96,2.02-4.82,2.55-6.59,2.89-2.99.52-6.03.65-9.06.39h-.11ZM249.27,205.8c-.92,14.45-14.88,20.71-27.55,22.25-11.08,1.35-24.81-.63-33.14-8.57-10.69-10.21-6.55-29.34,2.75-39.1,8.05-7.67,19.24-11.09,30.2-9.19,7.93.91,15.23,4.77,20.42,10.84,5.35,6.75,8.06,15.2,7.66,23.79h-.35,0Z"/><ellipse class="cls-5" cx="144.6" cy="174.89" rx="4.19" ry="4.96"/><ellipse class="cls-5" cx="106.41" cy="174.89" rx="4.19" ry="4.96"/><path class="cls-3" d="M143.87,13.94h-23.08c-3.84,0-6.94,3.11-6.94,6.94v76.77c0,4.23,3.42,7.65,7.65,7.65h0c4.22-.03,7.63-3.44,7.65-7.65v-27.99h2.3c-.03.28-.03.56,0,.84l10.79,30.16c1.05,2.7,3.66,4.45,6.54,4.42h2.34c3.84,0,6.95-3.1,6.96-6.93,0-.8-.14-1.6-.41-2.35l-9.64-26.88c7.02-1.94,11.88-8.33,11.9-15.61v-23.18c0-8.89-7.17-16.12-16.06-16.19h0ZM129.15,52.63v-21.49c0-1.28,1.02-2.32,2.3-2.34h8.85c3.84,0,6.94,3.11,6.94,6.94v12.3c-.07,3.78-3.16,6.81-6.94,6.81h-8.85c-1.23-.03-2.23-.99-2.3-2.21Z"/><path class="cls-3" d="M208.39,13.94h-1.33c-3.84,0-6.94,3.11-6.94,6.94v64.47c.12,2.44-1.75,4.52-4.2,4.64-.08,0-.15,0-.22,0h-6.33c-2.45,0-4.42-1.97-4.42-4.42V20.88c0-3.84-3.11-6.94-6.94-6.94h-1.46c-3.84,0-6.94,3.11-6.94,6.94v70.49c0,7.67,6.21,13.9,13.89,13.93h17.96c7.66,0,13.89-6.21,13.89-13.89V20.88c0-3.83-3.12-6.94-6.96-6.94h0Z"/><path class="cls-3" d="M255.4,13.94h-22.6c-3.84,0-6.94,3.11-6.94,6.94v77.44c0,3.85,3.1,6.96,6.94,6.99h22.6c8.95-.03,16.2-7.28,16.23-16.23V30.12c-.03-8.94-7.28-16.19-16.23-16.19ZM256.33,83.01c.12,3.85-2.9,7.09-6.77,7.21h-6.07c-1.3,0-2.34-1.05-2.34-2.34V31.53c0-1.27,1.03-2.3,2.3-2.3h5.88c3.84-.03,6.97,3.07,6.99,6.9v46.88h0Z"/><path class="cls-3" d="M379.8,13.94h-1.42c-3.84,0-6.94,3.11-6.94,6.94h0v46.17l-18-48.64c-1.06-2.69-3.66-4.44-6.54-4.42h-4.68c-3.8.03-6.88,3.1-6.9,6.9v77.44c-.03,3.84,3.07,6.96,6.9,6.99h1.46c3.84,0,6.94-3.11,6.94-6.94v-46.35l18.09,48.64c1.04,2.69,3.62,4.45,6.5,4.42h4.64c3.84,0,6.94-3.11,6.94-6.94V20.88c0-3.84-3.11-6.94-6.94-6.94h-.04,0Z"/><path class="cls-3" d="M319.34,13.94h-29.85c-3.84,0-6.94,3.11-6.94,6.94v77.44c0,3.85,3.1,6.96,6.94,6.99h29.85c3.85.07,7.04-3,7.12-6.85v-1.5c-.12-3.82-3.3-6.82-7.12-6.72h-19.15c-1.3,0-2.34-1.05-2.34-2.34v-19.02c0-1.3,1.05-2.34,2.34-2.34h11.85c3.84,0,6.94-3.11,6.94-6.94v-1.42c0-3.84-3.11-6.94-6.94-6.94h-11.85c-1.27.03-2.32-.99-2.34-2.26v-17.43c0-1.27,1.03-2.3,2.3-2.3h19.19c3.85.07,7.04-3,7.12-6.85v-1.51c0-3.84-3.1-6.95-6.94-6.95h-.18Z"/><path class="cls-3" d="M435.12,13.94h-34.19c-3.84,0-6.94,3.11-6.94,6.94h0v1.42c.03,3.83,3.12,6.92,6.94,6.94h9.55v69.08c-.03,3.84,3.07,6.96,6.9,6.99h1.46c3.85-.03,6.94-3.15,6.94-6.99V29.24h9.42c3.84,0,6.94-3.11,6.94-6.94h0v-1.43c0-3.84-3.11-6.94-6.94-6.95h-.08Z"/><path class="cls-3" d="M87.88,13.94h-23.08c-3.84,0-6.94,3.11-6.94,6.94v76.77c0,4.23,3.42,7.65,7.65,7.65h.04c4.22-.03,7.63-3.44,7.65-7.65v-27.99h14.73c8.94,0,16.2-7.24,16.23-16.19v-23.35c-.03-8.96-7.31-16.21-16.27-16.19h0ZM91.16,47.98c-.07,3.79-3.15,6.84-6.94,6.85h-8.85c-1.27,0-2.3-1.03-2.3-2.3v-21.4c-.03-1.27.99-2.32,2.26-2.34h8.89c3.85.03,6.94,3.15,6.94,6.99v12.19h0Z"/><path class="cls-3" d="M313.47,136.16h-23.08c-3.84,0-6.94,3.11-6.94,6.94v76.77c0,4.23,3.42,7.65,7.65,7.65h.04c4.22-.03,7.63-3.44,7.65-7.65v-27.99h14.73c8.94,0,16.2-7.24,16.23-16.19v-23.35c-.03-8.96-7.31-16.21-16.27-16.19h0ZM316.75,170.21c-.07,3.79-3.15,6.84-6.94,6.85h-8.85c-1.27,0-2.3-1.03-2.3-2.3v-21.4c-.03-1.27.99-2.32,2.26-2.34h8.89c3.85.03,6.94,3.15,6.94,6.99v12.19h0Z"/><path class="cls-3" d="M378.53,136.96h-29.85c-3.84,0-6.94,3.11-6.94,6.94v77.44c0,3.85,3.1,6.96,6.94,6.99h29.85c3.85.07,7.04-3,7.12-6.85v-1.5c-.12-3.82-3.3-6.82-7.12-6.72h-19.15c-1.3,0-2.34-1.05-2.34-2.34v-19.02c0-1.3,1.05-2.34,2.34-2.34h11.85c3.84,0,6.94-3.11,6.94-6.94v-1.42c0-3.84-3.11-6.94-6.94-6.94h-11.85c-1.27.03-2.32-.99-2.34-2.26v-17.43c0-1.27,1.03-2.3,2.3-2.3h19.19c3.85.07,7.04-3,7.12-6.85v-1.51c0-3.84-3.1-6.95-6.94-6.95h-.18Z"/><path class="cls-3" d="M435.12,136.27h-34.19c-3.84,0-6.94,3.11-6.94,6.94h0v1.42c.03,3.83,3.12,6.92,6.94,6.94h9.55v69.08c-.03,3.84,3.07,6.96,6.9,6.99h1.46c3.85-.03,6.94-3.15,6.94-6.99v-69.07h9.42c3.84,0,6.94-3.11,6.94-6.94h0v-1.43c0-3.84-3.11-6.94-6.94-6.95h-.08Z"/><rect class="cls-1" width="500" height="500"/></g></svg>