<?xml version="1.0" encoding="UTF-8"?>
<svg id="Layer_1" xmlns="http://www.w3.org/2000/svg" version="1.1" viewBox="0 0 400 150">
  <!-- Generator: Adobe Illustrator 30.0.0, SVG Export Plug-In . SVG Version: 2.1.1 Build 123)  -->
  <defs>
    <style>
      .st0 {
        fill: #b6a999;
      }

      .st1 {
        fill: #f2dab2;
      }

      .st2 {
        fill: #564138;
      }

      .st3 {
        fill: #fff;
      }

      .st4 {
        fill: #574138;
      }

      .st5 {
        fill: #cfd2d3;
      }
    </style>
  </defs>
  <g id="Layer_2-2">
    <path class="st3" d="M131.4,98.8c-.4.8-1.1,1.5-2,1.9-.5.2-.9.3-1.4.3h-3.4v5.5h-1.3v-14.4h4.7c.5,0,1,0,1.4.3.4.2.8.4,1.2.8.3.3.6.7.8,1.1.2.4.3.9.3,1.4v1.7c0,.5,0,1-.3,1.5h0ZM130.3,95.6c0-.3,0-.6-.2-.9-.1-.3-.3-.5-.5-.7-.2-.2-.5-.4-.8-.5-.3-.1-.6-.2-.9-.2h-3.3v6.4h3.3c.3,0,.6,0,.9-.2.3-.1.5-.3.8-.5s.4-.5.5-.7c.1-.3.2-.6.2-.9v-1.8h0Z"/>
    <path class="st3" d="M143.8,106.5v-14.4h8.4v1.2h-7.1v5.4h5.7v1.2h-5.7v5.4h7.1v1.2h-8.4Z"/>
    <path class="st3" d="M168,93.3v13.2h-1.3v-13.2h-3.5v-1.2h8.5v1.2h-3.6Z"/>
    <path class="st3" d="M197.7,106.5v-14.4h1.4v14.4h-1.4Z"/>
    <path class="st3" d="M219.7,106.5l-6.2-10.4v-.6c-.1,0-.1,11.1-.1,11.1h-1.3v-14.5h.7l6.2,10.5v.6c.1,0,.1-11.1.1-11.1h1.4v14.4h-.8Z"/>
    <path class="st3" d="M241.7,103.1c0,.5-.1.9-.3,1.4-.2.4-.5.8-.8,1.1-.3.3-.8.6-1.2.8-.5.2-.9.3-1.4.3h-1.1c-.5,0-1,0-1.4-.3-.4-.2-.9-.4-1.2-.8-.3-.3-.6-.7-.8-1.1-.2-.4-.3-.9-.3-1.4v-.6l1.3-.2v.8c0,.3,0,.6.2.9.1.3.3.5.6.7.2.2.5.4.8.5.3.1.6.2.9.2h.9c.3,0,.6,0,.9-.2.3-.1.6-.3.8-.5.2-.2.4-.5.6-.7.1-.3.2-.6.2-.9v-.4c0-.4,0-.9-.3-1.2-.2-.3-.5-.6-.8-.8-.4-.2-.7-.4-1.1-.6l-1.3-.5c-.4-.2-.9-.3-1.3-.6-.4-.2-.8-.4-1.1-.7-.4-.3-.6-.7-.8-1.1-.2-.5-.3-1-.3-1.6v-.3c0-.5,0-.9.3-1.4.2-.4.4-.8.8-1.1.3-.3.7-.6,1.2-.8.5-.2.9-.3,1.4-.3h1c.5,0,1,0,1.4.3.4.2.8.4,1.2.8s.6.7.8,1.1c.2.4.3.9.3,1.4v.4l-1.4.2v-.6c0-.3,0-.6-.2-.9-.1-.3-.3-.5-.5-.7-.2-.2-.5-.4-.8-.5-.3-.1-.6-.2-.9-.2h-.8c-.3,0-.6,0-.9.2-.3.1-.5.3-.8.5-.2.2-.4.5-.5.7-.1.3-.2.6-.2.9v.3c0,.4,0,.8.3,1.2.2.3.5.6.8.8.4.2.7.4,1.1.6l1.3.5c.4.2.9.3,1.3.6.4.2.8.5,1.1.8.3.3.6.7.8,1.1.2.5.3,1,.3,1.6v.4h0,0Z"/>
    <path class="st3" d="M262,104.5c-.4.8-1.1,1.5-2,1.9-.5.2-.9.3-1.4.3h-1.1c-.5,0-1,0-1.4-.3-.4-.2-.8-.4-1.2-.8s-.6-.7-.8-1.1c-.2-.4-.3-.9-.3-1.4v-11.1h1.4v11.1c0,.3,0,.6.2.9.1.3.3.5.5.7s.5.4.8.5c.3.1.6.2.9.2h.9c.3,0,.6,0,.9-.2.3-.1.5-.3.8-.5.2-.2.4-.5.5-.7.1-.3.2-.6.2-.9v-11.1h1.3v11.1c0,.5,0,1-.3,1.4h0Z"/>
    <path class="st3" d="M282.2,106.5l-4.1-6.2h-1.8v6.2h-1.4v-14.4h4.7c1,0,1.9.4,2.6,1,.3.3.6.7.8,1.1.2.4.3.9.3,1.4v1.2c0,.5,0,.9-.3,1.4-.2.4-.5.8-.8,1.1s-.7.6-1.2.8c-.5.2-.9.3-1.4.3l4,6.2h-1.5ZM282,95.6c0-.3,0-.6-.2-.9-.1-.3-.3-.5-.5-.7-.5-.4-1.1-.7-1.8-.7h-3.3v5.8h3.5c.3,0,.6,0,.9-.2.3-.1.5-.3.8-.5s.4-.5.5-.7c.1-.3.2-.6.2-.9v-1.2h0s0,0,0,0Z"/>
    <path class="st3" d="M301.5,103.1h-4.7l-1,3.4h-1.4l4.4-14.4h.7l4.4,14.4h-1.3l-1.1-3.4h0ZM297.1,101.9h4l-2-6.7v-.5.5l-2,6.7h0Z"/>
    <path class="st3" d="M323,106.5l-6.2-10.4v-.6c-.1,0-.1,11.1-.1,11.1h-1.3v-14.5h.7l6.2,10.5v.6c.1,0,.1-11.1.1-11.1h1.3v14.4h-.7Z"/>
    <path class="st3" d="M344.7,104.5c-.4.8-1.1,1.5-2,1.9-.5.2-.9.3-1.4.3h-1.1c-.5,0-1,0-1.4-.3-.4-.2-.8-.4-1.2-.8-.3-.3-.6-.7-.8-1.1-.2-.4-.3-.9-.3-1.4v-7.8c0-.5.1-.9.3-1.4.2-.4.4-.8.8-1.1.3-.3.7-.6,1.2-.8.5-.2.9-.3,1.4-.3h1.1c.5,0,1,0,1.4.3.4.2.8.4,1.2.8.3.3.6.7.8,1.1.2.4.3.9.3,1.4v.7l-1.3.2v-.8c0-.3,0-.6-.2-.9-.2-.6-.7-1-1.3-1.2-.3-.1-.6-.2-.9-.2h-.9c-.3,0-.6,0-.9.2-.3.1-.5.3-.8.5-.5.4-.8,1.1-.7,1.7v7.8c0,.3,0,.6.2.9.1.3.3.5.5.7.2.2.5.4.8.5.3.1.6.2.9.2h.9c.3,0,.6,0,.9-.2.3-.1.5-.3.8-.5.2-.2.4-.5.5-.7.1-.3.2-.6.2-.9v-.8l1.3.2v.6c0,.4-.1.9-.3,1.3h0Z"/>
    <path class="st3" d="M357.5,106.5v-14.4h8.5v1.2h-7v5.4h5.7v1.2h-5.7v5.4h7v1.2s-8.5,0-8.5,0Z"/>
    <rect class="st3" x="123.2" y="86.2" width="242.8" height=".9"/>
    <path class="st3" d="M157.2,44.6h-9.3c-1.5,0-2.8,1.2-2.8,2.7v29.7c0,1.6,1.4,3,3.1,3h0c1.7,0,3.1-1.3,3.1-3v-10.8h.9c0,.1,0,.2,0,.3l4.3,11.7c.4,1,1.5,1.7,2.6,1.7h.9c1.5,0,2.8-1.2,2.8-2.7s0-.6-.2-.9l-3.9-10.4c2.8-.8,4.8-3.2,4.8-6v-9c0-3.4-2.9-6.2-6.4-6.3h0ZM151.3,59.5v-8.3c0-.5.4-.9.9-.9h3.6c1.5,0,2.8,1.2,2.8,2.7v4.8c0,1.5-1.3,2.6-2.8,2.6h-3.6c-.5,0-.9-.4-.9-.9Z"/>
    <path class="st3" d="M183.1,44.6h-.5c-1.5,0-2.8,1.2-2.8,2.7v25c0,.9-.7,1.8-1.7,1.8h-2.6c-1,0-1.8-.8-1.8-1.7v-25c0-1.5-1.2-2.7-2.8-2.7h-.6c-1.5,0-2.8,1.2-2.8,2.7v27.3c0,3,2.5,5.4,5.6,5.4h7.2c3.1,0,5.6-2.4,5.6-5.4v-27.3c0-1.5-1.2-2.7-2.8-2.7h0Z"/>
    <path class="st3" d="M202,44.6h-9.1c-1.5,0-2.8,1.2-2.8,2.7v30c0,1.5,1.2,2.7,2.8,2.7h9.1c3.6,0,6.5-2.8,6.5-6.3v-22.8c0-3.5-2.9-6.3-6.5-6.3h0ZM202.3,71.3c0,1.5-1.2,2.7-2.7,2.8h-2.4c-.5,0-.9-.4-.9-.9v-21.8c0-.5.4-.9.9-.9h2.4c1.5,0,2.8,1.2,2.8,2.7v18.2h0Z"/>
    <path class="st3" d="M251.9,44.6h-.6c-1.5,0-2.8,1.2-2.8,2.7h0v17.9l-7.2-18.8c-.4-1-1.5-1.7-2.6-1.7h-1.9c-1.5,0-2.8,1.2-2.8,2.7v30c0,1.5,1.2,2.7,2.8,2.7h.6c1.5,0,2.8-1.2,2.8-2.7v-18l7.2,18.8c.4,1,1.4,1.7,2.6,1.7h1.9c1.5,0,2.8-1.2,2.8-2.7v-29.9c0-1.5-1.2-2.7-2.8-2.7h0,0Z"/>
    <path class="st3" d="M227.6,44.6h-12c-1.5,0-2.8,1.2-2.8,2.7v30c0,1.5,1.2,2.7,2.8,2.7h12c1.6,0,2.8-1.2,2.9-2.7v-.6c0-1.5-1.3-2.6-2.9-2.6h-7.7c-.5,0-.9-.4-.9-.9v-7.4c0-.5.4-.9.9-.9h4.8c1.5,0,2.8-1.2,2.8-2.7v-.5c0-1.5-1.2-2.7-2.8-2.7h-4.8c-.5,0-.9-.4-.9-.9v-6.8c0-.5.4-.9.9-.9h7.7c1.6,0,2.8-1.2,2.9-2.7v-.6c0-1.5-1.2-2.7-2.8-2.7h0Z"/>
    <path class="st3" d="M274,44.6h-13.7c-1.5,0-2.8,1.2-2.8,2.7h0v.5c0,1.5,1.2,2.7,2.8,2.7h3.8v26.7c0,1.5,1.2,2.7,2.8,2.7h.6c1.5,0,2.8-1.2,2.8-2.7v-26.7h3.8c1.5,0,2.8-1.2,2.8-2.7h0v-.5c0-1.5-1.2-2.7-2.8-2.7h0Z"/>
    <path class="st3" d="M134.8,44.6h-9.3c-1.5,0-2.8,1.2-2.8,2.7v29.7c0,1.6,1.4,3,3.1,3h0c1.7,0,3.1-1.3,3.1-3v-10.8h5.9c3.6,0,6.5-2.8,6.5-6.3v-9c0-3.5-2.9-6.3-6.5-6.3h0ZM136.1,57.8c0,1.5-1.3,2.7-2.8,2.7h-3.6c-.5,0-.9-.4-.9-.9v-8.3c0-.5.4-.9.9-.9h3.6c1.5,0,2.8,1.2,2.8,2.7v4.7h0Z"/>
    <path class="st3" d="M306.3,43.3h-10.9c-1.8,0-3.3,1.2-3.3,2.8v30.6c0,1.7,1.6,3.1,3.6,3.1h0c2,0,3.6-1.4,3.6-3.1v-11.2h7c4.2,0,7.7-2.9,7.7-6.5v-9.3c0-3.6-3.5-6.5-7.7-6.5h0ZM307.9,56.9c0,1.5-1.5,2.7-3.3,2.7h-4.2c-.6,0-1.1-.4-1.1-.9v-8.5c0-.5.5-.9,1.1-.9h4.2c1.8,0,3.3,1.2,3.3,2.8v4.9h0Z"/>
    <path class="st3" d="M337.1,43.6h-14.1c-1.8,0-3.3,1.2-3.3,2.8v30.8c0,1.5,1.5,2.8,3.3,2.8h14.1c1.8,0,3.3-1.2,3.4-2.7v-.6c0-1.5-1.6-2.7-3.4-2.7h-9.1c-.6,0-1.1-.4-1.1-.9v-7.6c0-.5.5-.9,1.1-.9h5.6c1.8,0,3.3-1.2,3.3-2.8v-.6c0-1.5-1.5-2.8-3.3-2.8h-5.6c-.6,0-1.1-.4-1.1-.9v-6.9c0-.5.5-.9,1.1-.9h9.1c1.8,0,3.3-1.2,3.4-2.7v-.6c0-1.5-1.5-2.8-3.3-2.8h0,0Z"/>
    <path class="st3" d="M364,43.3h-16.2c-1.8,0-3.3,1.2-3.3,2.8h0v.6c0,1.5,1.5,2.8,3.3,2.8h4.5v27.5c0,1.5,1.5,2.8,3.3,2.8h.7c1.8,0,3.3-1.2,3.3-2.8v-27.5h4.5c1.8,0,3.3-1.2,3.3-2.8h0v-.6c0-1.5-1.5-2.8-3.3-2.8h0,0Z"/>
  </g>
  <g>
    <g>
      <path class="st4" d="M109.6,82h0c0-.7-.2-1.3-.4-1.9,0-.3-.2-.7-.3-1-.2-.3-.3-.7-.3-1,.1-.6.3-1.2.6-1.8.2-.7.3-1.5.4-2.2.2-2.6-.3-5.1-1.3-7.4-.8-1.9-1.9-3.6-4.2-3.9-1.6,0-3.1.7-4.1,1.9l-2.8,3.1c-.5.6-.5.4-1.3.3-1.3-.1-2.6-.1-3.9,0h-1.2c-.2.1-.7.3-.9.3-.2,0-.2-.2-.2-.3l-1.3-1.6c-.4-.5-.9-.9-1.3-1.4-.4-.5-.2-1.3-.4-2-.7-1.9-2.1-3.5-3.9-4.6-.9-.6-1.8-1.3-2.6-2-.5-.6-.9-1.3-1.2-2.1-.9-1.9-2.9-3.1-5.1-3-2.5.4-4.6,2-5.6,4.3-.2.3-.2.3-.6.2l-.7-.2-1.7-.3c-1.3-.2-2.7-.4-4-.5-2.6-.1-5.2,0-7.8.6-.2,0-.5.1-.8.2-.2,0-.4-.5-.6-.7-.4-.6-.9-1.2-1.4-1.6-.9-.8-2-1.3-3.2-1.5-2.2-.3-4.4.9-5.4,2.9-.3.7-.7,1.4-1.2,2.1-.8.8-1.6,1.5-2.6,2-1.8,1-3.1,2.6-3.9,4.5-.8,2.7.7,5.5,3.4,6.3.1,0,.2,0,.3,0,1.1.3,2.3.5,3.5.6-.4,2.4-.7,4.8-.8,7.2-.2,2,0,4,.5,5.9,2.7,6.8,8.7,11.7,15.8,13.1,4.1.6,8.3-.3,11.8-2.5,3.5-2.2,6.4-5.2,8.2-8.9.7,7.5,7.7,11,14.4,11.6,5.1.6,10.1-.8,14.2-4,3.1-2.8,4.5-6.9,3.8-10.9h0Z"/>
      <path class="st0" d="M74,51.4c2.1,0,3.9,1.2,4.8,3,.3.7.7,1.4,1.2,2.1.8.8,1.7,1.5,2.6,2,1.8,1.1,3.1,2.7,3.9,4.6.2.7,0,1.5.4,2,.4.5.9.9,1.3,1.4l1.3,1.6c0,0,0,.2.2.3,0,0,0,0,0,0,.2,0,.7-.2.8-.2h1.2c.7-.2,1.3-.2,2-.2s1.3,0,2,0c.3,0,.5,0,.7,0,.2,0,.3,0,.7-.4l2.8-3.1c.9-1.2,2.4-2,3.9-2h.1c2.3.2,3.4,1.9,4.2,3.9,1,2.3,1.5,4.9,1.3,7.4,0,.7-.2,1.5-.4,2.2-.2.6-.4,1.2-.6,1.8,0,.3.2.7.3,1,.1.3.3.7.3,1,.2.7.4,1.3.4,1.9h0c.7,4.1-.7,8.2-3.8,10.9-3.4,2.7-7.6,4.1-11.9,4.1s-1.5,0-2.2-.1c-6.7-.6-13.8-4.1-14.4-11.6-1.9,3.7-4.7,6.8-8.2,8.9-2.8,1.7-6,2.6-9.3,2.6s-1.7,0-2.5-.2c-7.2-1.4-13.1-6.3-15.8-13.1-.5-1.9-.7-3.9-.5-5.9,0-2.4.4-4.8.8-7.2-1.2,0-2.3-.2-3.5-.6-.1,0-.2,0-.3,0-2.7-.8-4.2-3.7-3.4-6.3.8-1.9,2.1-3.5,3.9-4.5,1-.6,1.8-1.3,2.6-2,.5-.7.9-1.3,1.2-2.1.9-1.8,2.7-2.9,4.7-2.9s.5,0,.7,0c1.2.2,2.3.7,3.2,1.5.5.5,1,1,1.4,1.6.2.2.3.7.6.7s.5,0,.8-.2c2-.4,4.1-.6,6.2-.6s1.1,0,1.6,0c1.3.1,2.7.3,4,.5l1.7.3.7.2c.1,0,.2,0,.3,0,.1,0,.2,0,.3-.3,1-2.3,3.1-3.9,5.6-4.3h.2M74,49.9h-.4c-2.7.4-5,2-6.3,4.4h0l-1.7-.3c-1.5-.2-2.8-.4-4.2-.5h0c-.6,0-1.1,0-1.7,0-2.2,0-4.3.2-6.4.6-.5-.7-1-1.3-1.6-1.8-1.1-1-2.5-1.7-3.9-1.9-.3,0-.6,0-.9,0-2.6,0-4.9,1.4-6,3.7h0c-.3.7-.6,1.2-1,1.8-.7.7-1.4,1.3-2.2,1.7-2,1.2-3.6,3.1-4.5,5.2h0c0,0,0,.1,0,.1-1,3.5,1,7.2,4.4,8.2.1,0,.2,0,.4,0,.7.2,1.4.4,2.1.5-.3,1.9-.5,3.9-.5,5.8-.2,2.2,0,4.3.6,6.4h0c0,0,0,.2,0,.2,2.9,7.3,9.2,12.5,16.9,14h0c.9.1,1.8.2,2.7.2,3.6,0,7-1,10.1-2.9,2.7-1.6,5-3.8,6.8-6.3,2.4,6,9.2,8.8,14.9,9.2.8,0,1.6.1,2.4.1,4.6,0,9.2-1.6,12.8-4.4h0s0,0,0,0c3.4-3.1,5-7.6,4.3-12.1,0-.7-.2-1.2-.3-1.8,0,0,0-.2,0-.3,0-.4-.2-.8-.3-1,0,0,0-.2,0-.2h0c0,0,0-.2,0-.2,0-.1-.1-.2-.1-.4,0-.4.2-.8.4-1.2h0c0-.1,0-.2,0-.2.2-.8.3-1.6.4-2.4h0c.2-2.8-.3-5.6-1.4-8.2-.8-1.9-2.2-4.4-5.4-4.8h-.3c-2,0-3.9.9-5.1,2.5l-2.6,2.9s0,0-.1,0h0c-.7,0-1.4,0-2.1,0s-1.4,0-2.1,0h-1.2c0,.1-.1.1-.2.1l-1-1.2h0s0,0,0,0c-.2-.2-.4-.4-.6-.6s-.4-.4-.6-.7c0,0,0-.3,0-.4,0-.3,0-.7-.2-1.1h0c0,0,0-.1,0-.1-.8-2.2-2.4-4.1-4.5-5.3-.8-.5-1.6-1.1-2.3-1.8-.4-.5-.7-1.1-.9-1.6h0s0,0,0,0c-1.2-2.3-3.6-3.8-6.2-3.8h0Z"/>
    </g>
    <g>
      <path class="st5" d="M81.1,72.1c0,.4,0,.9,0,1.3,1.4-1.6,3.1-2.9,5-3.9l-1.1-1.2c-1,.7-2.1,1.1-3.3,1.3-.3.8-.5,1.6-.6,2.4Z"/>
      <path class="st5" d="M106,83.5c-.2-2.8-1.1-5.4-2.8-7.6-1.8-2.1-4.3-3.5-7.1-4-3.9-.8-8,.2-11.1,2.7-3.8,3.3-5.9,10.6-2.2,14.8,2.8,3.2,7.9,4.1,12,3.8,2.8-.2,5.5-1,7.8-2.6,2.3-1.6,3.5-4.3,3.3-7.1h0Z"/>
      <path class="st5" d="M103.2,66.7l-2.5,2.7c2,.9,3.8,2.2,5.2,3.9,0-.5,0-1,0-1.5,0-.4,0-.7-.2-1.1,0-.4-.2-.7-.3-1.1-.3-1-.7-1.9-1.1-2.8,0,0,0,0,0-.1h-.3c0,0-.1,0-.2,0h0c-.2,0-.3,0-.5,0h0Z"/>
      <path class="st1" d="M63.9,79.9c-2.5-2.7-3.5-6.4-2.7-9.9.7-3.3,3.6-5.8,7-5.9-.3-.7-.6-1.4-.8-2.1,0-.4-.2-.8-.2-1.2,0-.2,0-.4,0-.6,0-.5.1-.5-.3-.7-.7-.2-1.5-.3-2.2-.4l-2.3-.3c-1.4-.2-2.8-.2-4.2-.1l-2,.2-1.2.2c-.4,0-.8,0-1.2.2-.2.2,0,.7,0,1,0,.4,0,.8,0,1.1,0,.8-.3,1.5-.6,2.2-.4,1.1-.9,2.1-1.6,3-1.4,1.8-3.4,3-5.5,3.5-.5.1-.4.1-.5.6l-.2,1.1c-.1.8-.2,1.5-.3,2.3-.2,1.5-.3,3.1-.3,4.6-.2,1.3-.1,2.6.2,3.9.5,1.3,1.2,2.6,2.1,3.7,3.4,4.4,8.8,7.6,14.5,6.7,3-.6,5.7-1.9,7.9-4,2.5-2,4.3-4.8,5-7.9-3.4,2.8-7.8,1.7-10.7-1.2h0Z"/>
      <path class="st1" d="M44,66.7c2.6-.2,4.8-1.9,5.6-4.4.5-1.4.5-3-.2-4.4-.5-1-1.4-2.3-2.7-2.3-1.2,0-1.5,1.2-1.9,2-.6,1.2-1.5,2.2-2.5,3-1.1.9-2.4,1.6-3.4,2.6-.6.5-1.3,1.5-.9,2.3.4.8,1.8.9,2.5,1.1,1.1.2,2.2.2,3.4.1h0Z"/>
      <path class="st1" d="M71.1,61.4c.7,2.6,2.9,4.5,5.6,4.8,1.8.3,3.7,0,5.4-.6,2.8-1.3-1.8-4.2-2.8-4.9-1.1-.7-2-1.6-2.8-2.7-.6-.9-.9-2.5-2-2.8s-2.1.7-2.7,1.5c-1,1.3-1.3,3.1-.8,4.7h0Z"/>
      <path class="st0" d="M70.8,66.4c-.8-.3-1.6-.5-2.4-.5-.7,0-1.3.1-2,.4-3.2,1.3-4.6,5.5-3,9.5.8,2.1,2.3,3.7,4.3,4.6,1.3.6,2.9.7,4.3.2,3.2-1.3,4.6-5.6,3.1-9.5-.8-2-2.3-3.7-4.3-4.6h0Z"/>
      <path class="st2" d="M99.1,86.1c-.3-.1-.7,0-.8.3,0,0,0,0,0,0,0,0-1,2.3-4.5,1,0,0-.2,0-.3,0-.1,0-.2,0-.3,0-3.4,1.3-4.4-.8-4.5-1-.2-.3-.6-.4-.9-.2-.2.2-.4.4-.3.7.7,1.4,2.1,2.2,3.6,2.2.8,0,1.5-.1,2.2-.4.7.3,1.5.4,2.3.4,1.5,0,2.9-.8,3.6-2.2.2-.3.1-.7-.2-.9,0,0,0,0,0,0h0Z"/>
      <ellipse class="st2" cx="98.5" cy="80.7" rx="1.3" ry="1.6"/>
      <ellipse class="st2" cx="88.3" cy="80.7" rx="1.3" ry="1.6"/>
      <path class="st2" d="M93.1,87c0,.2.3.2.4,0,0,0,0,0,0,0l1.4-2.5c0,0,0-.2,0-.3,0,0-.2-.2-.3-.2h-2.8c-.1,0-.2,0-.3.2,0,0,0,.2,0,.3l1.4,2.5h0Z"/>
      <path class="st2" d="M109.6,82c0-.7-.2-1.3-.4-1.9,0-.3-.2-.7-.3-1-.2-.3-.3-.7-.3-1,.1-.6.3-1.2.6-1.8.2-.7.3-1.5.4-2.2.2-2.6-.3-5.1-1.3-7.4-.8-1.9-1.9-3.6-4.2-3.9-1.6,0-3.1.7-4.1,1.9l-2.8,3.1c-.5.6-.5.4-1.3.3-1.3-.1-2.6-.1-3.9,0h-1.2c-.2.1-.7.3-.9.3-.2,0-.2-.2-.2-.3l-1.3-1.6c-.4-.5-.9-.9-1.3-1.4-.4-.5-.2-1.3-.4-2-.7-1.9-2.1-3.5-3.9-4.6-.9-.6-1.8-1.3-2.6-2-.5-.6-.9-1.3-1.2-2-.9-1.9-2.9-3.1-5.1-3-2.5.4-4.6,2-5.6,4.3-.2.3-.2.3-.6.2l-.7-.2-1.7-.3c-1.3-.2-2.7-.4-4-.5-2.6-.1-5.2,0-7.8.6-.2,0-.5.1-.8.2-.2,0-.4-.5-.6-.7-.4-.6-.9-1.2-1.4-1.6-.9-.8-2-1.3-3.2-1.5-2.2-.3-4.4.9-5.4,2.9-.3.7-.7,1.4-1.2,2.1-.8.8-1.6,1.5-2.6,2-1.8,1-3.1,2.6-3.9,4.5-.8,2.7.7,5.5,3.4,6.3.1,0,.2,0,.3,0,1.1.3,2.3.5,3.5.6-.4,2.4-.7,4.8-.8,7.2-.2,2,0,4,.5,5.9,2.7,6.8,8.7,11.7,15.8,13.1,4.1.6,8.2-.3,11.7-2.5,3.5-2.2,6.4-5.2,8.2-8.9.7,7.5,7.7,11,14.4,11.6,5.1.6,10.1-.8,14.2-4,3.1-2.8,4.5-6.9,3.8-10.9h0ZM103.2,66.7c.8-.9,1.4,1,1.6,1.5.7,1.6,1.1,3.4,1,5.1-1.4-1.7-3.2-3-5.2-3.9l2.5-2.7h0ZM84.8,68.3l1.1,1.2c-1.9.9-3.6,2.2-5,3.9,0-.7,0-1.4.2-2.1,0-.3.1-.6.2-.8s0-.3.2-.5.1-.3.3-.3c.5-.2,1.1-.3,1.6-.5.5-.2.9-.5,1.4-.8h0ZM44,66.7c-1.9.3-3.8,0-5.5-.8-2.1-1.4,2-3.9,2.9-4.5,1.2-.8,2.2-1.7,3-2.8.6-.9.9-2.4,2-2.8s2,.6,2.6,1.3c.9,1.2,1.3,2.7,1,4.2-.5,3-2.9,5.3-6,5.5h0ZM74.3,82.6c-2.1,5.1-6.4,8.9-11.7,10.3-5.5,1.1-11.2-1-14.7-5.4-2-2-3.2-4.6-3.4-7.4,0-3,.2-5.9.7-8.8,0-.3,0-.8.2-.9.2,0,.5-.2.7-.2.6-.2,1.2-.4,1.8-.6,1-.4,1.8-1.1,2.6-1.8,1.7-1.7,2.8-4,3.1-6.5,0-.4,0-.8,0-1.3,0-.2,0-.4,0-.6.3,0,.5-.1.8-.2l2.5-.3c1.5-.2,2.9-.2,4.4,0,1.7.2,3.3.4,4.9.7.2,0,.4,0,.6.1s.3.2.3.7c0,.4,0,.9.2,1.3.2.9.5,1.7.8,2.5-3.4.2-6.3,2.6-7,5.9-.8,3.6.2,7.3,2.7,9.9-1.6-.8-3.4-1.1-5.1-.8-1.1,0-2.2.3-3.3.8-1.1.6-.8,1.8-.2,2.7.3.4.6.8,1,1.2.5.4,1.2.5,1.8.5h.9c0,0,0,.2,0,.3,0,.4,0,.9,0,1.3,0,.4,0,.9,0,1.3v.3c0,0-.8.2-1,.3-1,.3-2.2,0-3-.6-.4-.3-.7-.7-.9-1.1-.2-.3-.5-.4-.8-.3s-.4.5-.3.8c0,.2.2.3.2.5.6.8,1.4,1.5,2.4,1.8.6.2,1.3.3,1.9.2.4,0,.8,0,1.2-.2.3,0,.5-.2.8-.2.3,0,.6,0,.8,0,2.2.9,4.8.1,6.1-1.9.4-.8-.5-1.5-1-.7-.3.5-.6.8-1.1,1.2-.5.3-1.1.5-1.6.5-.3,0-.6,0-1,0-.2,0-1.3-.2-1.4-.4s0-.7,0-.9v-1.7c0-.6,0-.6.6-.7.7,0,1.4,0,2.1-.3.9-.6,2.2-2.3,1.7-3.4,2.8,2.7,7.1,2.9,10.2.6-.1.5-.2,1-.4,1.5h0ZM72,80.5c-3.1.9-6.4-.4-7.9-3.3-1.6-2.4-1.9-5.5-.7-8.2,1.3-2.7,4.5-3.9,7.2-2.7,2.7,1.2,4.6,3.8,5,6.7.6,3-.8,6.1-3.6,7.4h0ZM77,66.2c-2.5-.1-4.7-1.7-5.6-4.1-.9-2.2-.5-5.6,1.9-6.8,1-.5,1.8,0,2.2.9.5,1.2,1.2,2.2,2.1,3.2,1.1.9,2.2,1.8,3.4,2.6.8.6,2.3,1.8,1.8,3-.4.8-1.8.9-2.5,1.1-1.1.2-2.3.2-3.4.2h0,0ZM105.8,84.7c-.3,5.4-5.6,7.8-10.3,8.3-4.2.5-9.3-.2-12.4-3.2-4-3.8-2.4-11,1-14.6,3-2.9,7.2-4.2,11.3-3.4,3,.3,5.7,1.8,7.6,4.1,2,2.5,3,5.7,2.9,8.9h-.1Z"/>
      <ellipse class="st2" cx="66.7" cy="73.2" rx="1.6" ry="1.9"/>
      <ellipse class="st2" cx="52.4" cy="73.2" rx="1.6" ry="1.9"/>
    </g>
  </g>
  <g>
    <path class="st3" d="M364.2,75c-1.1,0-2.1.9-2.1,2.1s.9,2.1,2.1,2.1,2.1-.9,2.1-2.1-.9-2.1-2.1-2.1ZM364.2,78.8c-1,0-1.8-.8-1.8-1.8s.8-1.8,1.8-1.8,1.8.8,1.8,1.8-.8,1.8-1.8,1.8Z"/>
    <path class="st3" d="M365,76.3c-.2-.7-1-.5-1.5-.5h0v2.5h.5v-1h.3l.6,1h.5l-.7-1.1c.4-.2.5-.5.4-.9h0ZM364.4,76.9h-.1s-.3,0-.3,0v-.8c.3,0,.7,0,.7.4,0,.2,0,.2-.2.3h0Z"/>
  </g>
</svg>