<?xml version="1.0" encoding="UTF-8"?><svg id="Layer_2" xmlns="http://www.w3.org/2000/svg" viewBox="0 0 500 500"><defs><style>.cls-1{fill:none;}.cls-2{fill:#b6a999;}.cls-3{fill:#17bebb;}.cls-4{fill:#f2dab2;}.cls-5{fill:#564138;}.cls-6{fill:#ff3e37;}.cls-7{fill:#cfd2d3;}</style></defs><g id="Layer_2-2"><g id="Layer_1-2"><path class="cls-7" d="M172.46,277.89c-.09,1.34-.09,2.68,0,4.01,4.25-5.05,9.53-9.12,15.5-11.93l-3.46-3.79c-3.04,2.1-6.5,3.53-10.14,4.18-.86,2.44-1.49,4.97-1.9,7.53Z"/><path class="cls-7" d="M249.55,313.06c-.45-8.58-3.5-16.83-8.75-23.63-5.58-6.55-13.3-10.89-21.79-12.26-12.09-2.43-24.64.61-34.27,8.31-11.87,10.26-18.17,32.88-6.69,45.82,8.64,9.81,24.58,12.71,37.12,11.71,8.62-.49,16.95-3.22,24.19-7.92,7.04-5.03,10.91-13.4,10.19-22.02h0Z"/><path class="cls-7" d="M240.9,261.05l-7.74,8.47c6.15,2.73,11.62,6.81,16,11.93.11-1.54.11-3.08,0-4.63-.13-1.14-.32-2.28-.56-3.4,0-1.11-.56-2.23-.84-3.29-.9-2.98-2.08-5.87-3.51-8.64-.07-.15-.15-.28-.28-.39h-.95c-.21-.03-.41-.03-.61,0h0c-.49-.19-1.01-.21-1.51-.05h0Z"/><path class="cls-4" d="M119.4,302.02c-7.75-8.19-10.86-19.74-8.24-30.71,2.27-10.29,11.11-17.81,21.63-18.4-1-2.09-1.79-4.27-2.34-6.52-.29-1.18-.49-2.36-.61-3.57-.03-.6-.03-1.19,0-1.79,0-1.45.34-1.45-.89-2-2.27-.66-4.61-1.08-6.97-1.23l-7.02-.95c-4.27-.54-8.58-.68-12.87-.39l-6.24.73-3.63.5c-1.27-.03-2.54.19-3.74.61-.61.45,0,2.11,0,3.13.09,1.17.09,2.34,0,3.51-.29,2.33-.88,4.61-1.73,6.8-1.21,3.35-2.92,6.51-5.08,9.37-4.31,5.46-10.38,9.25-17.16,10.76-1.39.34-1.34.39-1.56,1.84l-.5,3.4c-.39,2.4-.66,4.74-.95,7.13-.6,4.69-.96,9.42-1.06,14.16-.56,4.05-.37,8.17.56,12.15,1.64,4.13,3.88,7.99,6.63,11.48,10.42,13.66,27.25,23.35,44.87,20.56,9.18-1.7,17.69-5.97,24.53-12.32,7.85-6.16,13.34-14.84,15.55-24.58-10.38,8.71-24.15,5.09-33.17-3.66h-.01Z"/><path class="cls-4" d="M57.75,261.22c7.99-.58,14.87-5.89,17.45-13.48,1.71-4.43,1.52-9.37-.5-13.66-1.45-2.95-4.45-7.24-8.19-7.19-3.74.05-4.57,3.79-5.9,6.3-1.94,3.56-4.57,6.69-7.74,9.19-3.45,2.79-7.36,4.96-10.53,7.97-1.73,1.68-4.18,4.63-2.84,7.19s5.58,2.9,7.86,3.29c3.42.58,6.93.71,10.4.39h-.01Z"/><path class="cls-4" d="M141.8,244.72c2.12,8.08,9.03,14,17.34,14.88,5.64.85,11.4.22,16.72-1.84,8.58-3.95-5.58-12.82-8.58-15.11-3.34-2.22-6.25-5.03-8.58-8.31-1.79-2.68-2.79-7.58-6.08-8.81-3.29-1.23-6.63,2.18-8.31,4.68-3.02,4.19-3.94,9.55-2.51,14.51Z"/><path class="cls-2" d="M140.75,260.22c-2.31-.98-4.79-1.51-7.3-1.56-2.08,0-4.15.39-6.08,1.17-10.03,4.01-14.21,17.11-9.42,29.25,2.41,6.35,7.21,11.49,13.37,14.32,4.19,1.88,8.95,2.05,13.27.45,10.03-4.01,14.21-17.16,9.42-29.32-2.4-6.31-7.16-11.45-13.27-14.31h.01Z"/><path class="cls-5" d="M228.2,321.3c-.93-.42-2.01-.02-2.44.89-.02.05-.04.11-.07.16,0,.28-3.13,7.24-13.82,3.13-.3-.13-.62-.22-.95-.28-.33.03-.65.13-.95.28-10.42,4.01-13.55-2.4-13.82-3.18-.53-.94-1.73-1.25-2.67-.72-.77.45-1.14,1.36-.9,2.22,2.07,4.25,6.43,6.91,11.15,6.8,2.35.02,4.68-.35,6.92-1.11,2.25.88,4.65,1.35,7.08,1.39,4.72.08,9.06-2.57,11.15-6.8.6-.89.36-2.1-.53-2.7-.07-.03-.11-.05-.15-.09h0Z"/><ellipse class="cls-5" cx="226.31" cy="304.47" rx="4.18" ry="4.96"/><ellipse class="cls-5" cx="194.92" cy="304.47" rx="4.18" ry="4.96"/><path class="cls-5" d="M209.81,323.93c.3.46.93.59,1.39.28.11-.08.21-.17.28-.28l4.4-7.63c.17-.29.17-.65,0-.95-.15-.32-.48-.51-.84-.5h-8.81c-.35,0-.69.19-.84.5-.17.29-.17.65,0,.95l4.41,7.63h0Z"/><path class="cls-5" d="M260.64,308.43c0-2-.66-4.01-1.11-6.02,0-1.06-.56-2.11-.89-3.18-.46-.98-.8-2-1-3.06.37-1.92.95-3.78,1.73-5.58.58-2.23.98-4.51,1.23-6.8.48-7.9-.94-15.78-4.13-23.02-2.45-5.97-6.02-11.15-13.1-11.93-4.9-.13-9.57,2.11-12.54,6.02l-8.53,9.42c-1.56,1.73-1.56,1.39-4.07,1.06-4.06-.36-8.15-.36-12.21,0l-3.68.39c-.61,0-2.29.66-2.79.45-.5-.22-.61-.66-.78-.89l-4.01-4.79c-1.29-1.45-2.9-2.84-4.07-4.4-1.17-1.56-.61-4.01-1.17-6.08-2.27-5.95-6.47-10.95-11.93-14.21-2.89-1.83-5.58-3.96-8.03-6.35-1.52-1.94-2.78-4.08-3.74-6.35-2.92-5.92-9.06-9.57-15.66-9.31-7.62,1.11-14.14,6.09-17.22,13.16-.56,1.06-.61,1-1.73.78l-2.29-.45-5.18-.89c-4.13-.61-8.24-1.11-12.43-1.45-8.1-.42-16.24.19-24.19,1.83-.78.28-1.61.44-2.45.45-.73,0-1.17-1.39-1.73-2.11-1.22-1.87-2.7-3.56-4.4-5.02-2.7-2.5-6.11-4.12-9.76-4.63-6.89-.9-13.6,2.65-16.72,8.87-1.01,2.28-2.27,4.44-3.74,6.47-2.37,2.45-5.05,4.59-7.97,6.35-5.4,3.25-9.63,8.16-12.03,13.98-2.49,8.34,2.24,17.13,10.59,19.64.33.1.66.19,1,.26,3.5,1.07,7.11,1.67,10.76,1.79-1.29,7.37-2.09,14.82-2.4,22.29-.51,6.11.05,12.25,1.68,18.17,8.3,20.98,26.73,36.28,48.88,40.58,12.63,1.79,25.5-.93,36.34-7.63,10.87-6.64,19.69-16.17,25.47-27.53,2,23.13,23.91,34.11,44.59,35.84,15.63,1.79,31.33-2.61,43.75-12.26,9.46-8.52,13.86-21.3,11.64-33.84l.02-.02ZM240.9,261.05c2.51-2.73,4.45,3.13,5.02,4.52,2.18,5.01,3.28,10.42,3.23,15.88-4.37-5.12-9.83-9.2-16-11.93l7.74-8.47h0ZM184.11,266.18l3.45,3.79c-5.97,2.81-11.25,6.88-15.5,11.93,0-2.23.22-4.45.66-6.63,0-.89.34-1.73.56-2.56s.28-1.06.45-1.56.34-1.06,1.06-.95c1.5-.78,3.45-.95,5.08-1.61,1.51-.63,2.93-1.44,4.25-2.41h0ZM57.75,261.22c-5.78.94-11.72.08-17-2.45-6.41-4.24,6.24-12.1,8.97-14.05,3.59-2.35,6.72-5.34,9.26-8.81,1.79-2.68,2.73-7.53,6.02-8.75,3.29-1.22,6.24,1.73,7.97,4.07,2.73,3.7,3.9,8.32,3.23,12.87-1.47,9.28-9.09,16.35-18.46,17.11h0ZM151.72,310.21c-6.38,15.65-19.74,27.4-36.06,31.77-17.06,3.25-34.5-3.19-45.37-16.72-6.06-6.16-9.78-14.25-10.53-22.85-.13-9.17.64-18.34,2.29-27.37,0-.84,0-2.34.73-2.79.73-.28,1.5-.47,2.29-.56,1.92-.47,3.78-1.12,5.58-1.95,2.93-1.39,5.61-3.28,7.92-5.58,5.36-5.39,8.72-12.45,9.53-20.01.09-1.32.09-2.64,0-3.95-.05-.58-.05-1.15,0-1.73.8-.24,1.62-.39,2.45-.45l7.86-1.06c4.49-.59,9.03-.69,13.55-.28,5.13.5,10.21,1.17,15.27,2.11.45,0,1.29,0,1.73.34s.84.56.89,2c.05,1.35.22,2.69.5,4.01.53,2.72,1.42,5.36,2.62,7.86-10.55.49-19.47,7.97-21.79,18.29-2.57,10.99.57,22.54,8.36,30.71-4.89-2.37-10.38-3.27-15.77-2.56-3.51.14-6.96.97-10.14,2.45-3.45,1.9-2.62,5.58-.78,8.24.88,1.37,1.97,2.59,3.23,3.63,1.64,1.1,3.61,1.63,5.58,1.5h2.68c.28,0,0,.66,0,.89.14,1.35.14,2.71,0,4.07.11,1.37.11,2.76,0,4.13v.84c0,.22-2.34.73-2.95.84-3.25.8-6.67.16-9.42-1.73-1.1-1.03-2.06-2.22-2.84-3.51-.48-.94-1.62-1.32-2.56-.84-.94.48-1.32,1.62-.84,2.56.19.53.45,1.05.78,1.5,1.73,2.62,4.31,4.6,7.3,5.58,1.91.59,3.92.81,5.9.61,1.21-.08,2.4-.26,3.57-.56.81-.29,1.62-.53,2.45-.73.85-.15,1.72-.05,2.51.28,6.86,2.84,14.78.36,18.79-5.9,1.34-2.56-1.45-4.68-3.23-2-.82,1.42-1.94,2.64-3.29,3.57-1.52.94-3.28,1.46-5.08,1.5-.98.09-1.97.09-2.95,0-.66,0-3.9-.5-4.29-1.11s0-2.18,0-2.79v-5.13c0-1.79,0-1.84,1.84-2,2.18.17,4.37-.15,6.41-.95,2.84-1.73,6.92-7.13,5.29-10.59,8.59,8.23,21.9,9,31.38,1.79-.34,1.55-.78,3.1-1.38,4.6v.03ZM144.59,303.86c-9.52,2.84-19.72-1.36-24.47-10.09-4.96-7.53-5.74-17.07-2.06-25.3,3.98-8.32,13.81-12.03,22.29-8.42,8.38,3.83,14.19,11.71,15.38,20.85,1.96,9.29-2.62,18.73-11.14,22.96h0ZM159.98,259.66c-7.81-.39-14.65-5.35-17.45-12.66-2.84-6.97-1.5-17.39,6.02-21.06,3.06-1.56,5.58,0,6.92,2.9,1.61,3.61,3.83,6.91,6.58,9.76,3.37,2.92,6.91,5.63,10.59,8.14,2.34,1.84,7.02,5.58,5.58,9.14-1.11,2.34-5.58,2.95-7.63,3.34-3.46.6-6.98.75-10.48.45h-.13ZM249.16,316.95c-1.06,16.72-17.22,23.97-31.88,25.75-12.82,1.56-28.71-.73-38.35-9.92-12.37-11.82-7.58-33.95,3.18-45.25,9.31-8.88,22.27-12.83,34.95-10.64,9.18,1.05,17.62,5.52,23.63,12.54,6.19,7.81,9.33,17.59,8.87,27.53h-.4,0Z"/><ellipse class="cls-5" cx="128.03" cy="281.18" rx="4.85" ry="5.74"/><ellipse class="cls-5" cx="83.84" cy="281.18" rx="4.85" ry="5.74"/><path class="cls-2" d="M53.34,391c-.66,1.5-1.86,2.7-3.36,3.36-.79.33-1.63.49-2.48.48h-5.78v9.86h-2.3v-25.69h8.11c.85,0,1.69.17,2.48.48.74.33,1.42.79,2,1.36.58.58,1.05,1.27,1.36,2.03.33.77.5,1.61.48,2.45v3.03c.02.9-.15,1.8-.51,2.63h0ZM51.53,385.34c0-.55-.12-1.1-.33-1.6-.21-.48-.51-.92-.87-1.3-.37-.38-.81-.68-1.3-.87-.5-.23-1.05-.34-1.6-.33h-5.69v11.4h5.72c.56.01,1.1-.1,1.6-.33.49-.2.93-.5,1.3-.87.38-.37.67-.81.87-1.3.22-.51.33-1.05.33-1.6l-.03-3.19h0Z"/><path class="cls-2" d="M74.67,404.71v-25.69h14.46v2.21h-12.1v9.53h9.83v2.21h-9.86v9.53h12.1v2.21h-14.43,0Z"/><path class="cls-2" d="M116.21,381.23v23.48h-2.3v-23.48h-6.05v-2.21h14.55v2.21h-6.2Z"/><path class="cls-2" d="M167.31,404.71v-25.69h2.33v25.69h-2.33Z"/><path class="cls-2" d="M205.09,404.71l-10.65-18.57-.21-1.12v19.82h-2.3v-25.81h1.21l10.71,18.73.21,1.09v-19.82h2.33v25.69h-1.31,0Z"/><path class="cls-2" d="M242.79,398.78c0,.85-.18,1.68-.54,2.45-.35.74-.83,1.42-1.42,2-.59.59-1.29,1.05-2.06,1.36-.79.33-1.63.49-2.48.48h-1.84c-.85.01-1.7-.15-2.48-.48-.76-.33-1.46-.79-2.06-1.36-.59-.58-1.06-1.25-1.42-2-.34-.77-.51-1.61-.51-2.45v-1.03l2.3-.4v1.42c0,.56.12,1.11.36,1.6.24.48.56.92.94,1.3.4.37.86.67,1.36.87.52.22,1.07.33,1.63.33h1.63c.56,0,1.12-.12,1.63-.33.5-.21.96-.51,1.36-.87.38-.38.7-.82.94-1.3.22-.51.33-1.05.33-1.6v-.79c.02-.77-.16-1.53-.51-2.21-.35-.59-.82-1.1-1.39-1.48-.6-.43-1.25-.79-1.94-1.06l-2.24-.85c-.76-.3-1.48-.6-2.21-.97-.72-.31-1.37-.76-1.94-1.3-.6-.53-1.07-1.18-1.39-1.9-.38-.87-.56-1.81-.51-2.75v-.48c0-.84.15-1.68.48-2.45.32-.76.78-1.45,1.36-2.03.57-.57,1.25-1.02,2-1.33.79-.34,1.63-.51,2.48-.51h1.66c.85,0,1.68.17,2.45.51.76.3,1.45.75,2.03,1.33s1.02,1.27,1.33,2.03c.34.77.51,1.61.51,2.45v.67l-2.33.36v-1.03c0-.55-.09-1.09-.3-1.6-.21-.48-.51-.92-.87-1.3-.38-.36-.82-.66-1.3-.87-.51-.22-1.05-.33-1.6-.33h-1.45c-.55,0-1.1.12-1.6.33-.48.22-.92.51-1.3.87-.38.37-.67.81-.87,1.3-.22.51-.33,1.05-.33,1.6v.48c-.02.72.15,1.43.51,2.06.36.57.83,1.07,1.39,1.45.6.42,1.25.76,1.94,1.03l2.24.91c.76.3,1.51.63,2.24,1,.7.36,1.35.81,1.94,1.33.59.55,1.05,1.22,1.36,1.97.38.87.57,1.83.54,2.78l-.02.78h-.03Z"/><path class="cls-2" d="M277.71,401.25c-.66,1.5-1.86,2.7-3.36,3.36-.77.33-1.61.5-2.45.48h-1.84c-.84.01-1.68-.15-2.45-.48-.76-.32-1.45-.78-2.03-1.36-.57-.57-1.02-1.25-1.33-2-.34-.77-.51-1.61-.51-2.45v-19.79h2.33v19.76c0,.55.09,1.09.3,1.6.22.48.53.93.91,1.3s.82.67,1.3.87c.51.22,1.05.33,1.6.33h1.6c.55,0,1.1-.11,1.6-.33.49-.2.93-.5,1.3-.87.36-.38.66-.82.87-1.3.22-.51.33-1.05.33-1.6v-19.76h2.3v19.76c.02.86-.15,1.7-.47,2.48h0Z"/><path class="cls-2" d="M312.29,404.71l-6.99-10.95h-3.03v10.95h-2.33v-25.69h8.02c1.67-.02,3.29.64,4.45,1.84.58.58,1.05,1.27,1.36,2.03.33.77.5,1.61.48,2.45v2.09c.01.84-.15,1.68-.48,2.45-.32.76-.78,1.45-1.36,2.03s-1.25,1.02-2,1.33c-.77.34-1.61.51-2.45.51l6.96,10.95h-2.63ZM311.99,385.34c0-.55-.12-1.1-.33-1.6-.21-.48-.51-.92-.87-1.3-.8-.8-1.89-1.24-3.03-1.21h-5.72v10.32h5.93c.55,0,1.1-.11,1.6-.33.49-.2.93-.5,1.3-.87.37-.38.67-.82.87-1.3.22-.51.33-1.05.33-1.6l-.09-2.09v-.02Z"/><path class="cls-2" d="M345.42,398.72h-8.11l-1.7,6.05h-2.39l7.5-25.69h1.24l7.53,25.69h-2.21l-1.87-6.05h.01ZM337.91,396.54h6.9l-3.39-11.86v-.94.94l-3.51,11.86h0Z"/><path class="cls-2" d="M382.48,404.71l-10.71-18.57-.21-1.12v19.82h-2.3v-25.81h1.18l10.71,18.73.24,1.09v-19.82h2.21v25.69h-1.12Z"/><path class="cls-2" d="M419.6,401.25c-.66,1.5-1.86,2.7-3.36,3.36-.77.33-1.61.5-2.45.48h-1.84c-.84.01-1.68-.15-2.45-.48-.76-.33-1.44-.79-2.03-1.36-.57-.57-1.02-1.25-1.33-2-.34-.77-.51-1.61-.51-2.45v-13.83c0-.85.17-1.68.51-2.45.31-.76.76-1.45,1.33-2.03.58-.57,1.27-1.03,2.03-1.33.77-.34,1.61-.51,2.45-.51h1.9c.85,0,1.68.17,2.45.51.74.31,1.42.76,2,1.33.58.58,1.05,1.27,1.36,2.03.33.77.5,1.61.48,2.45v1.15l-2.3.36v-1.39c0-.55-.11-1.1-.33-1.6-.41-.98-1.2-1.76-2.18-2.18-.51-.22-1.05-.33-1.6-.33h-1.6c-.55,0-1.1.11-1.6.33-.48.21-.92.51-1.3.87-.83.78-1.28,1.89-1.21,3.03v13.8c0,.55.09,1.09.3,1.6.23.48.54.92.91,1.3.38.37.82.67,1.3.87.51.22,1.05.33,1.6.33h1.6c.55,0,1.1-.11,1.6-.33.49-.2.93-.5,1.3-.87.36-.38.66-.82.87-1.3.22-.51.33-1.05.33-1.6v-1.42l2.3.4v1.03c-.04.78-.22,1.54-.54,2.24h.01Z"/><path class="cls-2" d="M441.65,404.71v-25.69h14.55v2.21h-12.1v9.53h9.83v2.21h-9.83v9.53h12.1v2.21h-14.55Z"/><rect class="cls-6" x="39.37" y="368.58" width="416.83" height="1.57"/><path class="cls-3" d="M127.19,94.92h-26.71c-4.44,0-8.03,3.6-8.03,8.03v88.84c0,4.89,3.96,8.85,8.85,8.85h0c4.88-.03,8.83-3.98,8.85-8.85v-32.39h2.66c-.03.32-.03.65,0,.97l12.49,34.9c1.21,3.12,4.23,5.15,7.57,5.12h2.71c4.44.01,8.04-3.59,8.05-8.02,0-.93-.16-1.85-.47-2.72l-11.16-31.11c8.12-2.25,13.75-9.64,13.77-18.06v-26.83c-.01-10.29-8.3-18.65-18.58-18.73ZM110.15,139.7v-24.87c0-1.48,1.18-2.68,2.66-2.71h10.24c4.44,0,8.03,3.6,8.03,8.03v14.23c-.08,4.38-3.66,7.88-8.03,7.88h-10.24c-1.42-.03-2.58-1.14-2.66-2.56Z"/><path class="cls-3" d="M201.85,94.92h-1.54c-4.44,0-8.03,3.6-8.03,8.03v74.61c.14,2.82-2.03,5.23-4.86,5.37-.09,0-.17.01-.26.01h-7.32c-2.83,0-5.12-2.28-5.12-5.11,0-.09,0-.17,0-.26v-74.62c0-4.44-3.6-8.03-8.03-8.03h-1.69c-4.44,0-8.03,3.6-8.03,8.03v81.57c0,8.88,7.19,16.09,16.07,16.12h20.78c8.87,0,16.07-7.19,16.07-16.07v-81.62c0-4.43-3.61-8.03-8.05-8.03h0Z"/><path class="cls-3" d="M256.25,94.92h-26.15c-4.44,0-8.03,3.6-8.03,8.03v89.61c0,4.45,3.59,8.06,8.03,8.09h26.15c10.36-.03,18.75-8.42,18.78-18.78v-68.22c-.03-10.35-8.43-18.73-18.78-18.73ZM257.33,174.85c.14,4.46-3.36,8.2-7.83,8.34h-7.02c-1.5,0-2.71-1.21-2.71-2.71v-65.2c0-1.47,1.19-2.66,2.66-2.66h6.81c4.44-.03,8.06,3.55,8.09,7.98v54.25h0Z"/><path class="cls-3" d="M400.21,94.92h-1.64c-4.44,0-8.03,3.6-8.03,8.03h0v53.43l-20.83-56.29c-1.23-3.11-4.23-5.14-7.57-5.12h-5.42c-4.4.03-7.96,3.59-7.98,7.98v89.61c-.03,4.44,3.55,8.06,7.98,8.09h1.69c4.44,0,8.03-3.6,8.03-8.03v-53.64l20.93,56.29c1.2,3.11,4.19,5.15,7.52,5.12h5.37c4.44,0,8.03-3.6,8.03-8.03v-89.41c0-4.44-3.6-8.03-8.03-8.03h-.05,0Z"/><path class="cls-3" d="M330.25,94.92h-34.54c-4.44,0-8.03,3.6-8.03,8.03v89.61c0,4.45,3.59,8.06,8.03,8.09h34.54c4.46.08,8.15-3.47,8.24-7.93v-1.74c-.14-4.42-3.82-7.89-8.24-7.78h-22.16c-1.5,0-2.71-1.21-2.71-2.71v-22.01c0-1.5,1.21-2.71,2.71-2.71h13.71c4.44,0,8.03-3.6,8.03-8.03v-1.64c0-4.44-3.6-8.03-8.03-8.03h-13.71c-1.47.03-2.68-1.14-2.71-2.61v-20.17c0-1.47,1.19-2.66,2.66-2.66h22.21c4.46.08,8.15-3.47,8.24-7.93v-1.75c0-4.44-3.59-8.04-8.03-8.04-.07,0-.14,0-.21,0h0Z"/><path class="cls-3" d="M464.23,94.92h-39.56c-4.44,0-8.03,3.6-8.03,8.03h0v1.64c.03,4.43,3.61,8.01,8.03,8.03h11.05v79.94c-.03,4.44,3.55,8.06,7.98,8.09h1.69c4.45-.03,8.03-3.64,8.03-8.09v-79.93h10.9c4.44,0,8.03-3.6,8.03-8.03h0v-1.65c0-4.44-3.6-8.03-8.03-8.04-.02,0-.06,0-.09,0Z"/><path class="cls-3" d="M62.4,94.92h-26.71c-4.44,0-8.03,3.6-8.03,8.03v88.84c0,4.89,3.96,8.85,8.85,8.85h.05c4.88-.03,8.83-3.98,8.85-8.85v-32.39h17.04c10.35,0,18.75-8.38,18.78-18.73v-27.02c-.03-10.37-8.46-18.76-18.83-18.73h0ZM66.19,134.32c-.08,4.39-3.65,7.91-8.03,7.93h-10.24c-1.47,0-2.66-1.19-2.66-2.66v-24.76c-.03-1.47,1.14-2.68,2.61-2.71h10.29c4.45.03,8.03,3.64,8.03,8.09v14.11h0Z"/><path class="cls-3" d="M323.45,236.36h-26.71c-4.44,0-8.03,3.6-8.03,8.03v88.84c0,4.89,3.96,8.85,8.85,8.85h.05c4.88-.03,8.83-3.98,8.85-8.85v-32.39h17.04c10.35,0,18.75-8.38,18.78-18.73v-27.02c-.03-10.37-8.46-18.76-18.83-18.73h0ZM327.25,275.76c-.08,4.39-3.65,7.91-8.03,7.93h-10.24c-1.47,0-2.66-1.19-2.66-2.66v-24.76c-.03-1.47,1.14-2.68,2.61-2.71h10.29c4.45.03,8.03,3.64,8.03,8.09v14.11h0Z"/><path class="cls-3" d="M398.74,237.28h-34.54c-4.44,0-8.03,3.6-8.03,8.03v89.61c0,4.45,3.59,8.06,8.03,8.09h34.54c4.46.08,8.15-3.47,8.24-7.93v-1.74c-.14-4.42-3.82-7.89-8.24-7.78h-22.16c-1.5,0-2.71-1.21-2.71-2.71v-22.01c0-1.5,1.21-2.71,2.71-2.71h13.71c4.44,0,8.03-3.6,8.03-8.03v-1.64c0-4.44-3.6-8.03-8.03-8.03h-13.71c-1.47.03-2.68-1.14-2.71-2.61v-20.17c0-1.47,1.19-2.66,2.66-2.66h22.21c4.46.08,8.15-3.47,8.24-7.93v-1.75c0-4.44-3.59-8.04-8.03-8.04-.07,0-.14,0-.21,0Z"/><path class="cls-3" d="M464.23,236.49h-39.56c-4.44,0-8.03,3.6-8.03,8.03h0v1.64c.03,4.43,3.61,8.01,8.03,8.03h11.05v79.94c-.03,4.44,3.55,8.06,7.98,8.09h1.69c4.45-.03,8.03-3.64,8.03-8.09v-79.93h10.9c4.44,0,8.03-3.6,8.03-8.03h0v-1.65c0-4.44-3.6-8.03-8.03-8.04-.02,0-.06,0-.09,0h0Z"/></g><rect class="cls-1" width="500" height="500"/></g></svg>