<?xml version="1.0" encoding="UTF-8"?>
<svg id="Layer_1" xmlns="http://www.w3.org/2000/svg" version="1.1" viewBox="0 0 400 150">
  <!-- Generator: Adobe Illustrator 30.0.0, SVG Export Plug-In . SVG Version: 2.1.1 Build 123)  -->
  <defs>
    <style>
      .st0 {
        fill: #fff;
      }
    </style>
  </defs>
  <path class="st0" d="M130.7,93.1c-.3-.3-.7-.6-1.2-.8-.5-.2-.9-.3-1.4-.3h-4.7v14.4h1.3v-5.5h3.4c.5,0,1,0,1.4-.3.9-.4,1.6-1.1,2-1.9h0c.2-.5.3-1,.3-1.5v-1.7c0-.5,0-.9-.3-1.4-.2-.4-.4-.8-.8-1.1h0ZM130.2,98.3c-.1.3-.3.5-.5.7-.2.2-.5.4-.8.5-.3.1-.6.2-.9.2h-3.3v-6.4h3.3c.3,0,.6,0,.9.2.3.1.5.3.8.5.2.2.4.5.5.7.1.3.2.6.2.9h0v1.8c0,.3,0,.6-.2.9h0Z"/>
  <polygon class="st0" points="143.9 106.5 152.3 106.5 152.3 105.2 145.2 105.2 145.2 99.9 151 99.9 151 98.6 145.2 98.6 145.2 93.3 152.3 93.3 152.3 92 143.9 92 143.9 106.5"/>
  <polygon class="st0" points="163.2 93.3 166.7 93.3 166.7 106.5 168.1 106.5 168.1 93.3 171.7 93.3 171.7 92 163.2 92 163.2 93.3"/>
  <rect class="st0" x="197.8" y="92" width="1.4" height="14.4"/>
  <polygon class="st0" points="219.2 103.2 219.1 102.6 212.9 92 212.2 92 212.2 106.6 213.5 106.6 213.5 95.4 213.6 96 219.8 106.5 219.8 106.5 220.6 106.5 220.6 92 219.2 92 219.2 103.2"/>
  <path class="st0" d="M240.7,100c-.3-.3-.7-.6-1.1-.8-.4-.2-.9-.4-1.3-.6l-1.3-.5c-.4-.2-.8-.3-1.1-.6-.3-.2-.6-.5-.8-.8-.2-.3-.3-.8-.3-1.2v-.3c0-.3,0-.6.2-.9.1-.3.3-.5.5-.7.2-.2.5-.4.8-.5.3-.1.6-.2.9-.2h.8c.3,0,.6,0,.9.2.3.1.5.3.8.5.2.2.4.5.5.7.1.3.2.6.2.9v.6l1.4-.2v-.4c0-.5-.1-.9-.3-1.4-.2-.4-.4-.8-.8-1.1s-.7-.6-1.2-.8c-.4-.2-.9-.3-1.4-.3h-1c-.5,0-1,0-1.4.3-.4.2-.8.4-1.2.8-.3.3-.6.7-.8,1.1-.2.4-.3.9-.3,1.4v.3c0,.5,0,1.1.3,1.6.2.4.5.8.8,1.1.3.3.7.6,1.1.7.4.2.8.4,1.3.6l1.3.5c.4.2.8.3,1.1.6.3.2.6.5.8.8.2.4.3.8.3,1.2v.4c0,.3,0,.6-.2.9-.1.3-.3.5-.6.7-.2.2-.5.4-.8.5-.3.1-.6.2-.9.2h-.9c-.3,0-.6,0-.9-.2-.3-.1-.6-.3-.8-.5-.2-.2-.4-.5-.6-.7-.1-.3-.2-.6-.2-.9v-.8l-1.3.2v.6c0,.5.1.9.3,1.4.2.4.5.8.8,1.1s.8.6,1.2.8c.4.2.9.3,1.4.3h1.1c.5,0,1,0,1.4-.3.4-.2.9-.4,1.2-.8s.6-.7.8-1.1c.2-.4.3-.9.3-1.4h0v-.4c0-.5,0-1.1-.3-1.6-.2-.4-.4-.8-.8-1.1h0Z"/>
  <path class="st0" d="M261,103.1c0,.3,0,.6-.2.9-.1.3-.3.5-.5.7-.2.2-.5.4-.8.5-.3.1-.6.2-.9.2h-.9c-.3,0-.6,0-.9-.2-.3-.1-.5-.3-.8-.5s-.4-.5-.5-.7c-.1-.3-.2-.6-.2-.9v-11.1h-1.4v11.1c0,.5.1.9.3,1.4.2.4.4.8.8,1.1.3.3.7.6,1.2.8.5.2.9.3,1.4.3h1.1c.5,0,1,0,1.4-.3.9-.4,1.6-1.1,2-1.9.2-.4.3-.9.3-1.4v-11.1h-1.3v11.1h0Z"/>
  <path class="st0" d="M281.2,100c.4-.2.8-.4,1.2-.8.3-.3.6-.7.8-1.1.2-.4.3-.9.3-1.4v-1.2c0-.5,0-.9-.3-1.4-.2-.4-.5-.8-.8-1.1-.7-.7-1.6-1.1-2.6-1h-4.7v14.4h1.4v-6.2h1.8l4.1,6.2h1.5l-4-6.2c.5,0,1,0,1.4-.3h0ZM276.3,99.1v-5.8h3.3c.7,0,1.3.2,1.8.7.2.2.4.5.5.7.1.3.2.6.2.9h0v1.2c0,.3,0,.6-.1.9-.1.3-.3.5-.5.7-.2.2-.5.4-.8.5-.3.1-.6.2-.9.2h-3.5,0Z"/>
  <path class="st0" d="M298.8,92.1l-4.4,14.4h1.4l1-3.4h4.7l1.1,3.4h1.3l-4.4-14.4h-.7ZM297.2,101.9l2-6.7,2,6.7h-4,0Z"/>
  <polygon class="st0" points="322.5 103.2 322.4 102.6 316.1 92 315.4 92 315.4 106.6 316.8 106.6 316.8 95.4 316.9 96 323.1 106.5 323.1 106.5 323.8 106.5 323.8 92 322.5 92 322.5 103.2"/>
  <path class="st0" d="M344,92.9c-.3-.3-.7-.6-1.2-.8-.5-.2-.9-.3-1.4-.3h-1.1c-.5,0-1,0-1.4.3-.4.2-.8.4-1.2.8-.3.3-.6.7-.8,1.1-.2.4-.3.9-.3,1.4v7.8c0,.5.1.9.3,1.4.2.4.4.8.8,1.1.3.3.7.6,1.2.8.5.2.9.3,1.4.3h1.1c.5,0,1,0,1.4-.3.9-.4,1.6-1,2-1.9h0c.2-.4.3-.8.3-1.3v-.6l-1.3-.2v.8c0,.3,0,.6-.2.9-.1.3-.3.5-.5.7-.2.2-.5.4-.8.5-.3.1-.6.2-.9.2h-.9c-.3,0-.6,0-.9-.2-.3-.1-.5-.3-.8-.5s-.4-.5-.5-.7c-.1-.3-.2-.6-.2-.9v-7.8c0-.6.2-1.3.7-1.7.2-.2.5-.4.8-.5.3-.1.6-.2.9-.2h.9c.3,0,.6,0,.9.2.6.2,1,.7,1.3,1.2.1.3.2.6.2.9v.8l1.3-.2v-.7c0-.5,0-.9-.3-1.4-.2-.4-.5-.8-.8-1.1h0Z"/>
  <polygon class="st0" points="344.8 104.5 344.8 104.5 344.8 104.5 344.8 104.5"/>
  <polygon class="st0" points="357.6 106.5 366.1 106.5 366.1 105.2 359 105.2 359 99.9 364.8 99.9 364.8 98.6 359 98.6 359 93.3 366.1 93.3 366.1 92 357.6 92 357.6 106.5"/>
  <rect class="st0" x="123.3" y="86.2" width="242.8" height=".9"/>
  <path class="st0" d="M148.4,79.9c1.7,0,3.1-1.3,3.1-3v-10.8h.9c0,.1,0,.2,0,.3l4.3,11.7c.4,1,1.5,1.7,2.6,1.7h.9c1.5,0,2.8-1.2,2.8-2.7s0-.6-.2-.9l-3.9-10.4c2.8-.8,4.8-3.2,4.8-6v-9c0-3.4-2.9-6.2-6.4-6.3h-9.3c-1.5,0-2.8,1.2-2.8,2.7v29.7c0,1.6,1.4,3,3.1,3h0ZM151.4,51.2c0-.5.4-.9.9-.9h3.6c1.5,0,2.8,1.2,2.8,2.7v4.8c0,1.5-1.3,2.6-2.8,2.6h-3.6c-.5,0-.9-.4-.9-.9,0,0,0-8.3,0-8.3Z"/>
  <path class="st0" d="M173.2,79.9h7.2c3.1,0,5.6-2.4,5.6-5.4v-27.3c0-1.5-1.2-2.7-2.8-2.7h-.5c-1.5,0-2.8,1.2-2.8,2.7v25c0,.9-.7,1.8-1.7,1.8h-2.6c-1,0-1.8-.8-1.8-1.7v-25c0-1.5-1.2-2.7-2.8-2.7h-.6c-1.5,0-2.8,1.2-2.8,2.7v27.3c0,3,2.5,5.4,5.6,5.4h0Z"/>
  <path class="st0" d="M193,79.9h9.1c3.6,0,6.5-2.8,6.5-6.3v-22.8c0-3.5-2.9-6.3-6.5-6.3h-9.1c-1.5,0-2.8,1.2-2.8,2.7v30c0,1.5,1.2,2.7,2.8,2.7h0ZM196.3,51.4c0-.5.4-.9.9-.9h2.4c1.5,0,2.8,1.2,2.8,2.7v18.2c0,1.5-1.2,2.7-2.7,2.8h-2.4c-.5,0-.9-.4-.9-.9v-21.8Z"/>
  <path class="st0" d="M236.9,79.9h.6c1.5,0,2.8-1.2,2.8-2.7v-18l7.2,18.8c.4,1,1.4,1.7,2.6,1.7h1.9c1.5,0,2.8-1.2,2.8-2.7v-29.9c0-1.5-1.2-2.7-2.8-2.7h-.6c-1.5,0-2.8,1.2-2.8,2.7v17.9l-7.2-18.8c-.4-1-1.5-1.7-2.6-1.7h-1.9c-1.5,0-2.8,1.2-2.8,2.7v30c0,1.5,1.2,2.7,2.8,2.7Z"/>
  <path class="st0" d="M215.7,79.9h12c1.6,0,2.8-1.2,2.9-2.7v-.6c0-1.5-1.3-2.6-2.9-2.6h-7.7c-.5,0-.9-.4-.9-.9v-7.4c0-.5.4-.9.9-.9h4.8c1.5,0,2.8-1.2,2.8-2.7v-.5c0-1.5-1.2-2.7-2.8-2.7h-4.8c-.5,0-.9-.4-.9-.9v-6.8c0-.5.4-.9.9-.9h7.7c1.6,0,2.8-1.2,2.9-2.7v-.6c0-1.5-1.2-2.7-2.8-2.7h-12c-1.5,0-2.8,1.2-2.8,2.7v30c0,1.5,1.2,2.7,2.8,2.7h0Z"/>
  <path class="st0" d="M260.4,50.5h3.8v26.7c0,1.5,1.2,2.7,2.8,2.7h.6c1.5,0,2.8-1.2,2.8-2.7v-26.7h3.8c1.5,0,2.8-1.2,2.8-2.7v-.5c0-1.5-1.2-2.7-2.8-2.7h-13.7c-1.5,0-2.8,1.2-2.8,2.7v.5c0,1.5,1.2,2.7,2.8,2.7h0Z"/>
  <path class="st0" d="M125.9,79.9h0c1.7,0,3.1-1.3,3.1-3v-10.8h5.9c3.6,0,6.5-2.8,6.5-6.3v-9c0-3.5-2.9-6.3-6.5-6.3h-9.3c-1.5,0-2.8,1.2-2.8,2.7v29.7c0,1.6,1.4,3,3.1,3h0ZM128.9,51.2c0-.5.4-.9.9-.9h3.6c1.5,0,2.8,1.2,2.8,2.7v4.7c0,1.5-1.3,2.7-2.8,2.7h-3.6c-.5,0-.9-.4-.9-.9v-8.3Z"/>
  <path class="st0" d="M295.8,79.7h0c2,0,3.6-1.4,3.6-3.1v-11.2h7c4.2,0,7.7-2.9,7.7-6.5v-9.3c0-3.6-3.5-6.5-7.7-6.5h-10.9c-1.8,0-3.3,1.2-3.3,2.8v30.6c0,1.7,1.6,3.1,3.6,3.1h0ZM299.4,50.2c0-.5.5-.9,1.1-.9h4.2c1.8,0,3.3,1.2,3.3,2.8v4.9c0,1.5-1.5,2.7-3.3,2.7h-4.2c-.6,0-1.1-.4-1.1-.9v-8.5Z"/>
  <path class="st0" d="M323.1,80h14.1c1.8,0,3.3-1.2,3.4-2.7v-.6c0-1.5-1.6-2.7-3.4-2.7h-9.1c-.6,0-1.1-.4-1.1-.9v-7.6c0-.5.5-.9,1.1-.9h5.6c1.8,0,3.3-1.2,3.3-2.8v-.6c0-1.5-1.5-2.8-3.3-2.8h-5.6c-.6,0-1.1-.4-1.1-.9v-6.9c0-.5.5-.9,1.1-.9h9.1c1.8,0,3.3-1.2,3.4-2.7v-.6c0-1.5-1.5-2.8-3.3-2.8h-14.2c-1.8,0-3.3,1.2-3.3,2.8v30.8c0,1.5,1.5,2.8,3.3,2.8h0Z"/>
  <path class="st0" d="M364.1,43.3h-16.2c-1.8,0-3.3,1.2-3.3,2.8v.6c0,1.5,1.5,2.8,3.3,2.8h4.5v27.5c0,1.5,1.5,2.8,3.3,2.8h.7c1.8,0,3.3-1.2,3.3-2.8v-27.5h4.5c1.8,0,3.3-1.2,3.3-2.8v-.6c0-1.5-1.5-2.8-3.3-2.8h0Z"/>
  <path class="st0" d="M110.7,80.2c0,0,0-.2,0-.3,0-.4-.2-.8-.3-1,0,0,0-.2,0-.2h0c0,0,0-.2,0-.2,0-.1-.1-.2-.1-.4,0-.4.2-.8.4-1.2h0c0-.1,0-.2,0-.2.2-.8.3-1.6.4-2.4h0c.2-2.8-.3-5.6-1.4-8.2-.8-1.9-2.2-4.4-5.4-4.8h-.3c-2,0-3.9.9-5.1,2.5l-2.6,2.9s0,0-.1,0h0c-.7,0-1.4,0-2.1,0s-1.4,0-2.1,0h-1.2c0,.1-.1.1-.2.1l-1-1.2h0s0,0,0,0c-.2-.2-.4-.4-.6-.6s-.4-.4-.6-.7c0,0,0-.3,0-.4,0-.3,0-.7-.2-1.1h0c0,0,0-.1,0-.1-.8-2.2-2.4-4.1-4.5-5.3-.8-.5-1.6-1.1-2.3-1.8-.4-.5-.7-1.1-.9-1.6h0s0,0,0,0c-1.2-2.3-3.6-3.8-6.2-3.8h-.4c-2.7.4-5,2-6.3,4.4h0l-1.7-.3c-1.5-.2-2.8-.4-4.2-.5h0c-.6,0-1.1,0-1.7,0-2.2,0-4.3.2-6.4.6-.5-.7-1-1.3-1.6-1.8-1.1-1-2.5-1.7-3.9-1.9-.3,0-.6,0-.9,0-2.6,0-4.9,1.4-6,3.7h0c-.3.7-.6,1.2-1,1.8-.7.7-1.4,1.3-2.2,1.7-2,1.2-3.6,3.1-4.5,5.2h0c0,0,0,.1,0,.1-1,3.5,1,7.2,4.4,8.2.1,0,.2,0,.4,0,.7.2,1.4.4,2.1.5-.3,1.9-.5,3.9-.5,5.8-.2,2.2,0,4.3.6,6.4h0c0,0,0,.2,0,.2,2.9,7.3,9.2,12.5,16.9,14h0c.9.1,1.8.2,2.7.2,3.6,0,7-1,10.1-2.9,2.7-1.6,5-3.8,6.8-6.3,2.4,6,9.2,8.8,14.9,9.2.8,0,1.6.1,2.4.1,4.6,0,9.2-1.6,12.8-4.4h0s0,0,0,0c3.4-3.1,5-7.6,4.3-12.1,0-.7-.2-1.2-.3-1.8h0ZM109.6,85.1c-.2,3-1.6,5.8-3.9,7.9-.4.3-.8.6-1.2.8,0,0-.1,0-.2.1-.4.2-.8.5-1.2.7,0,0-.2,0-.2.1-.4.2-.8.4-1.3.6,0,0,0,0-.1,0-.4.2-.8.3-1.3.5,0,0-.1,0-.2,0-.4.2-.9.3-1.3.4,0,0-.2,0-.3,0-.4.1-.9.2-1.4.3,0,0-.2,0-.2,0-.5,0-.9.1-1.4.2h0c-.3,0-.7,0-1,0h-.9c-.2,0-.3,0-.5,0-.1,0-.2,0-.3,0-.3,0-.7,0-1,0-1.8-.2-3.7-.5-5.4-1.2-2.2-.8-4.3-2-5.9-3.6-.3-.3-.6-.6-.8-1h0c-.3-.3-.5-.7-.7-1.1h0c-.3-.5-.6-1.1-.8-1.6,0-.2-.1-.3-.2-.5-.3-.8-.4-1.7-.5-2.6-.5.9-1,1.8-1.6,2.6-1.8,2.5-4,4.7-6.7,6.3h0c-.4.2-.8.5-1.2.7-.1,0-.3.1-.4.2-.3.1-.6.3-.9.4-.2,0-.3.1-.5.2-.3.1-.6.2-.9.3-.1,0-.3,0-.4.1-.4.1-.9.2-1.3.3h0c-.4,0-.9.2-1.3.2-.2,0-.3,0-.4,0-.3,0-.6,0-1,0,0,0-.2,0-.2,0h-1.2c-.2,0-.3,0-.5,0-.5,0-.9,0-1.4-.1h0c-.2,0-.4,0-.6-.1-1.6-.3-3.1-.9-4.5-1.6-.5-.2-1-.5-1.5-.8-.4-.2-.8-.4-1.1-.7-.5-.4-1.1-.7-1.6-1.2-.4-.3-.8-.7-1.2-1.1-.3-.3-.6-.6-.9-.9-.3-.3-.6-.6-.8-.9,0,0,0,0-.1-.1-1.1-1.4-2.1-2.9-2.9-4.5-.2-.4-.4-.8-.5-1.2-.2-.5-.3-1.1-.4-1.7-.2-1.4-.3-2.8-.2-4.2h0c0-2.5.4-4.9.8-7.3-.3,0-.5,0-.8,0-.9,0-1.8-.3-2.7-.5-.1,0-.2,0-.3,0-.7-.2-1.3-.5-1.8-1-.3-.2-.5-.4-.7-.7-.2-.2-.4-.5-.5-.8s-.3-.6-.4-.9c-.3-.9-.3-2,0-3,0-.2.2-.5.3-.7.5-.9,1.1-1.7,1.8-2.4.5-.5,1.1-1,1.8-1.4.7-.4,1.4-.9,2-1.5.2-.2.4-.4.6-.6.5-.7.9-1.3,1.2-2.1.1-.2.3-.5.4-.7h0c0,0,.1-.1.2-.2h0c.1-.1.2-.3.3-.4h0s0,0,0,0c0,0,0,0,0,0,0,0,0,0,0,0h0c.1-.1.2-.2.4-.3,0,0,0,0,.1,0,0,0,0,0,.1,0h0c.1,0,.2-.2.4-.2,0,0,.2,0,.3-.2.1,0,.3-.1.4-.2h0s0,0,.1,0c0,0,.1,0,.2,0,.2,0,.3,0,.4-.1h0c0,0,.2,0,.2,0,0,0,0,0,0,0,.2,0,.3,0,.5,0,0,0,0,0,.1,0,0,0,0,0,.2,0h0c.2,0,.5,0,.8,0,.3,0,.6,0,.9.2.8.2,1.5.7,2.1,1.2,0,0,0,0,.1.1h0c.5.5,1,1,1.4,1.6,0,.1.2.3.3.5,0,.1.2.2.3.2s.3,0,.4,0c.1,0,.3,0,.4-.1.6-.1,1.2-.2,1.8-.3h0c0,0,.2,0,.3,0s.2,0,.3,0c.4,0,.8,0,1.2-.1.1,0,.2,0,.3,0s.2,0,.3,0c.4,0,.8,0,1.3,0,.2,0,.4,0,.5,0,.6,0,1.2,0,1.8,0h0c1,0,2,.2,3,.3.3,0,.7,0,1.1.1l.9.2h.8c0,.1.7.3.7.3,0,0,.1,0,.2,0h.1s0,0,0,0h0s0,0,0,0h0s0,0,0-.1c0,0,0,0,0,0,.2-.6.6-1.1.9-1.6.2-.2.4-.5.6-.7.4-.4.9-.8,1.4-1.1.5-.3,1.1-.5,1.7-.7.3,0,.6-.2.9-.2h0c.2,0,.3,0,.5,0,.1,0,.2,0,.4,0,.1,0,.3,0,.4,0,0,0,0,0,.2,0,0,0,.1,0,.2,0,.1,0,.3,0,.4.1h0c0,0,.2,0,.2,0,0,0,0,0,0,0,.1,0,.2.1.4.2h0c0,0,.2,0,.3.1,0,0,0,0,0,0,.1,0,.2.2.3.2,0,0,.2,0,.2.2,0,0,0,0,0,0,.1,0,.2.2.3.3h0c0,0,.1.1.2.2,0,0,0,0,0,0,0,0,0,0,0,.1,0,0,.2.2.2.3,0,0,.1.1.2.2.2.2.3.4.4.7h0c.3.7.7,1.4,1.2,2,.4.4.8.8,1.2,1.1.4.3.9.7,1.3,1,.3.2.6.4.9.7,1.3,1,2.3,2.4,2.9,3.9,0,.2,0,.3,0,.5,0,.4,0,.9.2,1.2,0,0,0,.1.1.2.3.4.7.7,1,1.1.1.1.2.2.3.3l1.3,1.6s0,0,0,0c0,0,0,0,0,0,0,0,0,.1.2.1,0,0,0,0,.2,0h0s0,0,0,0c0,0,0,0,.2,0,0,0,0,0,.2,0h0c0,0,0,0,.2,0h0c0,0,.2,0,.2,0h.7c0,0,.5-.1.5-.1.3,0,.7,0,1,0,.7,0,1.3,0,1.9,0,.3,0,.7,0,1,0h0c0,0,.2,0,.2,0,0,0,.1,0,.2,0h.3s0,0,0,0c0,0,0,0,0,0h0s0,0,0,0h0s0,0,0,0h0s0,0,0,0h0s0,0,0,0h0s0,0,0,0h0c0,0,.1-.1.2-.2l2.8-3.1c.1-.2.2-.3.4-.4,0,0,0,0,.1-.1h0c0,0,.2-.2.3-.3,0,0,0,0,0,0,0,0,0,0,.1,0h0c0,0,.2-.1.3-.2h0s0,0,0,0c0,0,0,0,.1,0,0,0,.2-.1.3-.2h0s0,0,0,0c0,0,0,0,.1,0,0,0,.2,0,.3-.1,0,0,.1,0,.2,0,0,0,0,0,0,0h0c0,0,.2,0,.3,0,0,0,.2,0,.2,0h0c0,0,.2,0,.3,0,0,0,.2,0,.2,0h0c.1,0,.2,0,.4,0,.5,0,.9.2,1.2.3.2,0,.5.2.7.3,0,0,.2.1.3.2.6.4,1,1,1.4,1.6.1.2.2.4.4.7.1.2.2.5.3.7.2.5.4,1,.6,1.5.2.7.4,1.4.6,2.2.2.9.2,1.9.2,2.8s0,.6,0,1c0,.5-.2,1.1-.3,1.6,0,.2,0,.4-.1.6-.1.3-.2.6-.3.9,0,.3-.2.6-.2.9,0,.2,0,.3.1.5,0,.2.1.3.2.5,0,.2.1.3.2.5,0,.2,0,.3,0,.5,0,.3.2.7.2,1s.1.7.1,1h0c0,.5.2,1,.2,1.5s0,1,0,1.5h.1Z"/>
  <path class="st0" d="M81,72.2c0,.4,0,.8,0,1.2,1.3-1.6,3-2.8,4.9-3.7l-1.1-1.2c-1,.7-2.1,1.1-3.2,1.3-.3.8-.5,1.6-.6,2.4h0Z"/>
  <path class="st0" d="M105.7,81.9c0-.2,0-.3,0-.5,0-.2,0-.4-.2-.6,0-.2,0-.3-.1-.5s-.1-.3-.2-.5c0-.2-.2-.4-.2-.6,0-.1,0-.2-.1-.3-.5-1.1-1-2-1.8-2.9-1.7-1.9-3.9-3.3-6.4-3.8-.1,0-.2,0-.3,0-.3,0-.6-.1-.9-.2-.3,0-.7,0-1-.1-3.4-.3-6.8.8-9.5,2.9-3.8,3.3-5.9,10.6-2.2,14.8,2.1,2.4,5.5,3.5,8.7,3.8,1.3,0,2.7,0,3.9,0,4.7-.6,10-2.9,10.3-8.3h.1c0-.8,0-1.6,0-2.3,0-.2,0-.4,0-.6h0ZM91.6,84.3c0,0,.2-.2.3-.2h2.8c.1,0,.2,0,.3.2,0,0,0,.2,0,.3l-1.4,2.5s0,0,0,0c-.2,0-.3,0-.4,0h0l-1.4-2.5c0,0,0-.2,0-.3ZM86.9,80.8c0-.9.6-1.6,1.3-1.6s1.3.7,1.3,1.6-.6,1.6-1.3,1.6-1.3-.7-1.3-1.6ZM99.2,87.1c-.7,1.4-2.1,2.2-3.6,2.2-.8,0-1.6-.2-2.3-.4-.7.2-1.5.4-2.2.4-1.5,0-2.9-.8-3.6-2.2,0-.3,0-.6.3-.7.3-.2.7,0,.9.2,0,.2,1.1,2.3,4.5,1,0,0,.2,0,.3,0,0,0,.2,0,.3,0,3.5,1.3,4.5-.9,4.5-1,0,0,0,0,0,0,.1-.3.5-.4.8-.3h0s0,0,0,0c.3.2.4.6.2.9h0ZM98.4,82.4c-.8,0-1.3-.7-1.3-1.6s.6-1.6,1.3-1.6,1.3.7,1.3,1.6-.6,1.6-1.3,1.6Z"/>
  <path class="st0" d="M103,70.8c.1,0,.3.2.4.2,0,0,0,0,0,0,.8.6,1.6,1.3,2.3,2.2,0-1.8-.3-3.5-1-5.1-.1-.3-.4-1.1-.8-1.4h-.2c0,0-.1,0-.2,0-.2,0-.3,0-.5,0h0l-2.5,2.7c.4.2.9.4,1.3.7.4.2.8.5,1.1.7h0Z"/>
  <path class="st0" d="M68.6,82.6c-1.2-.2-2.3-.7-3.2-1.4-.3-.2-.5-.4-.8-.6.4,1.1-.9,2.8-1.8,3.3-.7.3-1.4.4-2.1.3-.6,0-.6,0-.6.7v1.7c0,.2-.1.7,0,.9s1.2.4,1.4.4c.3,0,.6,0,1,0,.6,0,1.2-.2,1.6-.5.4-.3.8-.7,1.1-1.2.6-.9,1.5-.2,1,.7-1.3,2-3.9,2.8-6.1,1.9-.2,0-.5-.1-.8,0-.3,0-.5.1-.8.2-.4,0-.8.2-1.2.2-.6,0-1.3,0-1.9-.2-1-.3-1.8-1-2.4-1.8,0-.2-.2-.3-.2-.5-.2-.3,0-.7.3-.8.3-.2.7,0,.8.3.2.4.6.8.9,1.1.9.6,2,.8,3,.6.2,0,1-.2,1-.3v-.3c0-.4,0-.9,0-1.3,0-.4,0-.9,0-1.3,0,0,0-.3,0-.3h-.9c-.6,0-1.3-.1-1.8-.5-.4-.3-.8-.7-1-1.2-.6-.9-.9-2.1.2-2.7,1-.5,2.1-.8,3.3-.8,1.7-.2,3.5,0,5,.8-2.5-2.7-3.5-6.4-2.6-9.9.7-3.3,3.6-5.8,7-5.9-.3-.7-.6-1.4-.8-2.1,0-.4-.2-.8-.2-1.2,0-.2,0-.4,0-.6h0c0-.4-.2-.5-.3-.6,0,0,0,0-.1,0,0,0-.1,0-.2,0,0,0-.2,0-.3,0-1.6-.3-3.3-.5-4.9-.7-1.5-.1-2.9,0-4.4,0l-2.5.3c-.2,0-.5,0-.7.1-.2.2,0,.7,0,1,0,.4,0,.8,0,1.1,0,.8-.3,1.5-.6,2.2-.4,1.1-.9,2.1-1.6,3-1.4,1.8-3.4,3-5.5,3.5-.5.1-.4.1-.5.6l-.2,1.1c-.1.8-.2,1.5-.3,2.3-.2,1.5-.3,3.1-.3,4.6-.1.8-.1,1.7,0,2.5.2,1.2.7,2.4,1.2,3.5.3.6.7,1.1,1.1,1.6,1.8,2.4,4.2,4.4,7,5.6,2.5,1,5.4,1.4,8.2.9,2.7-.6,5.2-1.9,7.3-3.8.9-.7,1.7-1.5,2.4-2.4,0,0,.2-.2.2-.3,1.1-1.5,1.9-3.3,2.4-5.1-.4.3-.7.5-1.1.7-1.5.8-3.2,1-4.8.7h0ZM50.7,73.2c0-1,.7-1.9,1.6-1.9s1.6.8,1.6,1.9-.7,1.9-1.6,1.9-1.6-.8-1.6-1.9Z"/>
  <path class="st0" d="M45.5,66.4c.2,0,.3-.1.5-.2,0,0,0,0,.2,0,.3-.1.5-.3.8-.4,0,0,0,0,.2,0,.2-.1.4-.3.6-.5,0,0,.2-.1.2-.2,0,0,.2-.2.3-.3.2-.2.3-.3.5-.5,0,0,0,0,0-.1.3-.5.6-1,.8-1.6.4-1,.5-2.2.2-3.2,0,0,0,0,0-.2h0c-.2-.7-.5-1.4-.9-2-.3-.5-.8-1-1.4-1.2,0,0,0,0-.1,0,0,0-.1,0-.2,0,0,0-.2,0-.3,0h0c0,0-.2,0-.3,0,0,0-.1,0-.2,0,0,0,0,0-.1,0,0,0-.2,0-.2.1s-.1,0-.2.2h0c-.4.5-.6,1.1-.9,1.6,0,.2-.2.3-.3.5,0,.1-.1.2-.2.4,0,.1-.2.3-.3.4-.5.6-1,1.2-1.7,1.7,0,0,0,0,0,0-.2.2-.4.3-.6.5-.9.7-1.8,1.3-2.7,2,0,0-.1.1-.2.2-.5.5-1.2,1.4-.8,2.2,0,0,0,0,0,0,0,0,0,0,0,0,0,0,.2.2.3.2.5.2,1,.4,1.5.6.2,0,.4,0,.6,0,1.1.2,2.2.2,3.4.1h0c.2,0,.5,0,.7-.1.1,0,.2,0,.3,0,.2,0,.4-.1.6-.2h0Z"/>
  <path class="st0" d="M82.1,65.7c.4-.2.7-.4.8-.7.4-1.1-1.1-2.3-1.8-2.9-1.2-.8-2.3-1.7-3.4-2.6-.9-.9-1.6-2-2.1-3.2-.3-.7-.8-1.2-1.5-1.1,0,0,0,0-.1,0,0,0,0,0-.1,0-.8.2-1.5,1-1.9,1.5-.7,1-1,2.1-1,3.3,0,0,0,.2,0,.3h0c0,.2,0,.4,0,.6,0,.2,0,.3.1.5h0c0,.3.2.6.3.9,0,0,0,0,0,.2.8,1.7,2.3,3,4.2,3.6,0,0,0,0,.1,0,.2,0,.4,0,.7.1.2,0,.3,0,.5,0h0c1.1,0,2.3,0,3.4-.2.2,0,.3,0,.6,0,.4,0,.8-.2,1.2-.4Z"/>
  <path class="st0" d="M75.4,72.4c0-.5-.2-.9-.4-1.4,0-.2-.2-.4-.3-.6,0,0,0-.2-.1-.2,0-.1-.2-.3-.2-.4-.1-.2-.3-.4-.4-.6,0,0,0,0,0-.1-.8-1.1-2-2.1-3.3-2.7-.7-.3-1.4-.4-2.2-.5-.8,0-1.5.2-2.2.4-3.1,1.4-4.4,5.5-2.9,9.4.8,2.1,2.3,3.7,4.3,4.6,0,0,.2,0,.3.1,1.2.4,2.6.4,3.9,0,0,0,0,0,0,0,0,0,0,0,0,0,1.4-.7,2.5-1.8,3.1-3.2.6-1.3.7-2.9.4-4.6,0-.1,0-.2,0-.3h0ZM66.6,75.1c-.9,0-1.6-.8-1.6-1.9s.7-1.9,1.6-1.9,1.6.8,1.6,1.9-.7,1.9-1.6,1.9Z"/>
  <path class="st0" d="M364.3,75.2c-1.1,0-2.1.9-2.1,2.1s.9,2.1,2.1,2.1,2.1-.9,2.1-2.1-.9-2.1-2.1-2.1ZM364.3,79c-1,0-1.8-.8-1.8-1.8s.8-1.8,1.8-1.8,1.8.8,1.8,1.8-.8,1.8-1.8,1.8Z"/>
  <path class="st0" d="M365.1,76.5c-.2-.7-1-.5-1.5-.5h0v2.5h.5v-1h.3l.6,1h.5l-.7-1.1c.4-.2.5-.5.4-.9h0ZM364.5,77.1h-.1s-.3,0-.3,0v-.8c.3,0,.7,0,.7.4,0,.2,0,.2-.2.3h0Z"/>
</svg>