<?xml version="1.0" encoding="utf-8"?>
<!-- Generator: Adobe Illustrator 26.0.2, SVG Export Plug-In . SVG Version: 6.00 Build 0)  -->
<svg version="1.1" id="Layer_1" xmlns="http://www.w3.org/2000/svg" xmlns:xlink="http://www.w3.org/1999/xlink" x="0px" y="0px"
	 viewBox="0 0 961.99 186.94" style="enable-background:new 0 0 961.99 186.94;" xml:space="preserve">
<style type="text/css">
	.st0{fill:#97938C;}
	.st1{fill:#CFD2D3;}
	.st2{fill:#F2DAB2;}
	.st3{fill:#B6A999;}
	.st4{fill:#564138;}
	.st5{fill:#17BEBB;}
	.st6{fill:#FF3E37;}
	.st7{fill:#363636;}
</style>
<g>
	<path class="st1" d="M132.95,87c-0.08,1.23-0.08,2.46,0,3.68c3.9-4.64,8.75-8.37,14.23-10.95L144,76.25
		c-2.79,1.93-5.97,3.24-9.31,3.84C133.9,82.33,133.32,84.65,132.95,87z"/>
	<path class="st1" d="M203.73,119.29c-0.41-7.88-3.21-15.45-8.03-21.7c-5.12-6.01-12.21-10-20.01-11.26
		c-11.1-2.23-22.62,0.56-31.47,7.63c-10.9,9.42-16.68,30.19-6.14,42.07c7.93,9.01,22.57,11.67,34.08,10.75
		c7.91-0.45,15.56-2.96,22.21-7.27C200.83,134.89,204.39,127.21,203.73,119.29z"/>
	<path class="st1" d="M195.79,71.54l-7.11,7.78c5.65,2.51,10.67,6.25,14.69,10.95c0.1-1.41,0.1-2.83,0-4.25
		c-0.12-1.05-0.29-2.09-0.51-3.12c0-1.02-0.51-2.05-0.77-3.02c-0.83-2.74-1.91-5.39-3.22-7.93c-0.06-0.14-0.14-0.26-0.26-0.36l0,0
		h-0.26l0,0l0,0h-0.61c-0.19-0.03-0.38-0.03-0.56,0l0,0C196.73,71.42,196.25,71.4,195.79,71.54z"/>
	<path class="st2" d="M84.23,109.16c-7.12-7.52-9.97-18.12-7.57-28.2c2.08-9.45,10.2-16.35,19.86-16.89
		c-0.92-1.92-1.64-3.92-2.15-5.99c-0.27-1.08-0.45-2.17-0.56-3.28c-0.03-0.55-0.03-1.09,0-1.64c0-1.33,0.31-1.33-0.82-1.84
		c-2.08-0.61-4.23-0.99-6.4-1.13l-6.45-0.87c-3.92-0.5-7.88-0.62-11.82-0.36l-5.73,0.67l-3.33,0.46c-1.17-0.03-2.33,0.17-3.43,0.56
		c-0.56,0.41,0,1.94,0,2.87c0.08,1.07,0.08,2.15,0,3.22c-0.27,2.14-0.81,4.23-1.59,6.24c-1.11,3.08-2.68,5.98-4.66,8.6
		c-3.96,5.01-9.53,8.49-15.76,9.88c-1.28,0.31-1.23,0.36-1.43,1.69l-0.46,3.12c-0.36,2.2-0.61,4.35-0.87,6.55
		c-0.55,4.31-0.88,8.65-0.97,13c-0.51,3.72-0.34,7.5,0.51,11.16c1.51,3.79,3.56,7.34,6.09,10.54c9.57,12.54,25.02,21.44,41.2,18.88
		c8.43-1.56,16.24-5.48,22.52-11.31c7.21-5.66,12.25-13.63,14.28-22.57C105.16,120.52,92.52,117.19,84.23,109.16z"/>
	<path class="st2" d="M27.63,71.7c7.34-0.53,13.65-5.41,16.02-12.38c1.57-4.07,1.4-8.6-0.46-12.54c-1.33-2.71-4.09-6.65-7.52-6.6
		c-3.43,0.05-4.2,3.48-5.42,5.78c-1.78,3.27-4.2,6.14-7.11,8.44c-3.17,2.56-6.76,4.55-9.67,7.32c-1.59,1.54-3.84,4.25-2.61,6.6
		c1.23,2.35,5.12,2.66,7.22,3.02C21.22,71.87,24.44,71.99,27.63,71.7z"/>
	<path class="st2" d="M104.8,56.55c1.95,7.42,8.29,12.85,15.92,13.66c5.18,0.78,10.47,0.2,15.35-1.69
		c7.88-3.63-5.12-11.77-7.88-13.87c-3.07-2.04-5.74-4.62-7.88-7.63c-1.64-2.46-2.56-6.96-5.58-8.09c-3.02-1.13-6.09,2-7.63,4.3
		C104.33,47.08,103.48,52,104.8,56.55z"/>
	<path class="st3" d="M103.83,70.78c-2.12-0.9-4.4-1.39-6.7-1.43c-1.91-0.01-3.81,0.36-5.58,1.07C82.34,74.1,78.5,86.13,82.9,97.28
		c2.21,5.83,6.62,10.55,12.28,13.15c3.85,1.73,8.22,1.88,12.18,0.41c9.21-3.68,13.05-15.76,8.65-26.92
		C113.81,78.13,109.44,73.41,103.83,70.78z"/>
	<path class="st4" d="M184.13,126.86c-0.85-0.39-1.85-0.02-2.24,0.82c-0.02,0.05-0.04,0.1-0.06,0.15c0,0.26-2.87,6.65-12.69,2.87
		c-0.28-0.12-0.57-0.2-0.87-0.26c-0.3,0.03-0.6,0.12-0.87,0.26c-9.57,3.68-12.44-2.2-12.69-2.92c-0.49-0.86-1.59-1.15-2.45-0.66
		c-0.71,0.41-1.05,1.25-0.83,2.04c1.9,3.9,5.9,6.34,10.24,6.24c2.16,0.02,4.3-0.32,6.35-1.02c2.07,0.81,4.27,1.24,6.5,1.28
		c4.33,0.07,8.32-2.36,10.24-6.24c0.55-0.82,0.33-1.93-0.49-2.48C184.21,126.91,184.17,126.89,184.13,126.86z"/>
	<ellipse class="st4" cx="182.39" cy="111.41" rx="3.84" ry="4.55"/>
	<ellipse class="st4" cx="153.57" cy="111.41" rx="3.84" ry="4.55"/>
	<path class="st4" d="M167.24,129.27c0.28,0.42,0.85,0.54,1.28,0.26c0.1-0.07,0.19-0.16,0.26-0.26l4.04-7.01
		c0.16-0.27,0.16-0.6,0-0.87c-0.14-0.29-0.44-0.47-0.77-0.46h-8.09c-0.32-0.01-0.63,0.17-0.77,0.46c-0.16,0.27-0.16,0.6,0,0.87
		L167.24,129.27z"/>
	<path class="st4" d="M213.91,115.04c0-1.84-0.61-3.68-1.02-5.53c0-0.97-0.51-1.94-0.82-2.92c-0.42-0.9-0.73-1.84-0.92-2.81
		c0.34-1.76,0.87-3.47,1.59-5.12c0.53-2.05,0.9-4.14,1.13-6.24c0.44-7.25-0.86-14.49-3.79-21.14c-2.25-5.48-5.53-10.24-12.03-10.95
		c-4.5-0.12-8.79,1.94-11.51,5.53l-7.83,8.65c-1.43,1.59-1.43,1.28-3.74,0.97c-3.73-0.33-7.48-0.33-11.21,0l-3.38,0.36
		c-0.56,0-2.1,0.61-2.56,0.41c-0.46-0.2-0.56-0.61-0.72-0.82l-3.68-4.4c-1.18-1.33-2.66-2.61-3.74-4.04
		c-1.07-1.43-0.56-3.68-1.07-5.58c-2.08-5.46-5.94-10.05-10.95-13.05c-2.65-1.68-5.12-3.64-7.37-5.83c-1.4-1.78-2.55-3.75-3.43-5.83
		c-2.68-5.44-8.32-8.79-14.38-8.55c-7,1.02-12.98,5.59-15.81,12.08c-0.51,0.97-0.56,0.92-1.59,0.72l-2.1-0.41l-4.76-0.82
		c-3.79-0.56-7.57-1.02-11.41-1.33C69.37,38,61.9,38.56,54.6,40.07c-0.72,0.26-1.48,0.4-2.25,0.41c-0.67,0-1.07-1.28-1.59-1.94
		c-1.12-1.72-2.48-3.27-4.04-4.61c-2.48-2.3-5.61-3.78-8.96-4.25c-6.33-0.83-12.49,2.43-15.35,8.14c-0.93,2.09-2.08,4.08-3.43,5.94
		c-2.18,2.25-4.64,4.21-7.32,5.83C6.7,52.57,2.82,57.08,0.61,62.43c-2.29,7.66,2.06,15.73,9.72,18.03c0.3,0.09,0.61,0.17,0.92,0.24
		c3.21,0.98,6.53,1.53,9.88,1.64c-1.18,6.77-1.92,13.61-2.2,20.47c-0.47,5.61,0.05,11.25,1.54,16.68
		c7.62,19.26,24.54,33.31,44.88,37.26c11.6,1.64,23.41-0.85,33.37-7.01c9.98-6.1,18.08-14.85,23.39-25.28
		c1.84,21.24,21.95,31.32,40.94,32.91c14.35,1.64,28.77-2.4,40.17-11.26C211.91,138.29,215.95,126.55,213.91,115.04z M195.79,71.54
		c2.3-2.51,4.09,2.87,4.61,4.15c2,4.6,3.01,9.57,2.97,14.58c-4.01-4.7-9.03-8.45-14.69-10.95L195.79,71.54z M143.65,76.25l3.17,3.48
		c-5.48,2.58-10.33,6.32-14.23,10.95c0-2.05,0.2-4.09,0.61-6.09c0-0.82,0.31-1.59,0.51-2.35s0.26-0.97,0.41-1.43
		s0.31-0.97,0.97-0.87c1.38-0.72,3.17-0.87,4.66-1.48C141.14,77.88,142.44,77.14,143.65,76.25z M27.63,71.7
		c-5.31,0.86-10.76,0.07-15.61-2.25c-5.89-3.89,5.73-11.11,8.24-12.9c3.3-2.16,6.17-4.9,8.5-8.09c1.64-2.46,2.51-6.91,5.53-8.03
		s5.73,1.59,7.32,3.74c2.51,3.4,3.58,7.64,2.97,11.82C43.23,64.51,36.23,71,27.63,71.7z M113.91,116.68
		c-5.86,14.37-18.12,25.16-33.11,29.17c-15.66,2.98-31.68-2.93-41.66-15.35c-5.56-5.66-8.98-13.08-9.67-20.98
		c-0.12-8.42,0.59-16.84,2.1-25.13c0-0.77,0-2.15,0.67-2.56c0.67-0.26,1.38-0.43,2.1-0.51c1.76-0.43,3.47-1.03,5.12-1.79
		c2.69-1.28,5.15-3.01,7.27-5.12c4.92-4.95,8.01-11.43,8.75-18.37c0.08-1.21,0.08-2.42,0-3.63c-0.05-0.53-0.05-1.06,0-1.59
		c0.73-0.22,1.49-0.36,2.25-0.41l7.22-0.97c4.12-0.54,8.29-0.63,12.44-0.26c4.71,0.46,9.37,1.07,14.02,1.94c0.41,0,1.18,0,1.59,0.31
		s0.77,0.51,0.82,1.84c0.05,1.24,0.2,2.47,0.46,3.68c0.49,2.5,1.3,4.92,2.41,7.22c-9.69,0.45-17.88,7.32-20.01,16.79
		c-2.36,10.09,0.52,20.7,7.68,28.2c-4.49-2.18-9.53-3-14.48-2.35c-3.22,0.13-6.39,0.89-9.31,2.25c-3.17,1.74-2.41,5.12-0.72,7.57
		c0.81,1.26,1.81,2.38,2.97,3.33c1.51,1.01,3.31,1.5,5.12,1.38c0.41,0,2.2,0,2.46,0s0,0.61,0,0.82c0.13,1.24,0.13,2.49,0,3.74
		c0.1,1.26,0.1,2.53,0,3.79c0,0,0,0.56,0,0.77c0,0.2-2.15,0.67-2.71,0.77c-2.98,0.73-6.12,0.15-8.65-1.59
		c-1.01-0.95-1.89-2.04-2.61-3.22c-0.44-0.86-1.49-1.21-2.35-0.77c-0.86,0.44-1.21,1.49-0.77,2.35c0.17,0.49,0.41,0.96,0.72,1.38
		c1.59,2.41,3.96,4.22,6.7,5.12c1.75,0.54,3.6,0.74,5.42,0.56c1.11-0.07,2.2-0.24,3.28-0.51c0.74-0.27,1.49-0.49,2.25-0.67
		c0.78-0.14,1.58-0.05,2.3,0.26c6.3,2.61,13.57,0.33,17.25-5.42c1.23-2.35-1.33-4.3-2.97-1.84c-0.75,1.3-1.78,2.42-3.02,3.28
		c-1.4,0.86-3.01,1.34-4.66,1.38c-0.9,0.08-1.81,0.08-2.71,0c-0.61,0-3.58-0.46-3.94-1.02s0-2,0-2.56v-4.71c0-1.64,0-1.69,1.69-1.84
		c2,0.16,4.01-0.14,5.89-0.87c2.61-1.59,6.35-6.55,4.86-9.72c7.89,7.56,20.11,8.26,28.81,1.64
		C114.87,113.88,114.46,115.31,113.91,116.68z M107.36,110.85c-8.74,2.61-18.11-1.25-22.47-9.26c-4.55-6.91-5.27-15.67-1.89-23.23
		c3.65-7.64,12.68-11.05,20.47-7.73c7.69,3.52,13.03,10.75,14.12,19.14C119.39,98.3,115.18,106.97,107.36,110.85z M121.49,70.26
		c-7.17-0.36-13.45-4.91-16.02-11.62c-2.61-6.4-1.38-15.97,5.53-19.34c2.81-1.43,5.12,0,6.35,2.66c1.48,3.31,3.52,6.34,6.04,8.96
		c3.09,2.68,6.34,5.17,9.72,7.47c2.15,1.69,6.45,5.12,5.12,8.39c-1.02,2.15-5.12,2.71-7.01,3.07c-3.18,0.55-6.41,0.69-9.62,0.41
		H121.49z M203.37,122.87c-0.97,15.35-15.81,22.01-29.27,23.64c-11.77,1.43-26.36-0.67-35.21-9.11
		c-11.36-10.85-6.96-31.17,2.92-41.55c8.55-8.15,20.45-11.78,32.09-9.77c8.43,0.96,16.18,5.07,21.7,11.51
		c5.68,7.17,8.57,16.15,8.14,25.28H203.37z"/>
	<ellipse class="st4" cx="92.16" cy="90.02" rx="4.45" ry="5.27"/>
	<ellipse class="st4" cx="51.58" cy="90.02" rx="4.45" ry="5.27"/>
	<path class="st3" d="M280.54,163.1c-1.11,2.54-3.14,4.57-5.68,5.68c-1.33,0.56-2.76,0.83-4.2,0.82h-9.77v16.68H257v-43.45h13.71
		c1.44,0.01,2.86,0.29,4.2,0.82c1.26,0.55,2.41,1.33,3.38,2.3c0.98,0.98,1.77,2.15,2.3,3.43c0.56,1.31,0.84,2.72,0.82,4.15v5.12
		C281.44,160.17,281.15,161.69,280.54,163.1z M277.47,153.53c0-0.93-0.2-1.86-0.56-2.71c-0.36-0.82-0.86-1.56-1.48-2.2
		c-0.62-0.64-1.37-1.15-2.2-1.48c-0.85-0.39-1.78-0.58-2.71-0.56h-9.62v19.29h9.67c0.94,0.02,1.86-0.17,2.71-0.56
		c0.83-0.34,1.58-0.84,2.2-1.48c0.64-0.63,1.14-1.37,1.48-2.2c0.37-0.86,0.56-1.78,0.56-2.71L277.47,153.53z"/>
	<path class="st3" d="M316.62,186.28v-43.45h24.46v3.74h-20.47v16.12h16.63v3.74h-16.68v16.12h20.47v3.74L316.62,186.28z"/>
	<path class="st3" d="M386.88,146.57v39.71h-3.89v-39.71h-10.24v-3.74h24.62v3.74H386.88z"/>
	<path class="st3" d="M473.32,186.28v-43.45h3.94v43.45H473.32z"/>
	<path class="st3" d="M537.23,186.28l-18.01-31.42l-0.36-1.89v33.52h-3.89v-43.65h2.05l18.12,31.68l0.36,1.84v-33.52h3.94v43.45
		H537.23z"/>
	<path class="st3" d="M601,176.25c0,1.43-0.31,2.85-0.92,4.15c-0.59,1.26-1.4,2.41-2.41,3.38c-1,0.99-2.18,1.77-3.48,2.3
		c-1.33,0.56-2.76,0.83-4.2,0.82h-3.12c-1.44,0.02-2.87-0.26-4.2-0.82c-1.29-0.55-2.47-1.33-3.48-2.3c-0.99-0.98-1.8-2.12-2.41-3.38
		c-0.57-1.31-0.86-2.72-0.87-4.15v-1.74l3.89-0.67v2.41c0,0.94,0.21,1.87,0.61,2.71c0.4,0.82,0.94,1.56,1.59,2.2
		c0.67,0.63,1.45,1.13,2.3,1.48c0.88,0.37,1.81,0.56,2.76,0.56h2.76c0.95,0,1.89-0.2,2.76-0.56c0.85-0.35,1.63-0.86,2.3-1.48
		c0.65-0.64,1.18-1.38,1.59-2.2c0.37-0.86,0.56-1.78,0.56-2.71v-1.33c0.03-1.3-0.27-2.59-0.87-3.74c-0.59-1-1.39-1.86-2.35-2.51
		c-1.01-0.73-2.11-1.33-3.28-1.79l-3.79-1.43c-1.28-0.51-2.51-1.02-3.74-1.64c-1.21-0.53-2.32-1.28-3.28-2.2
		c-1.01-0.89-1.81-1.99-2.35-3.22c-0.64-1.47-0.94-3.06-0.87-4.66v-0.82c-0.02-1.42,0.26-2.84,0.82-4.15
		c0.54-1.28,1.32-2.45,2.3-3.43c0.96-0.97,2.11-1.73,3.38-2.25c1.33-0.57,2.75-0.87,4.2-0.87H590c1.43,0,2.84,0.29,4.15,0.87
		c1.29,0.5,2.46,1.27,3.43,2.25c0.97,0.98,1.73,2.15,2.25,3.43c0.58,1.31,0.87,2.72,0.87,4.15v1.13l-3.94,0.61v-1.74
		c0.02-0.93-0.16-1.85-0.51-2.71c-0.36-0.82-0.86-1.56-1.48-2.2c-0.64-0.61-1.39-1.12-2.2-1.48c-0.86-0.37-1.78-0.56-2.71-0.56
		h-2.46c-0.93,0-1.86,0.2-2.71,0.56c-0.81,0.37-1.56,0.87-2.2,1.48c-0.64,0.63-1.14,1.37-1.48,2.2c-0.37,0.86-0.56,1.78-0.56,2.71
		v0.82c-0.04,1.22,0.26,2.42,0.87,3.48c0.61,0.97,1.41,1.81,2.35,2.46c1.02,0.71,2.12,1.29,3.28,1.74l3.79,1.54
		c1.28,0.51,2.56,1.07,3.79,1.69c1.18,0.61,2.28,1.37,3.28,2.25c0.99,0.93,1.78,2.07,2.3,3.33c0.65,1.48,0.97,3.09,0.92,4.71
		L601,176.25z"/>
	<path class="st3" d="M660.06,180.44c-1.11,2.54-3.14,4.57-5.68,5.68c-1.31,0.56-2.72,0.84-4.15,0.82h-3.12
		c-1.42,0.02-2.84-0.26-4.15-0.82c-1.28-0.54-2.45-1.32-3.43-2.3c-0.97-0.96-1.73-2.11-2.25-3.38c-0.57-1.31-0.86-2.72-0.87-4.15
		v-33.47h3.94v33.42c-0.01,0.93,0.16,1.85,0.51,2.71c0.37,0.82,0.89,1.57,1.54,2.2c0.64,0.63,1.38,1.13,2.2,1.48
		c0.86,0.37,1.78,0.56,2.71,0.56h2.71c0.93,0,1.86-0.19,2.71-0.56c0.83-0.34,1.57-0.85,2.2-1.48c0.61-0.64,1.12-1.39,1.48-2.2
		c0.37-0.86,0.56-1.78,0.56-2.71v-33.42h3.89v33.42C660.89,177.69,660.61,179.12,660.06,180.44z"/>
	<path class="st3" d="M718.55,186.28l-11.82-18.53h-5.12v18.53h-3.94v-43.45h13.56c2.83-0.04,5.56,1.09,7.52,3.12
		c0.98,0.98,1.77,2.15,2.3,3.43c0.56,1.31,0.84,2.72,0.82,4.15v3.53c0.02,1.42-0.26,2.84-0.82,4.15c-0.54,1.28-1.32,2.45-2.3,3.43
		c-0.96,0.97-2.11,1.73-3.38,2.25c-1.31,0.58-2.72,0.87-4.15,0.87L723,186.28L718.55,186.28z M718.04,153.53
		c0-0.93-0.2-1.86-0.56-2.71c-0.36-0.82-0.86-1.56-1.48-2.2c-1.35-1.35-3.2-2.09-5.12-2.05h-9.67v17.45h10.03
		c0.93,0,1.86-0.19,2.71-0.56c0.83-0.34,1.57-0.85,2.2-1.48c0.63-0.64,1.13-1.38,1.48-2.2c0.37-0.86,0.56-1.78,0.56-2.71
		L718.04,153.53z"/>
	<path class="st3" d="M774.59,176.15h-13.71L758,186.38h-4.04l12.69-43.45h2.1l12.74,43.45h-3.74L774.59,176.15z M761.89,172.46
		h11.67l-5.73-20.06v-1.59v1.59L761.89,172.46z"/>
	<path class="st3" d="M837.28,186.28l-18.12-31.42l-0.36-1.89v33.52h-3.89v-43.65h2l18.12,31.68l0.41,1.84v-33.52h3.74v43.45H837.28
		z"/>
	<path class="st3" d="M900.07,180.44c-1.11,2.54-3.14,4.57-5.68,5.68c-1.31,0.56-2.72,0.84-4.15,0.82h-3.12
		c-1.42,0.02-2.84-0.26-4.15-0.82c-1.28-0.55-2.44-1.33-3.43-2.3c-0.96-0.97-1.72-2.12-2.25-3.38c-0.57-1.31-0.86-2.72-0.87-4.15
		v-23.39c0-1.43,0.29-2.84,0.87-4.15c0.52-1.28,1.28-2.45,2.25-3.43c0.98-0.97,2.15-1.74,3.43-2.25c1.31-0.58,2.72-0.87,4.15-0.87
		h3.22c1.43,0,2.84,0.29,4.15,0.87c1.26,0.52,2.41,1.28,3.38,2.25c0.98,0.98,1.77,2.15,2.3,3.43c0.56,1.31,0.84,2.72,0.82,4.15v1.94
		l-3.89,0.61v-2.35c0-0.93-0.19-1.86-0.56-2.71c-0.7-1.66-2.03-2.98-3.68-3.68c-0.86-0.37-1.78-0.56-2.71-0.56h-2.71
		c-0.93,0-1.86,0.19-2.71,0.56c-0.82,0.36-1.56,0.86-2.2,1.48c-1.41,1.32-2.16,3.19-2.05,5.12v23.34c-0.01,0.93,0.16,1.85,0.51,2.71
		c0.39,0.81,0.91,1.56,1.54,2.2c0.64,0.63,1.38,1.13,2.2,1.48c0.86,0.37,1.78,0.56,2.71,0.56h2.71c0.93,0,1.86-0.19,2.71-0.56
		c0.83-0.34,1.57-0.85,2.2-1.48c0.61-0.64,1.12-1.39,1.48-2.2c0.37-0.86,0.56-1.78,0.56-2.71v-2.41l3.89,0.67v1.74
		C900.92,177.97,900.61,179.25,900.07,180.44z"/>
	<path class="st3" d="M937.37,186.28v-43.45h24.62v3.74h-20.47v16.12h16.63v3.74h-16.63v16.12h20.47v3.74L937.37,186.28z"/>
	<path class="st5" d="M356.64,5.17h-26.71c-4.44,0-8.03,3.6-8.03,8.03v88.84c0,4.89,3.96,8.85,8.85,8.85l0,0l0,0
		c4.88-0.03,8.83-3.98,8.85-8.85V69.65h2.66c-0.03,0.32-0.03,0.65,0,0.97l12.49,34.9c1.21,3.12,4.23,5.15,7.57,5.12h2.71
		c4.44,0.01,8.04-3.59,8.05-8.02c0-0.93-0.16-1.85-0.47-2.72l-11.16-31.11c8.12-2.25,13.75-9.64,13.77-18.06V23.9
		C375.21,13.61,366.92,5.25,356.64,5.17z M339.6,49.95V25.08c0-1.48,1.18-2.68,2.66-2.71h10.24c4.44,0,8.03,3.6,8.03,8.03
		c0,0.02,0,0.03,0,0.05v14.18c-0.08,4.38-3.66,7.88-8.03,7.88h-10.24C340.84,52.48,339.68,51.37,339.6,49.95z"/>
	<path class="st5" d="M431.3,5.17h-1.54c-4.44,0-8.03,3.6-8.03,8.03v74.61c0.14,2.82-2.03,5.23-4.86,5.37
		c-0.09,0-0.17,0.01-0.26,0.01h-7.32c-2.83,0-5.12-2.28-5.12-5.11c0-0.09,0-0.17,0.01-0.26V13.2c0-4.44-3.6-8.03-8.03-8.03h-1.69
		c-4.44,0-8.03,3.6-8.03,8.03v81.57c0,8.88,7.19,16.09,16.07,16.12h20.78c8.87,0,16.07-7.19,16.07-16.07c0-0.02,0-0.03,0-0.05V13.2
		C439.34,8.77,435.74,5.17,431.3,5.17z"/>
	<path class="st5" d="M485.7,5.17h-26.15c-4.44,0-8.03,3.6-8.03,8.03v89.61c0,4.45,3.59,8.06,8.03,8.09h26.15
		c10.36-0.03,18.75-8.42,18.78-18.78V23.9C504.45,13.55,496.05,5.17,485.7,5.17z M486.78,85.1c0.14,4.46-3.36,8.2-7.83,8.34
		c-0.09,0-0.17,0-0.26,0h-6.76c-1.5,0-2.71-1.21-2.71-2.71v-65.2c0-1.47,1.19-2.66,2.66-2.66c0.02,0,0.03,0,0.05,0h6.76
		c4.44-0.03,8.06,3.55,8.09,7.98c0,0.02,0,0.03,0,0.05V85.1z"/>
	<path class="st5" d="M629.66,5.17h-1.64c-4.44,0-8.03,3.6-8.03,8.03c0,0,0,0,0,0v53.43l-20.83-56.29
		c-1.23-3.11-4.23-5.14-7.57-5.12h-5.42c-4.4,0.03-7.96,3.59-7.98,7.98v89.61c-0.03,4.44,3.55,8.06,7.98,8.09c0.02,0,0.03,0,0.05,0
		h1.64c4.44,0,8.03-3.6,8.03-8.03c0-0.02,0-0.03,0-0.05V49.23l20.93,56.29c1.2,3.11,4.19,5.15,7.52,5.12h5.37
		c4.44,0,8.03-3.6,8.03-8.03c0-0.02,0-0.03,0-0.05V13.2c0-4.44-3.6-8.03-8.03-8.03C629.69,5.17,629.67,5.17,629.66,5.17z"/>
	<path class="st5" d="M559.7,5.17h-34.54c-4.44,0-8.03,3.6-8.03,8.03v89.61c0,4.45,3.59,8.06,8.03,8.09h34.54
		c4.46,0.08,8.15-3.47,8.24-7.93c0-0.05,0-0.1,0-0.15v-1.59c-0.14-4.42-3.82-7.89-8.24-7.78h-22.16c-1.5,0-2.71-1.21-2.71-2.71
		V68.73c0-1.5,1.21-2.71,2.71-2.71h13.71c4.44,0,8.03-3.6,8.03-8.03v-1.64c0-4.44-3.6-8.03-8.03-8.03h-13.71
		c-1.47,0.03-2.68-1.14-2.71-2.61c0-0.02,0-0.03,0-0.05V25.54c0-1.47,1.19-2.66,2.66-2.66c0.02,0,0.03,0,0.05,0h22.16
		c4.46,0.08,8.15-3.47,8.24-7.93c0-0.03,0-0.07,0-0.1V13.2c0-4.44-3.59-8.04-8.03-8.04C559.84,5.17,559.77,5.17,559.7,5.17z"/>
	<path class="st5" d="M693.68,5.17h-39.56c-4.44,0-8.03,3.6-8.03,8.03c0,0,0,0,0,0v1.64c0.03,4.43,3.61,8.01,8.03,8.03h11.05v79.94
		c-0.03,4.44,3.55,8.06,7.98,8.09c0.02,0,0.03,0,0.05,0h1.64c4.45-0.03,8.03-3.64,8.03-8.09V22.88h10.9c4.44,0,8.03-3.6,8.03-8.03
		c0,0,0,0,0,0V13.2c0-4.44-3.6-8.03-8.03-8.04C693.75,5.17,693.71,5.17,693.68,5.17z"/>
	<path class="st5" d="M291.85,5.17h-26.71c-4.44,0-8.03,3.6-8.03,8.03v88.84c0,4.89,3.96,8.85,8.85,8.85c0.02,0,0.03,0,0.05,0l0,0
		c4.88-0.03,8.83-3.98,8.85-8.85V69.65h17.04c10.35,0,18.75-8.38,18.78-18.73V23.9C310.65,13.53,302.22,5.14,291.85,5.17
		C291.85,5.17,291.85,5.17,291.85,5.17z M295.64,44.57c-0.08,4.39-3.65,7.91-8.03,7.93h-10.24c-1.47,0-2.66-1.19-2.66-2.66
		c0-0.02,0-0.03,0-0.05V25.08c-0.03-1.47,1.14-2.68,2.61-2.71c0.02,0,0.03,0,0.05,0h10.24c4.45,0.03,8.03,3.64,8.03,8.09V44.57z"/>
	<path class="st5" d="M870.64,0H836.1c-5.92,0.03-10.7,4.83-10.7,10.75v89.61c0,5.92,4.78,10.72,10.7,10.75h34.54
		c5.92-0.03,10.7-4.83,10.7-10.75v-1.79c-0.03-5.9-4.8-10.67-10.7-10.7h-22.16V66.22h13.71c5.9-0.03,10.67-4.8,10.7-10.7v-1.64
		c0-5.92-4.78-10.72-10.7-10.75h-13.71V23.08h22.16c5.92-0.03,10.7-4.83,10.7-10.75v-1.59C881.34,4.83,876.56,0.03,870.64,0z"/>
	<path class="st5" d="M951.19,0h-39.51c-5.94,0-10.75,4.81-10.75,10.75c0,0,0,0,0,0v1.59c0,5.94,4.81,10.75,10.75,10.75l0,0h8.19
		v77.27c0,5.94,4.81,10.75,10.75,10.75l0,0h1.64c5.92-0.03,10.7-4.83,10.7-10.75V23.08h8.24c5.92-0.03,10.7-4.83,10.7-10.75v-1.59
		C961.89,4.83,957.11,0.03,951.19,0z"/>
	<path class="st5" d="M782.42,0H755.7c-5.94,0-10.75,4.81-10.75,10.75c0,0,0,0,0,0v88.79c-0.42,6.37,4.4,11.88,10.77,12.31
		c6.37,0.42,11.88-4.4,12.31-10.77c0.03-0.51,0.03-1.03,0-1.54V69.85h14.38c11.84,0,21.44-9.6,21.44-21.44v0V21.44
		C803.83,9.61,794.25,0.03,782.42,0z M783.49,27.94v14.33c0,2.83-2.28,5.12-5.11,5.12c-0.09,0-0.17,0-0.26-0.01h-10.24V22.62h10.24
		c2.82-0.14,5.23,2.03,5.37,4.85C783.5,27.63,783.5,27.78,783.49,27.94L783.49,27.94z"/>
	<rect x="256.9" y="125.17" class="st6" width="705.09" height="2.66"/>
</g>
</svg>
