<?xml version="1.0" encoding="UTF-8"?><svg id="Layer_2" xmlns="http://www.w3.org/2000/svg" viewBox="0 0 300 300"><defs><style>.cls-1{fill:none;}.cls-2{fill:#0576b4;}.cls-3{fill:#1ca3dd;}.cls-4{fill:#8fc853;}</style></defs><g id="Layer_1-2"><path d="M98.85,159.78c.92.2,1.02-.27,1.46-.85,1.23-1.62,4.88-10.24,5.76-10.77l5.69-.25,1.03,26.35h-5.69c-.48-4.88-.24-9.85-.51-14.73-.03-.59.37-2.29-.77-1.81l-4.34,8.98c-5.73,2.37-5.94-6.3-9.35-8.98l-.52,16.53h-5.69s1.03-26.35,1.03-26.35l5.69.25,6.2,11.63Z"/><path d="M214.03,166.5h-12.91c-.4,4.98,7.24,4.3,10.08,2.11l2.25,3.32c-5.17,5.13-16.8,3.36-17.97-4.7-2.24-15.44,19.64-16.62,18.55-.73ZM208.35,162.88c-.63-4.83-6.42-4.25-7.75,0h7.75Z"/><path d="M133.97,166.5h-12.91c-.06,4.94,7.14,4.31,10.08,2.13l2.21,3.3c-5.43,5.28-16.49,3.21-17.85-4.78-2.59-15.21,19.9-16.5,18.47-.65ZM121.06,162.88h7.75c-.86-4.36-7.26-4.75-7.75,0Z"/><path d="M159.28,169.08h10.85v5.17h-17.05v-26.34c1.99.27,4.7-.74,6.2.77v20.4Z"/><path d="M184.07,160.3h-2.59s0-4.65,0-4.65l2.57-.02c-.23-6.51,6.07-10.31,11.9-7.47,2.97,1.45.52,2.39-.82,4.31-3.24-.99-5.6-.79-5.38,3.18h4.65s0,4.65,0,4.65h-4.65s0,13.94,0,13.94c-1.85-.23-4.32.7-5.68-.77v-13.17Z"/><path d="M138.1,160.3l-2.59-.3v-4.35s2.59,0,2.59,0v-4.65s5.38,0,5.38,0l.29,4.66h4.65s0,4.65,0,4.65h-4.65s0,8,0,8c0,2.92,4.29,1.05,5.16,1.52.74.39,1.31,1.99,2.01,2.62-2.85,3.25-9.48,3.37-11.75-.59-.21-.36-1.1-2.84-1.1-3.03v-8.52Z"/><rect x="172.71" y="155.65" width="5.68" height="18.6"/><circle cx="175.66" cy="150.42" r="3.2"/><path class="cls-2" d="M149.62,48.01c-.93,1.12-1.83,2.24-2.7,3.38-22.85,29.9-22.53,65.65-21.05,82.76,13.66.25,27.32.5,40.98.75,2.35-.04,4.7-.09,7.05-.13,1.48-17.12,1.8-52.86-21.05-82.76-1.03-1.35-2.11-2.68-3.22-4Z"/><path class="cls-3" d="M126.2,132.7h-.02c-2.65-42.81,10.41-67.74,20.74-81.3.88-1.16,1.78-2.28,2.7-3.38C115.1,18.26,94.63,5.97,88.18,11.15c-1.3,1.05-2.03,2.8-2.19,5.28v110.9c0,4.12,3.34,7.46,7.46,7.46,10.91-.2,21.83-.4,32.74-.6v-1.49Z"/><path class="cls-4" d="M211.82,11.74c-5.73-4.93-20.13,2.71-26.76,6.27-9.11,4.89-22.34,13.69-35.51,29.75,1.1,1.29,2.18,2.62,3.22,4,19.29,25.31,22.73,56.49,21.06,82.64v.38c10.9.2,21.81.4,32.71.6,4.12,0,7.46-3.34,7.46-7.46V17.01c-.13-1.84-.62-3.93-2.19-5.28Z"/><rect class="cls-1" width="300" height="300"/></g></svg>