<?xml version="1.0" encoding="UTF-8"?><svg id="Layer_2" xmlns="http://www.w3.org/2000/svg" viewBox="0 0 300 300"><defs><style>.cls-1{fill:none;}.cls-2{fill:#f68622;}</style></defs><g id="Layer_1-2"><path class="cls-2" d="M278,77.48l-17.91-.02-2.99-9.24-22.73-.1-3.66,9.36h-18.04l.85-2.35c-10.41,4.69-23.14,4.18-32.95-1.75-6.88-4.15-11.85-10.51-14.64-18.03l.19-.38c11.26-7.06,13.73-23.43,7.58-34.69,8.79-9.38,22.52-12.3,34.79-8.94,10.28,2.81,18.63,10.83,22.44,20.69l8.04-20.25h13.39s25.66,64.42,25.66,64.42v1.28ZM214.37,36.08c-5.81-15.89-27.04-15.06-32.3,1.11-3.99,12.26,3.69,27.06,17.69,26.21,6.86-.41,11.95-5.01,14.65-11.07l8.48-.06,6.22-16.19h-14.73ZM238.93,54.65h13.66l-6.94-22.41-6.73,22.41Z"/><polygon points="278 169.67 255.37 169.67 255.37 139.8 277.57 139.8 277.57 145.34 261.77 145.34 261.77 151.43 262.09 151.75 276.29 151.75 276.29 156.87 261.77 156.87 261.77 163.8 262.51 164.14 278 164.12 278 169.67"/><path class="cls-2" d="M122.35,30.53h-13.88c0-2.16-1-5.07-3.12-5.95-6.59-2.75-12.52,5.35-5.14,9.83s16.38,6,22.02,12.77v22.82c-4.95,6.99-14.12,8.61-22.21,8.13-4.57-.27-9.91-1.75-13.44-4.7-.01,1.2.81,2.47,1.18,3.63h-18.04l-3.44-9.62-22.58.04-3.55,9.57h-18.15L48.3,11.36h13.39s17.36,43.89,17.36,43.89l16.83.03c-.14,4.06,2.01,8.66,6.52,8.96,4.8.32,8.51-5.19,5.98-9.4-1.83-3.05-11.09-6-14.56-7.64-8.56-4.04-15.04-10.28-13.49-20.6,2.77-18.46,32.66-22.39,42.03-7.07v10.99ZM48.26,54.01h13.66l-6.73-22.41-6.94,22.41Z"/><path class="cls-2" d="M141.14,56.36v20.7h-16.23V11.11h24.24c3.93.36,7.83.38,11.63,1.6,17.32,5.57,18.21,33.09,2.42,41.05-6.79,3.42-14.7,2.44-22.07,2.59ZM141.14,41.63h9.71c8.32,0,10.5-11.82,3.36-14.67-.67-.27-2.97-.91-3.58-.91h-9.5v15.58Z"/><polygon points="197.51 139.8 209.89 159.64 209.89 139.8 216.08 139.8 216.08 169.35 215.76 169.67 209.57 169.67 197.34 150.11 196.87 149.83 196.87 169.67 190.99 169.67 190.67 169.35 190.67 139.8 197.51 139.8"/><polygon points="43.14 139.8 55.52 159.64 55.52 139.8 61.71 139.8 61.71 169.67 55.2 169.67 42.71 149.83 42.71 169.35 42.39 169.67 36.52 169.67 36.52 139.8 43.14 139.8"/><path d="M147.22,139.8c.86.11,2.61.85,3.38,1.32,5.13,3.15,4.88,12.07-.92,14.37,5.94,2.32,3.18,9.58,5.34,14.19h-6.3c-1.71-2.91-.05-8.72-2.99-10.88-.35-.26-1.57-.86-1.92-.86h-7.79v11.42l-.32.32h-6.3v-29.88h17.83ZM136.02,153.24h8.43c.16,0,1.31-.46,1.54-.6,2.28-1.3,2.29-5.82.05-7.18-.14-.08-1.3-.55-1.37-.55h-8.65v8.32Z"/><path d="M90.96,148.76h-6.41c.1-1.23-.41-2.63-1.39-3.41-1.52-1.21-4.49-1.49-6.31-.97-2.65.76-3.92,4.12-1.07,5.56,5.37,2.72,15.81,1.6,16.23,10.24.46,9.38-9.21,10.42-16.33,9.7-4.99-.5-9.29-5.14-8.86-10.24h6.41c-.97,5.96,9.84,7.36,12,3.35,2.42-4.48-5.18-5.41-7.78-6.19-4.01-1.21-9.06-2.52-9.56-7.52-.87-8.71,8.18-11.33,15.2-9.86,4.64.97,8.08,4.41,7.85,9.33Z"/><polygon points="259.42 93.49 259.42 104.8 271.17 104.8 271.17 93.49 277.57 93.49 277.57 122.72 271.17 122.72 271.17 110.13 259.42 110.13 259.42 122.72 253.02 122.72 253.02 93.49 259.42 93.49"/><polygon points="123.2 93.49 123.2 104.8 134.95 104.8 134.95 93.49 141.35 93.49 141.35 122.72 134.95 122.72 134.95 110.13 123.2 110.13 123.2 122.72 116.8 122.72 116.8 93.49 123.2 93.49"/><path d="M103.56,139.8v19.95c0,.49.52,2.12.81,2.61,1.99,3.37,9.48,3.49,10.97-.43.13-.33.6-1.95.6-2.17v-19.95h6.62c-.28,6.2.38,12.73,0,18.9-.29,4.89-2,8.89-6.84,10.66-2.51.92-9.95.85-12.44-.15-3.75-1.52-6.35-5.35-6.35-9.45v-19.95h6.62Z"/><polygon points="169.96 93.49 169.96 99.04 154.59 99.04 154.59 105.22 168.9 105.22 168.9 110.13 154.91 110.13 154.59 110.45 154.59 117.07 154.91 117.39 170.39 117.39 170.39 122.72 148.19 122.72 148.19 93.81 148.51 93.49 169.96 93.49"/><polygon points="72.18 93.49 72.18 99.04 56.8 99.04 56.8 105.22 70.89 105.22 70.89 110.13 56.8 110.13 56.8 117.39 72.39 117.39 72.39 122.72 50.4 122.72 50.4 93.49 72.18 93.49"/><path d="M249.39,149.83h-6.41c-1.04-5.1-7.36-6.87-11.32-3.74-5.27,4.16-4.49,17.53,3.16,18.62,4.84.7,7.71-1.88,8.38-6.56h6.41c-.45,4.55-2.7,8.87-6.97,10.85-2.6,1.21-9.15,1.32-11.82.35-12.52-4.57-11.98-25.65.68-29.61,7.86-2.46,16.9,1.31,17.89,10.09Z"/><path d="M186.83,169.67h-6.83l-2.17-6.58h-11.26s-2.16,6.58-2.16,6.58h-6.62l11.41-29.89,6.63.23,10.99,29.66ZM168.47,158.15h7.47l-3.73-10.88-3.74,10.88Z"/><path d="M201.35,122.72h-6.51l-2.45-6.51h-10.69s-2.34,6.51-2.34,6.51h-6.41l11.2-29.25,6.42.22,10.78,29.03ZM190.89,111.41l-3.74-10.67-3.74,10.67h7.47Z"/><path d="M28.41,112.27v10.46h-6.41v-29.24h14.2c7.12,0,10.83,7.7,8.05,13.81-1.17,2.56-4.79,4.97-7.62,4.97h-8.22ZM28.41,107.36h5.44c.25,0,1.65-.27,2-.35,3.71-.89,4.19-6.17,1.21-7.77-.27-.14-1.53-.63-1.71-.63h-6.94v8.75Z"/><polygon points="90.96 99.04 90.96 122.72 84.56 122.72 84.56 99.04 75.8 99.04 75.8 93.49 99.4 93.49 99.72 93.81 99.72 98.72 99.4 99.04 90.96 99.04"/><polygon points="248.32 93.49 248.32 99.04 239.57 99.04 239.57 122.72 233.16 122.72 233.16 99.04 224.73 99.04 224.41 98.72 224.41 93.81 224.73 93.49 248.32 93.49"/><polygon points="211.6 117.39 225.69 117.39 225.69 122.72 205.19 122.72 205.19 93.49 211.28 93.49 211.6 93.81 211.6 117.39"/><rect x="22.85" y="139.8" width="6.62" height="29.88"/><path class="cls-2" d="M271.52,18.94c-3.76,3.68-9.39-2.05-5.92-5.81,3.8-4.11,9.81,2,5.92,5.81ZM267.69,12.66c-3.54.74-3.07,7.49,1.61,6.73,3.9-.63,3.24-7.73-1.61-6.73Z"/><path class="cls-2" d="M267.11,13.67c1.31.07,3.1-.52,3.17,1.34l-.82.9,1.07,2.45-1.05-.02c-.19-1.16-.26-2.14-1.73-1.9v1.92s-.64,0-.64,0v-4.69ZM267.75,15.81c1.44.41,2.57-1.34.91-1.67-1.19-.24-.9.81-.91,1.67Z"/><rect class="cls-1" width="300" height="300"/></g></svg>