<?xml version="1.0" encoding="UTF-8"?><svg id="Layer_2" xmlns="http://www.w3.org/2000/svg" viewBox="0 0 300 300"><defs><style>.cls-1{fill:none;}</style></defs><g id="Layer_1-2"><path d="M22,41.14c.24-.24.28-.64.52-.86.72-.67,4.71-1.12,6.15-1.74,3.83-1.66,2.76-4.14,3.15-7.51,1.24-10.75,7.72-18.02,18.34-20.25,6.44-1.35,18.15-1.46,22.61,4.27,3.18,4.08,1.82,11.25-3.61,12.58s-9.39-.5-11.42-5.45c-.79-1.92-1.53-7.28-3.86-7.66-3.88-.63-4.39,3.08-4.58,6.05-.24,3.83-.36,10.56,0,14.3.27,2.79,3.39,2.95,5.65,3.09,1.94.12,7.21-.44,8.54.42,1.45.94,1.67,2.94.71,4.34-1.35,1.96-4.36,1-6.25.98-2.91-.03-8.11-.49-8.63,3.33.53,10.64-.77,22.05-.03,32.6.25,3.57,1.88,5.22,5.34,5.97,1.38.3,3.32.06,4.28,1.05,1.26,1.29.92,3.03-.64,3.86l-33.66-.07c-1-.57-1.24-1.39-1.13-2.51.22-2.19,2.21-1.91,3.8-2.39,2.59-.77,4-2.35,4.29-5.09-.68-10.84.99-22.97.03-33.66-.42-4.69-5.24-2.47-8.18-3.13-.67-.15-1-.77-1.43-1.23v-1.28Z"/><path d="M193.94,134.92c-3.37-1.27-5.11-4.56-3.88-8.03,2.05-5.78,10.19-4.04,14.77-5.95,1.27-6.84-10.18-7.31-10.89-1.15l-3.53-.63c.73-5.73,6.58-7.04,11.5-6.59,8.56.79,6.32,7.43,6.52,13.73.02.5.21.97.23,1.47.11,2.39-.36,4.79,1.06,6.94h-4.05l-.75-2.55c-1.25,1.34-2.94,2.06-4.59,2.77h-6.4ZM204.82,123.84c-2.55,1.61-10.31.69-11.04,4.2-1.17,5.61,7.75,5.49,10.23,1.27.23-.4.81-2.02.81-2.39v-3.09Z"/><path d="M56.56,134.92c-7-2.02-8.5-11.09-5.8-16.99,3.24-7.06,14.22-7.31,17.64-.28.38.77,1.18,3.17,1.18,3.94v3.3h-16.21c-.04,7.57,9.56,10.48,12.36,2.87l3.64.33c-.3,3.31-3.01,5.66-5.97,6.82h-6.83ZM65.73,121.71c-.48-8.3-11.5-8.09-12.16,0h12.16Z"/><path d="M264.33,134.92c-5.87-2.06-7.33-7.34-6.82-13.1.42-4.81,4.14-8.92,9.06-9.28,7.42-.54,11.63,5.46,10.78,12.37h-16c-.46,7.62,9.71,10.46,12.17,2.77l3.74.63c-.55,3.17-3.16,5.57-6.09,6.61h-6.83ZM273.51,121.71c-.23-8.26-11.69-8.11-11.95,0h11.95Z"/><path d="M136.77,134.92c-1.6-.58-2.99-1.29-4.05-2.67-.49-.63-2.08-3.53-1.3-4.06l3.42-.52c.09,4.23,5.1,5.4,8.4,4.03,2.08-.87,3.04-3.78.85-5.06-3.32-1.93-10.28-1.2-11.97-5.73-3.68-9.85,15.78-11.69,16.17-2.19l-3.63.43c.08-4.14-7.12-4.68-8.96-2.03-1.68,2.43,1.27,3.43,3.04,4,4.38,1.41,10.81,1.57,10.41,7.73-.2,3.11-2.63,5.04-5.34,6.07h-7.04Z"/><path d="M158.1,134.92c-2.22-.86-4.07-2.62-4.42-5.06-.53-3.65-.71-12.52-.28-16.15.04-.31.03-.55.33-.74h3.2c.3.19.29.42.33.74.47,4.04-.92,12.74.41,16,1.47,3.62,7.19,2.68,8.94-.25.32-.54.88-2.6.88-3.17v-13.32h3.63v21.74h-3.2v-2.98c-1.42,1.22-2.41,2.56-4.27,3.2h-5.55Z"/><path d="M243.21,134.92c-6.79-2.14-8-11.01-5.65-16.83,3.16-7.83,16.06-7.53,17.6,1.27l-3.62.64c-1.01-5.66-8.27-5.92-10.41-.91-1.15,2.71-1.17,7.67.28,10.27,2.74,4.89,10.29,3.12,10.33-2.54l3.62.43c-.14,3.59-2.77,6.37-5.97,7.67h-6.19Z"/><path d="M77.89,134.92c-1.28-.41-2.99-1.85-2.99-3.3v-15.67h-2.77v-2.98h2.77v-5.22l3.63-2.24v7.46h3.63v2.98h-3.63v14.39c0,.19.72,1.05,1,1.13.66.19,2.44-.2,2.74.24l.48,2.73-.6.48h-4.27Z"/><path d="M265.9,81.35c1.55,1.5,4.72.65,6.31-.48,1.43-1.02,3.2-4.07,5.2-2.66,1.84,1.29-1.12,6.31-2.11,7.67-2.62,3.59-6.7,5.26-11.08,5.56-25.6,1.76-13.39-22.5-17.54-37.46-3.35-12.07-17.7-9.44-18.62,3.46-.55,7.61.21,16.18.28,23.82.48,2.13,1.49,3.36,3.51,4.17,1.07.43,2.14.29,2.92,1.34,1.01,1.35.54,2.78-.79,3.66l-29.61.07c-1.36-.63-1.75-2.33-1.03-3.61s2.91-1.16,4.17-1.8c2.61-1.32,2.92-4.77,3.06-7.39.88-16.48-.68-33.74-.01-50.31-.24-2.25-.57-4.82-2.99-5.75-1.57-.61-4.03-.11-4.43-2.4-.43-2.47,1.46-2.78,3.32-3.18,5.55-1.2,11.46-1.72,17.06-2.78,3.05.04,4.31,1.6,4.54,4.52.59,7.46-.79,16.14,0,23.45.13,1.25.94,3.02,2.43,2.87,1.17-.12,3.06-2.99,4.18-3.94,6.39-5.41,19.57-6.4,25.61,0,7.6,8.05,3.72,28.21,4.68,38.81.07.75.39,1.84.93,2.37Z"/><path d="M89.58,36.3c11.13-.54,25.26,5.01,23.91,18.35-1.25,12.35-21.76,9.62-30.32,11.27-3.67,1.07-2.15,6.87-.6,9.22,4.73,7.13,16.44,8.75,23.83,5.26,2.14-1.01,4.62-4.17,6.88-2.9,2.43,1.37.99,3.84-.41,5.31-5.9,6.19-16.72,9.11-25.07,8.64-36.4-2.05-36.18-53.31,1.78-55.15ZM88.71,41.83c-3.81.59-6.3,4.51-7.18,7.96-.72,2.83-1.77,10.46,2.1,11.29,1.29.27,5.2-.33,6.7-.57,5.91-.96,8.9-2.09,8.47-8.82-.37-5.77-3.64-10.85-10.09-9.85Z"/><path d="M198.13,78.15c.17-.15.25-.45.51-.66,2.22-1.74,5,.5,3.5,3.28-3.26,6-13.28,10.23-19.83,10.67-20.34,1.36-35.25-13.55-30.94-34.11,3.67-17.46,24.6-25.12,40.28-19.13,6.62,2.53,13.1,8.89,11.37,16.59-1.15,5.14-6.67,7.03-11.26,5.05-8.42-3.64-1.6-17.28-10.93-18.07-14.1-1.18-12.48,20.67-8.68,29.14,4.6,10.27,16.82,15.19,25.99,7.24Z"/><path d="M112.51,39.29c.44-.48,5.1-1.84,6.26-2.37,3.97-1.83,7.05-4.61,9.63-8.07,1.5-2,2.23-4.74,5.05-4.98,2.16-.18,4.77-.23,5.03,2.45.2,2.05-.47,8,.23,9.36.12.24.6.71.84.87,2.22,1.45,7.94.45,10.74.78,4.06.48,3.84,5.83.03,6.17-1.17.1-2.16-.21-3.2-.23-3.21-.06-8.45-.92-8.66,3.52.51,9.84-.65,20.31,0,30.07.36,5.41,2.12,8.2,7.94,7.07,1.8-.35,4.54-2.15,5.81.08,1.86,3.29-4.82,5.83-7.13,6.48-11.3,3.2-23.15-1.21-24.1-14.07-.69-9.37.66-19.61,0-28.99-.19-2.8-.47-4.28-3.53-4.57-1.13-.11-3.5.25-4.37-.11-1.16-.49-1.42-2.54-.58-3.45Z"/><path d="M27.33,122.56v12.15h-4.05v-29.84h15.25c2.25,0,5.18,1.79,6.33,3.69,3.67,6.04-.35,14-7.61,14h-9.92ZM27.33,118.94h10.13c.68,0,2.78-1.04,3.3-1.6,2.24-2.4,1.61-7.37-1.64-8.59-.3-.11-1.66-.47-1.88-.47h-9.92v10.66Z"/><path d="M231.91,134.71h-3.63v-15.03c0-.1-.31-1.12-.38-1.32-1.48-4.09-7.99-3.15-9.38.73-.1.27-.47,1.5-.47,1.66v13.96h-3.84v-21.42l.32-.32h3.09v2.98l1.6-1.7c3.21-2.71,10.21-2.32,12.02,1.83.12.26.66,1.97.66,2.11v16.52Z"/><path d="M112.45,115.95c1.31-1.3,2.46-2.5,4.31-3.04,3.39-.99,8.03-.12,9.5,3.41.3.71.69,2.43.69,3.15v15.24h-3.84v-15.45c0-.85-1.1-2.38-1.85-2.84-2.7-1.67-6.82-.27-7.85,2.74-.13.38-.54,1.95-.54,2.23v13.32h-3.63v-21.74h3.2v2.98Z"/><rect x="98.58" y="104.87" width="4.05" height="29.84"/><path d="M179.96,112.97c.59.18.22,2.41.32,2.98l2.03-2.56c1.47-1.1,3.08-1.03,4.75-.49,2.75.89.91,2.02.46,4.11-2.72-1.1-5.26-1-6.33,2.09-.26.75-.7,2.84-.7,3.57v12.04h-3.63v-21.74h3.09Z"/><path d="M271.96,26.06c7.45-1.06,7.72,10.54.37,9.96-5.8-.46-5.78-9.19-.37-9.96ZM271.96,27.13c-4.08.71-3.86,7.28.18,7.81,6.14.81,5.99-8.88-.18-7.81Z"/><path d="M270.95,28.35c2.6-.54,5.9.83,2.99,3.3l1.06,1.81c-1.75.4-1.69-.7-2.45-1.92-.67-.21-.14,1.75-.32,1.92h-1.28v-5.12ZM272.23,30.7c.59.07,1.39,0,1.49-.74-.37-.45-.93-.59-1.49-.54v1.28Z"/><rect class="cls-1" width="300" height="300"/></g></svg>