<?xml version="1.0" encoding="UTF-8"?><svg id="Layer_2" xmlns="http://www.w3.org/2000/svg" viewBox="0 0 300 300"><defs><style>.cls-1{fill:none;}.cls-2{fill:#566cb3;}</style></defs><g id="Layer_1-2"><rect class="cls-1" width="300" height="300"/><path class="cls-2" d="M255.33,32.84c.66-.7,1.15-1.51,1.81-2.21,4.06-4.26,11.9-3.43,16.33-.16,3.41,2.52,4.27,6.88,4.52,10.91v24.63h-10.44v-22.83c0-.8-.68-2.8-1.13-3.5-1.37-2.14-4.58-2.25-6.83-1.61-2.71.77-3.48,3.74-3.64,6.27-.44,6.9.34,14.28.01,21.23l-.2.44h-10.11V28.98h9.66v3.86Z"/><rect class="cls-2" x="231.25" y="28.98" width="10.43" height="37.04"/><path class="cls-2" d="M206.66,17.02v24.82l.46-.12,5.85-7.66,3.93-5.08h12.04l-13.12,15.78,13.12,21.39h-11.72c.01-.24-.08-.44-.19-.65-2.35-4.49-5.1-8.95-7.59-13.38-.34-.61-2.33-4.5-2.59-4.62-.06.03-.19.3-.19.32v17.88s.18.18.13.32h-10.43V17.02h10.3Z"/><path class="cls-2" d="M108.08,28.98c.33.1.17,1.85.19,2.26,0,.23.1.43.11.64.01.32-.39.93.28.96,1.72-3.8,6.27-5.27,10.24-5.02,4.17.26,7.34,2.75,9.27,6.31.19.05.21-.12.3-.21.42-.45.89-1.31,1.37-1.85,5.68-6.43,16.58-5.51,20.69,2.1,1.41,2.61,1.62,5.21,1.79,8.12v23.73h-10.44v-21.68c-.23-4.28-1.65-6.9-6.38-6.49-2.71.23-4.82,2.81-4.82,5.47v22.7h-10.43v-21.68c-.23-3.87-1.48-6.79-5.86-6.5-3.84.25-5.07,3.04-5.34,6.49v21.68s-10.42,0-10.42,0V28.98h9.46Z"/><path class="cls-2" d="M31.79,32.78s.19.25.26.13c2.48-3.26,6.51-5.11,10.62-5.22,18.8-.51,23.34,27.83,8.3,36.32-5.62,3.17-14,2.81-18.27-2.3-.07-.13-.26.12-.26.13v14.98h-10.43V29.17l.19-.19h9.59c.17,1.03-.23,2.87,0,3.79ZM35.57,54.39c5.57,4.06,13.37.46,13.98-6.32.53-5.93-3.45-10.77-9.6-10.36-8.26.55-10.73,12.05-4.38,16.67Z"/><path class="cls-2" d="M165.84,32.78s.19.25.26.13c2.99-4,8.13-5.72,13.05-5.07,16.76,2.21,19.91,27,6.56,35.71-4.94,3.22-12.34,3.47-17.2-.11l-2.03-1.8v15.18h-10.43V28.98h9.79c.17,1.03-.23,2.87,0,3.79ZM183.87,46.88c0-4.99-4.05-9.04-9.05-9.04s-9.05,4.05-9.05,9.04,4.05,9.04,9.05,9.04,9.05-4.05,9.05-9.04Z"/><path class="cls-2" d="M72.74,51.04c.41,3.86,2.92,5.31,6.63,4.95,2.72-.26,4.96-3.06,4.96-5.72v-21.28h10.43v37.04h-9.79v-4.82l-.26-.13c-1.16,2.23-3.01,3.92-5.51,4.53-8.77,2.14-16.69-3.74-16.9-12.76v-23.85s10.24,0,10.24,0l.19.19v21.86Z"/><path class="cls-2" d="M240.86,20.58c-3.16,3.42-8.64,1.95-10.15-2.31-1.69-4.75,3.02-9.73,7.88-7.87,4.11,1.58,5.23,6.98,2.28,10.18Z"/></g></svg>