<?xml version="1.0" encoding="UTF-8"?><svg id="Layer_2" xmlns="http://www.w3.org/2000/svg" viewBox="0 0 300 300"><defs><style>.cls-1{fill:none;}.cls-2{fill:#572c7c;}</style></defs><g id="Layer_1-2"><path class="cls-2" d="M39.79,72.1c1.88,0,3.39,1.53,3.39,3.4,0,1.87-1.52,3.39-3.39,3.39h-2.44v3.82h-1.91v-10.72h4.35v.11ZM39.68,77.2c.84.04,1.56-.61,1.6-1.45,0-.08,0-.16,0-.24.11-.83-.48-1.58-1.3-1.69-.06,0-.12-.01-.18-.01h-2.44v3.5h2.34v-.11Z"/><polygon class="cls-2" points="55.18 72.1 55.18 82.72 61.87 82.72 61.87 81.02 56.98 81.02 56.98 78.36 61.12 78.36 61.12 76.67 56.98 76.67 56.98 73.8 61.65 73.8 61.65 72.1 55.18 72.1"/><polygon class="cls-2" points="73.86 72.1 73.86 73.8 76.94 73.8 76.94 82.72 78.75 82.72 78.75 73.8 81.82 73.8 81.82 72.1 73.86 72.1"/><rect class="cls-2" x="101.99" y="72.1" width="1.91" height="10.72"/><polygon class="cls-2" points="121.74 72.1 121.74 79.21 117.49 72.1 115.79 72.1 115.79 82.72 117.6 82.72 117.6 75.6 121.95 82.72 123.65 82.72 123.65 72.1 121.74 72.1"/><path class="cls-2" d="M134.8,79.64h1.91c.12.99,1.02,1.7,2.02,1.59.88.11,1.69-.52,1.8-1.41,0-.03,0-.05,0-.08,0-.74-.64-1.17-1.49-1.38l-1.38-.42c-2.34-.64-2.65-2.02-2.65-2.87.09-1.86,1.68-3.28,3.53-3.19.03,0,.05,0,.08,0,1.75-.18,3.31,1.1,3.49,2.85.01.11.02.22.02.33h-1.91c-.01-.84-.7-1.51-1.54-1.5-.05,0-.11,0-.16.01-.86-.07-1.62.57-1.7,1.44,0,.02,0,.03,0,.05,0,.32.11.96,1.27,1.27l1.27.42c1.7.42,2.97,1.38,2.97,3.08-.06,1.89-1.64,3.37-3.53,3.3-.06,0-.12,0-.18-.01-2.23-.21-3.82-1.7-3.82-3.5"/><path class="cls-2" d="M153.37,79v-7.01h1.91v6.9c-.06,1.17.84,2.17,2.01,2.23.04,0,.07,0,.11,0,1.09.08,2.05-.73,2.13-1.83.01-.13,0-.27,0-.4v-6.9h1.91v7.01c0,2.23-1.81,4.03-4.03,4.03s-4.03-1.81-4.03-4.03h0"/><path class="cls-2" d="M178.64,82.72l-2.65-3.93h-.96v3.93h-1.91v-10.72h4.14c1.75-.12,3.28,1.2,3.4,2.96.01.15.01.29,0,.44.08,1.61-1.06,3.02-2.65,3.29l2.76,3.93h-2.12v.11ZM175.03,73.8v3.5h1.91c1.38,0,1.91-.74,1.91-1.7.07-.93-.63-1.74-1.56-1.8,0,0-.02,0-.03,0h-2.23Z"/><path class="cls-2" d="M193.5,72.1l-4.03,10.72h2.02l.96-2.65h4.25l.96,2.65h2.02l-4.03-10.72h-2.12ZM194.56,74.12l1.49,4.35h-3.08l1.59-4.35Z"/><polygon class="cls-2" points="216.11 72.1 216.11 79.21 211.87 72.1 210.17 72.1 210.17 82.72 211.97 82.72 211.97 75.6 216.32 82.72 218.02 82.72 218.02 72.1 216.11 72.1"/><path class="cls-2" d="M229.17,77.41c-.04-3.01,2.38-5.48,5.39-5.52,0,0,.01,0,.02,0,1.67-.01,3.25.78,4.25,2.12l-1.38,1.06c-.64-.88-1.67-1.39-2.76-1.38-2.04.05-3.66,1.74-3.61,3.78,0,.02,0,.03,0,.05-.06,1.99,1.49,3.65,3.48,3.71.04,0,.09,0,.13,0,1.09.01,2.12-.5,2.76-1.38l1.38,1.06c-1.01,1.33-2.58,2.11-4.25,2.12-3.02-.11-5.42-2.6-5.41-5.63"/><polygon class="cls-2" points="249.76 72.1 249.76 82.72 256.45 82.72 256.45 81.02 251.57 81.02 251.57 78.36 255.71 78.36 255.71 76.67 251.57 76.67 251.57 73.8 256.24 73.8 256.24 72.1 249.76 72.1"/><path class="cls-2" d="M113.03,40.47v18.58h-9.55v-18.26c0-5.31-2.76-7.54-6.05-7.54-4.03-.11-6.69,2.87-6.69,9.13v16.67h-9.55v-18.15c0-5.41-2.76-7.64-5.94-7.64-3.4,0-6.9,1.91-6.9,7.96v17.83h-9.55V25.18h9.55v5.41c1.38-4.25,5.94-6.26,9.55-6.26,4.65-.15,8.95,2.48,10.93,6.69,2.44-4.88,7.75-6.69,11.36-6.69,8.39,0,12.84,6.05,12.84,16.14"/><path class="cls-2" d="M152.1,42.27c0,10.93-7.96,17.83-16.67,17.83-3.82,0-8.49-1.59-10.93-5.1v4.25h-9.55V10h9.55v19.43c2.44-3.4,7.01-4.88,10.93-4.88,8.7,0,16.67,6.9,16.67,17.73M142.33,42.27c.07-4.85-3.81-8.85-8.66-8.92-.01,0-.03,0-.04,0-4.95-.15-9.08,3.75-9.23,8.7-.15,4.95,3.75,9.08,8.7,9.23s9.08-3.75,9.23-8.7c0-.1,0-.21,0-.31"/><path class="cls-2" d="M173.01,24.33c-4.25,0-8.07,2.44-9.98,8.07l.11-7.22-9.45-.11-.32,33.86,9.55.11.11-11.57c.11-9.66,3.5-14.22,8.28-14.12.75-.03,1.5.05,2.23.21v-9.13c-.18-.01-.36-.05-.53-.11"/><path class="cls-2" d="M200.08,25.39h9.55v33.86h-9.55v-4.88c-2.52,3.65-6.71,5.8-11.15,5.73-9.34,0-16.35-7.22-16.35-17.83s6.79-17.83,16.56-17.83c4.35,0,8.7,1.91,10.93,5.41v-4.46ZM199.76,42.38c.06-4.92-3.87-8.96-8.79-9.02,0,0-.01,0-.02,0-4.82.07-8.67,4.03-8.6,8.85,0,.06,0,.12,0,.18-.04,4.86,3.85,8.84,8.7,8.92,4.82-.16,8.66-4.09,8.7-8.92"/><path class="cls-2" d="M229.59,24.44c-9.87,0-18.58,7.01-18.58,17.73s8.7,17.94,18.58,17.94c2.57.05,5.11-.49,7.43-1.59l-3.18-8.28c-1.32.67-2.77,1.04-4.25,1.06-4.83.15-8.87-3.65-9.02-8.48,0-.18,0-.36,0-.54.06-4.93,4.11-8.88,9.04-8.81,1.36.02,2.7.34,3.91.96l2.87-8.49c-2.13-.99-4.45-1.5-6.79-1.49"/><path class="cls-2" d="M36.6,33.14c3.93-1.59,7.96-.42,9.66,3.08l-14.86,6.05c-.74-4.67,1.59-7.64,5.2-9.13M43.93,50.55c-.98.41-2.02.66-3.08.74h-.42c-2.67.11-5.2-1.18-6.69-3.4l23.57-9.55c-.42-1.49-.85-2.55-1.17-3.4-3.93-9.55-13.8-13.06-22.72-9.34-10.19,4.14-15.5,15.92-7.64,27.6,2.97,4.46,9.13,7.01,14.65,6.9,5.59,0,10.84-2.69,14.12-7.22l-7.11-4.99c-.89,1.2-2.11,2.12-3.5,2.65"/><path class="cls-2" d="M249.34,33.14c3.93-1.59,7.96-.42,9.66,3.08l-14.86,6.05c-.85-4.67,1.49-7.64,5.2-9.13M256.66,50.55c-.98.41-2.02.66-3.08.74h-.42c-2.67.11-5.2-1.18-6.69-3.4l23.57-9.55c-.42-1.49-.85-2.55-1.17-3.4-3.93-9.55-13.8-13.06-22.72-9.34-10.19,4.14-15.5,15.92-7.64,27.6,2.97,4.46,9.13,7.01,14.65,6.9,5.59,0,10.84-2.69,14.12-7.22l-7.11-4.99c-.89,1.2-2.11,2.12-3.5,2.65"/><path class="cls-2" d="M270.78,18.6v.74h-1.7v4.88h-.85v-4.88h-1.7v-.74h4.25Z"/><path class="cls-2" d="M278,24.22h-.85l-.53-4.14-1.7,3.5h-.74l-1.7-3.5-.42,4.14h-.85l.64-5.63h.74l1.91,4.03,1.91-4.03h.74l.85,5.63Z"/><rect class="cls-1" width="300" height="300"/></g></svg>