<svg id="Layer_1" data-name="Layer 1" xmlns="http://www.w3.org/2000/svg" viewBox="0 0 241.16 68.9"><defs><style>.cls-1{fill:#000;}</style></defs><path class="cls-1" d="M292.2,330.1a3.2,3.2,0,0,1,0,6.4h-2.3v3.6h-1.8V330h4.1Zm-.1,4.8a1.44,1.44,0,0,0,1.5-1.6,1.42,1.42,0,0,0-1.4-1.6h-2.3V335h2.2Z" transform="translate(-275.44 -271.6)"/><polygon class="cls-1" points="31.26 58.5 31.26 68.5 37.56 68.5 37.56 66.9 32.96 66.9 32.96 64.4 36.86 64.4 36.86 62.8 32.96 62.8 32.96 60.1 37.36 60.1 37.36 58.5 31.26 58.5"/><polygon class="cls-1" points="48.86 58.5 48.86 60.1 51.76 60.1 51.76 68.5 53.46 68.5 53.46 60.1 56.36 60.1 56.36 58.5 48.86 58.5"/><rect class="cls-1" x="75.36" y="58.5" width="1.8" height="10.1"/><polygon class="cls-1" points="93.96 58.5 93.96 65.2 89.96 58.5 88.36 58.5 88.36 68.5 90.06 68.5 90.06 61.8 94.16 68.5 95.76 68.5 95.76 58.5 93.96 58.5"/><path class="cls-1" d="M381.7,337.2h1.8a1.72,1.72,0,0,0,1.9,1.5,1.52,1.52,0,0,0,1.7-1.4c0-.7-.6-1.1-1.4-1.3l-1.3-.4c-2.2-.6-2.5-1.9-2.5-2.7a3.17,3.17,0,0,1,3.4-3,3,3,0,0,1,3.3,3h-1.8a1.43,1.43,0,0,0-1.6-1.4,1.48,1.48,0,0,0-1.6,1.4c0,.3.1.9,1.2,1.2l1.2.4c1.6.4,2.8,1.3,2.8,2.9a3.22,3.22,0,0,1-3.5,3.1c-2.1-.2-3.6-1.6-3.6-3.3" transform="translate(-275.44 -271.6)"/><path class="cls-1" d="M399.2,336.6V330H401v6.5a2,2,0,0,0,2,2.1,1.87,1.87,0,0,0,2-2.1V330h1.8v6.6a3.8,3.8,0,0,1-7.6,0" transform="translate(-275.44 -271.6)"/><path class="cls-1" d="M423,340.1l-2.5-3.7h-.9v3.7h-1.8V330h3.9a3,3,0,0,1,3.2,3.2,3,3,0,0,1-2.5,3.1L425,340h-2Zm-3.4-8.4V335h1.8c1.3,0,1.8-.7,1.8-1.6a1.59,1.59,0,0,0-1.5-1.7Z" transform="translate(-275.44 -271.6)"/><path class="cls-1" d="M437,330.1l-3.8,10.1h1.9l.9-2.5h4l.9,2.5h1.9L439,330.1Zm1,1.9,1.4,4.1h-2.9Z" transform="translate(-275.44 -271.6)"/><polygon class="cls-1" points="182.86 58.5 182.86 65.2 178.86 58.5 177.26 58.5 177.26 68.5 178.96 68.5 178.96 61.8 183.06 68.5 184.66 68.5 184.66 58.5 182.86 58.5"/><path class="cls-1" d="M470.6,335.1a5.14,5.14,0,0,1,5.1-5.2,4.92,4.92,0,0,1,4,2l-1.3,1a3.17,3.17,0,0,0-2.6-1.3,3.48,3.48,0,0,0-3.4,3.6,3.39,3.39,0,0,0,3.4,3.5,3.17,3.17,0,0,0,2.6-1.3l1.3,1a5.07,5.07,0,0,1-4,2,5.3,5.3,0,0,1-5.1-5.3" transform="translate(-275.44 -271.6)"/><polygon class="cls-1" points="214.56 58.5 214.56 68.5 220.86 68.5 220.86 66.9 216.26 66.9 216.26 64.4 220.16 64.4 220.16 62.8 216.26 62.8 216.26 60.1 220.66 60.1 220.66 58.5 214.56 58.5"/><path class="cls-1" d="M361.2,300.3v17.5h-9V300.6c0-5-2.6-7.1-5.7-7.1-3.8-.1-6.3,2.7-6.3,8.6v15.7h-9V300.7c0-5.1-2.6-7.2-5.6-7.2-3.2,0-6.5,1.8-6.5,7.5v16.8h-9V285.9h9V291c1.3-4,5.6-5.9,9-5.9a11,11,0,0,1,10.3,6.3c2.3-4.6,7.3-6.3,10.7-6.3,7.9,0,12.1,5.7,12.1,15.2" transform="translate(-275.44 -271.6)"/><path class="cls-1" d="M398,302c0,10.3-7.5,16.8-15.7,16.8-3.6,0-8-1.5-10.3-4.8v4h-9V271.6h9v18.3c2.3-3.2,6.6-4.6,10.3-4.6,8.2,0,15.7,6.5,15.7,16.7m-9.2,0a8.28,8.28,0,0,0-8.2-8.4,8.45,8.45,0,1,0,8.2,8.4" transform="translate(-275.44 -271.6)"/><path class="cls-1" d="M417.7,285.1c-4,0-7.6,2.3-9.4,7.6l.1-6.8-8.9-.1-.3,31.9,9,.1.1-10.9c.1-9.1,3.3-13.4,7.8-13.3a8.22,8.22,0,0,1,2.1.2v-8.6a2,2,0,0,1-.5-.1" transform="translate(-275.44 -271.6)"/><path class="cls-1" d="M443.2,286.1h9V318h-9v-4.6a12.52,12.52,0,0,1-10.5,5.4c-8.8,0-15.4-6.8-15.4-16.8s6.4-16.8,15.6-16.8c4.1,0,8.2,1.8,10.3,5.1Zm-.3,16a8.39,8.39,0,0,0-8.3-8.5,8.22,8.22,0,0,0-8.1,8.5,8.34,8.34,0,0,0,8.2,8.4,8.48,8.48,0,0,0,8.2-8.4" transform="translate(-275.44 -271.6)"/><path class="cls-1" d="M471,285.2c-9.3,0-17.5,6.6-17.5,16.7s8.2,16.9,17.5,16.9a15.66,15.66,0,0,0,7-1.5l-3-7.8a9.1,9.1,0,0,1-4,1,8.25,8.25,0,0,1-8.5-8.5,8.41,8.41,0,0,1,12.2-7.4l2.7-8a15,15,0,0,0-6.4-1.4" transform="translate(-275.44 -271.6)"/><path class="cls-1" d="M289.2,293.4c3.7-1.5,7.5-.4,9.1,2.9l-14,5.7c-.7-4.4,1.5-7.2,4.9-8.6m6.9,16.4a9.47,9.47,0,0,1-2.9.7h-.4a7.23,7.23,0,0,1-6.3-3.2l22.2-9c-.4-1.4-.8-2.4-1.1-3.2-3.7-9-13-12.3-21.4-8.8-9.6,3.9-14.6,15-7.2,26,2.8,4.2,8.6,6.6,13.8,6.5a16.41,16.41,0,0,0,13.3-6.8l-6.7-4.7a7.47,7.47,0,0,1-3.3,2.5" transform="translate(-275.44 -271.6)"/><path class="cls-1" d="M489.6,293.4c3.7-1.5,7.5-.4,9.1,2.9l-14,5.7c-.8-4.4,1.4-7.2,4.9-8.6m6.9,16.4a9.47,9.47,0,0,1-2.9.7h-.4a7.23,7.23,0,0,1-6.3-3.2l22.2-9c-.4-1.4-.8-2.4-1.1-3.2-3.7-9-13-12.3-21.4-8.8-9.6,3.9-14.6,15-7.2,26,2.8,4.2,8.6,6.6,13.8,6.5a16.41,16.41,0,0,0,13.3-6.8l-6.7-4.7a7.47,7.47,0,0,1-3.3,2.5" transform="translate(-275.44 -271.6)"/><path class="cls-1" d="M509.8,279.7v.7h-1.6V285h-.8v-4.6h-1.6v-.7Z" transform="translate(-275.44 -271.6)"/><path class="cls-1" d="M516.6,285h-.8l-.5-3.9-1.6,3.3H513l-1.6-3.3L511,285h-.8l.6-5.3h.7l1.8,3.8,1.8-3.8h.7Z" transform="translate(-275.44 -271.6)"/></svg>