<svg width="106" height="35" viewBox="0 0 106 35" fill="none" xmlns="http://www.w3.org/2000/svg">
<g clip-path="url(#clip0_1309_98)">
<path d="M0.461548 32.9246C0.461548 32.4222 0.824241 31.999 1.31647 31.9197C3.25947 31.6552 3.90713 30.8354 3.90713 28.6668V16.3692C3.90713 14.7559 3.51853 14.4121 2.40455 14.4121H0.720614C0.254295 14.4121 -0.108398 14.0419 -0.108398 13.5658C-0.108398 13.1427 0.176575 12.7989 0.591081 12.746C2.6118 12.4286 3.90713 12.0055 3.90713 10.4981C3.90713 4.07157 8.18173 0.395508 14.6843 0.395508C18.1817 0.395508 21.6273 1.42692 21.6273 4.62694C21.6273 6.10794 20.9019 7.82696 18.2853 7.82696C13.3372 7.82696 15.1765 2.22031 12.7931 2.22031C11.2905 2.22031 11.1869 3.64842 11.1869 7.27159V10.3658C11.1869 11.6881 11.8087 11.9791 14.2957 11.9791H16.42C17.0936 11.9791 17.6377 12.5344 17.6377 13.222C17.6377 13.9096 17.0677 14.465 16.3941 14.465L14.2957 14.4121C11.8346 14.3592 11.1869 14.703 11.1869 16.475V28.6668C11.1869 30.8883 11.8605 31.7081 14.6066 31.9461C15.1247 31.999 15.5133 32.4222 15.5133 32.9246C15.5133 33.48 15.0729 33.9032 14.5289 33.9032H1.47191C0.927867 33.9296 0.461548 33.48 0.461548 32.9246Z" fill="black"/>
<path d="M16.0566 22.9543C16.0566 14.8881 22.5592 11.3179 28.5695 11.3179C33.6991 11.3179 37.87 13.9361 37.87 18.2468C37.87 22.5841 33.6473 22.9279 29.3727 23.2717L25.5903 23.5626C24.7095 23.6155 24.1913 24.1973 24.3727 25.6254C24.7095 28.6667 28.2069 30.3858 31.4452 30.3858C32.9219 30.3858 34.8649 30.0155 36.497 28.561C36.9115 28.1907 37.5073 28.1907 37.9219 28.561L37.9478 28.5874C38.3623 28.9577 38.4141 29.6188 38.0773 30.042C36.6006 31.8932 32.9996 34.2205 28.1032 34.2205C22.067 34.2205 16.0566 30.6767 16.0566 22.9543ZM27.7405 21.4204C31.0825 21.0766 31.7561 20.2039 31.7561 18.2733C31.7561 15.9196 30.7975 13.5658 28.2587 13.5658C25.4348 13.5658 24.3209 16.422 24.3209 19.1725C24.3209 20.8386 24.6576 21.6849 25.9789 21.632L27.7405 21.4204Z" fill="black"/>
<path d="M40.9283 26.8947V16.131C40.9283 14.4119 40.5397 14.0681 39.4257 14.0681H38.1045C37.6122 14.0681 37.2236 13.6714 37.2236 13.1954C37.2236 12.7987 37.4827 12.4549 37.8713 12.3491C41.4723 11.3706 43.2858 9.57224 44.8402 7.00693C45.2288 6.37222 45.5656 6.16064 46.1873 6.16064H47.0682C47.7935 6.16064 48.234 6.61023 48.234 7.35074L48.1821 10.3921C48.1821 11.4764 48.7262 11.7673 51.1873 11.7673H53.1044C53.8039 11.7673 54.3479 12.3227 54.3479 13.0367C54.3479 13.7508 53.7521 14.3326 53.0267 14.3062L51.1873 14.2004C48.7262 14.0417 48.1821 14.4913 48.1821 16.2632V26.6831C48.1821 29.3806 48.5189 31.2054 50.4101 31.2054C50.8505 31.2054 51.8091 31.1261 52.6381 30.7294C53.0785 30.5443 53.5707 30.6501 53.8557 31.0468C54.1666 31.4699 54.0889 32.0517 53.7003 32.3955C52.379 33.5327 50.3842 34.1939 48.0785 34.1939C43.5967 34.1674 40.9283 31.655 40.9283 26.8947Z" fill="black"/>
<path d="M53.2852 22.9015C53.2852 14.8882 59.7877 11.2915 65.6944 11.2915C71.1866 11.2915 75.0985 14.4386 75.0985 17.9825C75.0985 19.5957 74.3213 21.3676 71.8602 21.3676C69.1918 21.3676 68.5701 19.3048 68.311 18.0353C68.0779 16.2634 68.3628 13.5659 65.3577 13.5659C62.1452 13.5659 61.0831 16.6072 61.0831 20.0982C61.0831 26.1809 64.2955 30.333 69.0364 30.333C70.1504 30.333 71.7048 30.0685 73.1555 28.4817C73.4923 28.1115 74.0364 28.085 74.425 28.3759C74.8395 28.6668 74.969 29.2487 74.684 29.6982C73.3887 31.7611 70.0727 34.247 65.254 34.247C59.3991 34.2206 53.2852 30.5181 53.2852 22.9015Z" fill="black"/>
<path d="M105.383 28.5874C105.149 28.5874 104.89 28.6932 104.683 28.9312C103.751 29.9097 103.155 30.3593 102.196 30.3593C101.911 30.3593 101.678 30.3328 101.471 30.2535C100.901 30.0419 100.771 29.4072 100.719 29.1428C100.719 29.0634 100.719 28.9576 100.719 28.8783V19.7014C100.719 12.5344 97.1702 11.1063 93.7247 11.1063C90.2791 11.1063 88.2324 12.5344 87.0407 14.1476C86.4708 14.941 85.3827 14.6501 85.3827 12.9575V3.78061C85.3827 2.2996 84.6055 1.5591 82.9475 1.82357L75.9009 3.01366C75.4086 3.093 75.046 3.51614 75.046 4.01862C75.046 4.574 75.4605 4.99714 76.0045 5.05004C77.2739 5.12937 78.1029 5.76409 78.1029 7.61534V28.4551C78.1029 30.756 77.4812 31.6287 75.8232 31.8932C75.3568 31.9725 74.9941 32.3957 74.9941 32.8982C74.9941 33.4535 75.4346 33.9031 76.0045 33.9031H87.3775C87.9216 33.9031 88.3879 33.4535 88.3879 32.8982C88.3879 32.4221 88.0511 31.999 87.5848 31.8932C86.0045 31.6023 85.3827 30.756 85.3827 28.4551V20.8386C85.3827 17.9295 86.7299 15.4699 89.3982 15.4699C92.0666 15.4699 93.4138 17.9295 93.4138 20.8386V28.799C93.4138 31.5758 94.7091 33.2684 96.7039 33.9031C96.8075 33.956 96.9371 33.9825 97.0666 34.0089C97.0925 34.0089 97.1184 34.0089 97.1184 34.0089C97.1702 34.0089 97.222 34.0354 97.2998 34.0618C97.3516 34.0618 97.3775 34.0618 97.4293 34.0882C97.6884 34.1411 97.9474 34.1676 98.2324 34.194C99.8386 34.3263 101.082 34.1147 101.082 34.1147C102.999 33.8502 104.165 33.0568 105.072 31.7874C105.512 31.1527 106.082 30.1213 106.082 29.4072C106.134 28.9047 105.797 28.5874 105.383 28.5874Z" fill="black"/>
<path d="M103.978 11.1892C103.581 11.1892 103.227 11.1021 102.917 10.928C102.613 10.7471 102.375 10.5027 102.203 10.1946C102.031 9.87979 101.945 9.52147 101.945 9.11961C101.945 8.72445 102.031 8.36948 102.203 8.05469C102.375 7.7399 102.613 7.49544 102.917 7.3213C103.227 7.14047 103.581 7.05005 103.978 7.05005C104.368 7.05005 104.714 7.14047 105.019 7.3213C105.329 7.49544 105.57 7.7399 105.742 8.05469C105.914 8.36948 106 8.72445 106 9.11961C106 9.52147 105.914 9.87979 105.742 10.1946C105.57 10.5027 105.329 10.7471 105.019 10.928C104.714 11.1021 104.368 11.1892 103.978 11.1892ZM103.978 10.7773C104.453 10.7773 104.837 10.6232 105.128 10.3151C105.418 10.007 105.564 9.60854 105.564 9.11961C105.564 8.63739 105.418 8.24223 105.128 7.93413C104.837 7.62604 104.453 7.472 103.978 7.472C103.495 7.472 103.109 7.62604 102.818 7.93413C102.527 8.24223 102.382 8.63739 102.382 9.11961C102.382 9.60854 102.527 10.007 102.818 10.3151C103.109 10.6232 103.495 10.7773 103.978 10.7773ZM103.155 10.1745V8.02455H104.146C104.364 8.02455 104.539 8.08483 104.672 8.20539C104.804 8.32595 104.87 8.49004 104.87 8.69766C104.87 9.02585 104.714 9.23682 104.404 9.33059L104.959 10.1745H104.344L103.859 9.36073H103.68V10.1745H103.155ZM103.68 8.95887H104.077C104.149 8.95887 104.212 8.94213 104.265 8.90864C104.318 8.86845 104.344 8.80483 104.344 8.71776C104.344 8.63738 104.318 8.58046 104.265 8.54697C104.212 8.51348 104.149 8.49674 104.077 8.49674H103.68V8.95887Z" fill="black"/>
</g>
<defs>
<clipPath id="clip0_1309_98">
<rect width="106" height="34" fill="white" transform="translate(0 0.25)"/>
</clipPath>
</defs>
</svg>
