<?xml version="1.0" encoding="UTF-8"?><svg id="Layer_2" xmlns="http://www.w3.org/2000/svg" viewBox="0 0 343.14 305.52"><defs><style>.cls-1{fill:#0c5163;}</style></defs><g id="Layer_1-2"><path class="cls-1" d="M239.7,174.01c18.45,16.01,49.52,54.69,52.27,79.22,2.39,21.31-9.62,40.28-30.84,44.95-32.32,7.11-51.19-19.63-82.55-16.55s-74.35,44.3-99.92,10.9c-26.77-34.96,2.9-74.58,25-102.83,37.11-47.43,88.96-56.54,136.04-15.7Z"/><path class="cls-1" d="M108.75,0c29-.65,48.51,42.06,52.21,66.24,4.52,29.49-7.57,65.47-43.38,61.38-21.21-2.42-39.84-37.94-43.22-56.78C70.03,46.79,77.1.72,108.75,0Z"/><path class="cls-1" d="M216.81,1.85c30.81-6.25,46.04,30.43,47.32,55.23,1.5,29.06-19.78,84.65-57.74,69.74-45.37-17.82-26.86-117.41,10.43-124.97Z"/><path class="cls-1" d="M24.82,95.86c33.21-5.63,68.27,40.35,70.13,70.39,1.14,18.34-10.84,40.96-30.48,43.26C24.71,214.17-.21,169.74,0,135.11c.09-14.35,8.88-36.54,24.82-39.25Z"/><path class="cls-1" d="M303.84,85.89c27.78-3.81,39.31,33.69,39.31,55.23-.01,30.58-25.4,74.06-61.03,61.97-49.18-16.69-19.56-111.54,21.73-117.21Z"/></g></svg>