<?xml version="1.0" encoding="UTF-8"?>
<svg id="Layer_1" data-name="Layer 1" xmlns="http://www.w3.org/2000/svg" viewBox="0 0 300 150">
  <defs>
    <style>
      .cls-1 {
        fill: #255061;
      }
    </style>
  </defs>
  <path class="cls-1" d="M92.7,79.32c0,2.04-1.26,3.18-3.36,3.18h-6.3v7.62c0,2.28-1.32,3.6-3.54,3.6-.96,0-1.86-.18-2.58-.6v-10.62h-8.76c-.3-.72-.6-1.5-.6-2.4,0-2.04,1.26-3.18,3.3-3.18h6.06v-7.08c0-2.28,1.26-3.6,3.48-3.6.96,0,1.92.18,2.64.6v10.08h9.06c.3.72.6,1.5.6,2.4Z"/>
  <path class="cls-1" d="M133.38,94.14v-31.86l-9.66,31.86h-5.82l-9.66-31.92v31.92h-6.24v-39.6h13.56l7.26,25.26,7.2-25.26h13.26v39.6h-9.9Z"/>
  <path class="cls-1" d="M176.82,78.42c0,9.96-4.8,17.04-14.7,17.04s-14.34-6.72-14.34-16.44,4.86-16.68,14.7-16.68,14.34,6.24,14.34,16.08ZM167.22,78.72c0-5.4-.42-12.78-4.92-12.78s-4.92,7.44-4.92,12.78.24,13.14,4.92,13.14,4.92-7.62,4.92-13.14Z"/>
  <path class="cls-1" d="M190.5,76.8v17.34h-9.18v-30.6l7.5-.72.42,5.4c1.26-3.66,4.32-5.88,8.16-5.88,4.56,0,7.44,2.7,7.44,7.26,0,3.72-1.98,5.82-5.7,5.82-.78,0-2.22-.18-2.88-.66.3-.96.42-2.16.42-3.12,0-2.22-.6-4.38-2.82-4.38-3.3,0-3.36,5.76-3.36,9.54Z"/>
  <path class="cls-1" d="M231.3,87.72c0,5.16-5.88,7.74-11.04,7.74-9.78,0-14.58-6.54-14.58-16.38s5.28-16.74,15.54-16.74c6.06,0,11.22,2.7,11.22,8.76,0,7.68-6.42,9.42-14.1,9.42-.84,0-2.4-.06-3.18-.18.3,4.92,1.56,9.18,6.6,9.18,3.42,0,6.48-1.68,7.98-4.74,1.14.54,1.56,1.74,1.56,2.94ZM215.16,77.58h1.2c4.8.06,7.62-1.5,7.62-6.3,0-2.7-.96-5.4-3.66-5.4-4.38,0-5.1,7.14-5.16,11.7Z"/>
</svg>