<?xml version="1.0" encoding="UTF-8"?>
<svg id="Layer_1" data-name="Layer 1" xmlns="http://www.w3.org/2000/svg" viewBox="0 0 300 150">
  <defs>
    <style>
      .cls-1 {
        fill: #255061;
      }
    </style>
  </defs>
  <g>
    <path class="cls-1" d="M220.52,20.83h-9.15l-5.65,14.08c-2.47-6.84-9.86-15.27-22.35-15.27-7.24,0-13.12,2.86-17.18,7.16,1.59,2.7,2.31,5.88,2.31,9.07,0,5.09-1.99,10.26-5.41,13.28h0c-.72.64-1.43,1.19-2.23,1.67,3.1,8.99,11.45,15.98,22.66,15.98,3.74,0,7.24-.8,10.34-2.31l-.72,1.83h12.48l2.39-6.6h15.75l2.23,6.6h12.56l-18.05-45.49ZM194.36,48.9c-.72,1.59-3.66,7.63-10.89,7.63s-12.17-6.6-12.17-13.52c0-6.44,4.37-13.28,12.17-13.28,6.28,0,9.7,4.53,10.97,7.95h10.18l-4.45,11.13h-5.81v.08ZM211.21,50.49l4.69-15.51h.16l4.69,15.51h-9.54ZM117.14,29.34c3.58,0,3.9,2.86,4.14,4.45h9.46v-7.55c-.32-.48-.64-.95-1.03-1.43-2.86-3.5-7.71-5.17-12.17-5.17-7.63,0-15.9,4.85-15.9,13.36s7.95,11.69,11.13,13.04c7,2.94,8.91,3.66,8.91,6.68,0,2.07-1.67,4.37-4.45,4.37-1.43,0-4.69-.95-4.69-6.2h-11.61v.08l-12.09-30.46h-9.15l-18.21,45.41h12.48l2.39-6.6h15.75l2.23,6.6h12.56l-1.03-2.62c2.54,2.07,6.2,3.42,11.45,3.42,7,0,11.21-2.47,13.52-5.81v-15.43c-1.59-1.99-4.21-3.9-8.27-5.65-8.19-3.66-9.38-4.21-9.38-6.92,0-2.15,1.99-3.58,3.98-3.58M79.53,50.1l4.69-15.51h.24l4.69,15.51h-9.62Z"/>
    <path class="cls-1" d="M231.81,20.91c1.51,0,2.78,1.27,2.78,2.78,0,1.59-1.19,2.86-2.78,2.86s-2.78-1.27-2.78-2.86c-.08-1.51,1.19-2.78,2.78-2.78h0ZM231.73,21.39c-1.27,0-2.23,1.03-2.23,2.39s1.03,2.39,2.31,2.39,2.23-1.03,2.23-2.39-1.03-2.39-2.31-2.39h0ZM231.25,25.36h-.48v-3.18c.24,0,.48-.08.87-.08.48,0,.8.08.95.24s.32.32.32.64c0,.4-.24.64-.64.8h0c.24.08.48.32.56.8.08.48.16.64.24.8h-.64c-.08-.08-.16-.4-.24-.8s-.24-.56-.64-.56h-.32v1.35ZM231.25,23.61h.4c.4,0,.8-.16.8-.56,0-.24-.24-.56-.8-.56h-.4v1.11Z"/>
    <path class="cls-1" d="M132.57,20.43h14.87c8.43,0,11.53,1.27,14,3.34,3.58,2.94,5.33,7.48,5.33,12.09s-1.91,9.46-4.77,11.93c-3.1,2.62-6.2,3.9-13.28,3.9h-5.01v14.31h-11.13V20.43ZM143.7,41.51h4.77c2.23,0,7.24,0,7.24-5.49s-5.17-5.33-7.71-5.33h-4.29v10.81Z"/>
  </g>
  <g>
    <path class="cls-1" d="M70.51,77.36c1.26,0,2.33.18,3.21.55.88.37,1.6.85,2.16,1.45.55.6.96,1.29,1.21,2.06s.38,1.57.38,2.4-.13,1.6-.38,2.38-.66,1.47-1.21,2.07c-.55.6-1.27,1.09-2.16,1.45-.88.37-1.95.55-3.21.55h-4.65v7.22h-4.43v-20.13h9.08ZM69.3,86.83c.51,0,1-.04,1.47-.11.47-.08.88-.22,1.24-.44.36-.22.64-.52.86-.92.22-.39.32-.91.32-1.55s-.11-1.16-.32-1.55c-.22-.4-.5-.7-.86-.92-.36-.22-.77-.36-1.24-.44-.47-.08-.96-.11-1.47-.11h-3.44v6.03h3.44Z"/>
    <path class="cls-1" d="M96.13,77.36v3.72h-10.63v4.31h9.75v3.44h-9.75v4.93h10.85v3.72h-15.28v-20.13h15.05Z"/>
    <path class="cls-1" d="M98.61,81.08v-3.72h16.49v3.72h-6.03v16.41h-4.43v-16.41h-6.03Z"/>
    <path class="cls-1" d="M131.37,77.36v7.72h8.15v-7.72h4.43v20.13h-4.43v-8.68h-8.15v8.68h-4.43v-20.13h4.43Z"/>
    <path class="cls-1" d="M163.73,77.36v3.72h-10.63v4.31h9.75v3.44h-9.75v4.93h10.85v3.72h-15.28v-20.13h15.05Z"/>
    <path class="cls-1" d="M177.82,77.36l7.53,20.13h-4.59l-1.52-4.48h-7.53l-1.58,4.48h-4.45l7.61-20.13h4.54ZM178.08,89.7l-2.54-7.39h-.06l-2.62,7.39h5.21Z"/>
    <path class="cls-1" d="M192.37,77.36v16.41h9.81v3.72h-14.24v-20.13h4.43Z"/>
    <path class="cls-1" d="M201.33,81.08v-3.72h16.49v3.72h-6.03v16.41h-4.43v-16.41h-6.03Z"/>
    <path class="cls-1" d="M225.4,77.36v7.72h8.15v-7.72h4.43v20.13h-4.43v-8.68h-8.15v8.68h-4.43v-20.13h4.43Z"/>
    <path class="cls-1" d="M66.62,109.27v20.63h-4.54v-20.63h4.54Z"/>
    <path class="cls-1" d="M75.98,109.27l8.61,13.84h.06v-13.84h4.25v20.63h-4.54l-8.58-13.81h-.06v13.81h-4.25v-20.63h4.51Z"/>
    <path class="cls-1" d="M97.22,124.81c.25.48.58.87,1,1.17.41.3.9.52,1.46.66.56.14,1.14.22,1.73.22.4,0,.84-.03,1.3-.1.46-.07.9-.2,1.3-.39.4-.19.74-.46,1.01-.79.27-.34.4-.77.4-1.29,0-.56-.18-1.01-.53-1.36s-.82-.64-1.4-.87-1.23-.43-1.96-.61c-.73-.17-1.47-.37-2.22-.58-.77-.19-1.52-.43-2.25-.71-.73-.28-1.39-.64-1.96-1.08-.58-.44-1.05-1-1.4-1.66-.36-.66-.53-1.47-.53-2.41,0-1.06.23-1.98.68-2.76.45-.78,1.04-1.43,1.78-1.95.73-.52,1.56-.9,2.48-1.16.92-.25,1.85-.38,2.77-.38,1.08,0,2.11.12,3.11.36.99.24,1.87.63,2.64,1.17.77.54,1.38,1.23,1.83,2.07.45.84.68,1.85.68,3.05h-4.39c-.04-.62-.17-1.13-.39-1.53-.22-.4-.52-.72-.88-.95-.37-.23-.79-.39-1.26-.49-.47-.1-.99-.14-1.55-.14-.37,0-.73.04-1.1.12-.37.08-.7.21-1,.4-.3.19-.54.43-.74.72-.19.29-.29.66-.29,1.1,0,.4.08.73.23.98s.46.48.91.69c.45.21,1.08.42,1.88.64.8.21,1.84.48,3.14.81.39.08.92.22,1.6.42.68.2,1.36.53,2.04.97.67.44,1.26,1.04,1.75,1.78.49.74.74,1.69.74,2.85,0,.94-.18,1.82-.55,2.63-.37.81-.91,1.51-1.63,2.09-.72.59-1.62,1.04-2.69,1.37-1.07.33-2.31.49-3.71.49-1.14,0-2.24-.14-3.31-.42-1.07-.28-2.01-.72-2.83-1.31-.82-.6-1.47-1.36-1.95-2.28-.48-.92-.71-2.02-.69-3.29h4.39c0,.69.13,1.28.38,1.76Z"/>
    <path class="cls-1" d="M128.54,128.32c-1.56,1.36-3.72,2.04-6.47,2.04s-4.96-.67-6.49-2.02c-1.53-1.35-2.3-3.43-2.3-6.24v-12.83h4.54v12.83c0,.56.05,1.11.14,1.65.1.54.3,1.02.61,1.43.31.41.74.75,1.29,1.01.55.26,1.29.39,2.21.39,1.62,0,2.73-.36,3.35-1.08.62-.72.92-1.85.92-3.39v-12.83h4.54v12.83c0,2.79-.78,4.87-2.34,6.23Z"/>
    <path class="cls-1" d="M146.77,109.27c.92,0,1.76.15,2.5.45.74.3,1.38.71,1.91,1.23.53.52.93,1.12,1.21,1.81.28.68.42,1.42.42,2.21,0,1.21-.26,2.26-.77,3.15-.51.89-1.34,1.56-2.5,2.02v.06c.56.15,1.02.39,1.39.71.37.32.66.69.9,1.13.23.43.4.91.51,1.43.11.52.18,1.04.22,1.56.02.33.04.71.06,1.16.02.44.05.9.1,1.36.05.46.12.9.23,1.32.11.41.26.77.48,1.05h-4.54c-.25-.65-.4-1.43-.46-2.34-.06-.9-.14-1.77-.26-2.6-.15-1.08-.48-1.87-.98-2.37-.5-.5-1.32-.75-2.46-.75h-4.54v8.06h-4.54v-20.63h11.12ZM145.15,118.6c1.04,0,1.82-.23,2.34-.69.52-.46.78-1.21.78-2.25s-.26-1.73-.78-2.18c-.52-.45-1.3-.68-2.34-.68h-4.97v5.81h4.97Z"/>
    <path class="cls-1" d="M167.66,109.27l7.71,20.63h-4.71l-1.56-4.59h-7.71l-1.62,4.59h-4.57l7.8-20.63h4.65ZM167.92,121.92l-2.6-7.57h-.06l-2.69,7.57h5.35Z"/>
    <path class="cls-1" d="M182.54,109.27l8.61,13.84h.06v-13.84h4.25v20.63h-4.54l-8.58-13.81h-.06v13.81h-4.25v-20.63h4.51Z"/>
    <path class="cls-1" d="M213.54,114.77c-.27-.43-.61-.81-1.01-1.14-.4-.33-.86-.58-1.37-.77-.51-.18-1.05-.27-1.6-.27-1.02,0-1.89.2-2.6.59-.71.4-1.29.92-1.73,1.59-.44.66-.77,1.42-.97,2.27-.2.85-.3,1.72-.3,2.63s.1,1.71.3,2.53c.2.82.52,1.56.97,2.21.44.66,1.02,1.18,1.73,1.57.71.4,1.58.59,2.6.59,1.39,0,2.47-.42,3.25-1.27.78-.85,1.26-1.96,1.43-3.35h4.39c-.12,1.29-.41,2.46-.9,3.5-.48,1.04-1.12,1.93-1.91,2.66-.79.73-1.71,1.29-2.77,1.68-1.06.39-2.22.58-3.5.58-1.58,0-3-.27-4.26-.82-1.26-.55-2.33-1.3-3.19-2.27-.87-.96-1.53-2.09-1.99-3.39-.46-1.3-.69-2.7-.69-4.2s.23-2.97.69-4.29c.46-1.32,1.13-2.47,1.99-3.45.87-.98,1.93-1.75,3.19-2.31,1.26-.56,2.68-.84,4.26-.84,1.14,0,2.21.16,3.22.49,1.01.33,1.92.8,2.72,1.43.8.63,1.46,1.4,1.98,2.33.52.92.85,1.98.98,3.18h-4.39c-.08-.52-.25-1-.52-1.43Z"/>
    <path class="cls-1" d="M238.02,109.27v3.81h-10.89v4.42h10v3.52h-10v5.06h11.12v3.81h-15.66v-20.63h15.43Z"/>
  </g>
</svg>