<?xml version="1.0" encoding="UTF-8"?>
<svg id="Layer_1" data-name="Layer 1" xmlns="http://www.w3.org/2000/svg" viewBox="0 0 300 150">
  <defs>
    <style>
      .cls-1 {
        fill: #255061;
      }
    </style>
  </defs>
  <g>
    <path class="cls-1" d="M37.07,130.42v-26.75h10.09c1.78,0,3.13.09,4.07.26,1.31.22,2.41.64,3.3,1.25.89.61,1.6,1.47,2.14,2.58s.81,2.32.81,3.65c0,2.27-.72,4.2-2.17,5.77-1.45,1.58-4.06,2.36-7.84,2.36h-6.86v10.87h-3.54ZM40.61,116.39h6.91c2.29,0,3.91-.43,4.87-1.28.96-.85,1.44-2.05,1.44-3.59,0-1.12-.28-2.08-.85-2.87-.57-.8-1.31-1.32-2.23-1.58-.6-.16-1.7-.24-3.3-.24h-6.84v9.56Z"/>
    <path class="cls-1" d="M74.88,124.18l3.39.42c-.54,1.98-1.53,3.52-2.97,4.62s-3.3,1.64-5.55,1.64c-2.83,0-5.08-.87-6.74-2.62-1.66-1.74-2.49-4.19-2.49-7.34s.84-5.79,2.52-7.59c1.68-1.8,3.86-2.7,6.53-2.7s4.71.88,6.35,2.65c1.64,1.76,2.46,4.24,2.46,7.44,0,.19,0,.49-.02.88h-14.45c.12,2.13.72,3.76,1.81,4.89,1.08,1.13,2.43,1.7,4.05,1.7,1.2,0,2.23-.32,3.08-.95s1.53-1.64,2.03-3.03ZM64.09,118.87h10.82c-.15-1.63-.56-2.85-1.24-3.67-1.05-1.26-2.4-1.9-4.07-1.9-1.51,0-2.78.51-3.8,1.51-1.03,1.01-1.6,2.36-1.71,4.05Z"/>
    <path class="cls-1" d="M89.6,127.48l.47,2.9c-.92.19-1.75.29-2.48.29-1.19,0-2.12-.19-2.77-.57-.66-.38-1.12-.87-1.39-1.49-.27-.61-.4-1.91-.4-3.88v-11.15h-2.41v-2.55h2.41v-4.8l3.27-1.97v6.77h3.3v2.55h-3.3v11.33c0,.94.06,1.54.17,1.81s.3.48.57.64c.26.16.64.24,1.12.24.36,0,.85-.04,1.44-.13Z"/>
    <path class="cls-1" d="M104.29,130.42v-26.75h3.54v26.75h-3.54Z"/>
    <path class="cls-1" d="M113.68,130.42v-19.37h2.96v2.75c1.42-2.13,3.48-3.19,6.17-3.19,1.17,0,2.24.21,3.22.63.98.42,1.71.97,2.2,1.65s.83,1.49,1.02,2.43c.12.61.18,1.67.18,3.19v11.91h-3.28v-11.79c0-1.34-.13-2.34-.38-3-.26-.66-.71-1.19-1.36-1.59-.65-.39-1.41-.59-2.29-.59-1.4,0-2.61.44-3.62,1.33s-1.52,2.57-1.52,5.05v10.58h-3.28Z"/>
    <path class="cls-1" d="M133.19,124.64l3.25-.51c.18,1.3.69,2.3,1.52,2.99.83.69,2,1.04,3.49,1.04s2.63-.31,3.36-.92c.73-.61,1.09-1.33,1.09-2.16,0-.74-.32-1.33-.97-1.75-.45-.29-1.57-.66-3.36-1.11-2.41-.61-4.08-1.13-5.01-1.58-.93-.44-1.64-1.06-2.12-1.84-.48-.78-.72-1.65-.72-2.6,0-.86.2-1.66.59-2.4.39-.74.93-1.35,1.61-1.83.51-.38,1.21-.7,2.09-.96.88-.26,1.83-.39,2.84-.39,1.52,0,2.85.22,4,.66,1.15.44,2,1.03,2.54,1.78.55.75.92,1.75,1.13,3l-3.21.44c-.15-1-.57-1.78-1.27-2.34-.7-.56-1.69-.84-2.96-.84-1.51,0-2.58.25-3.23.75s-.97,1.08-.97,1.75c0,.43.13.81.4,1.15.27.35.69.64,1.26.88.33.12,1.3.4,2.9.84,2.32.62,3.94,1.13,4.86,1.52.92.39,1.64.97,2.16,1.72s.78,1.69.78,2.81-.32,2.13-.96,3.09c-.64.97-1.56,1.71-2.76,2.24-1.2.53-2.57.79-4.09.79-2.52,0-4.44-.52-5.76-1.57-1.32-1.05-2.16-2.6-2.53-4.65Z"/>
    <path class="cls-1" d="M165.92,130.42v-2.85c-1.51,2.19-3.56,3.28-6.15,3.28-1.14,0-2.21-.22-3.2-.66-.99-.44-1.73-.99-2.21-1.65-.48-.66-.82-1.47-1.01-2.44-.13-.64-.2-1.67-.2-3.06v-12h3.28v10.75c0,1.71.07,2.87.2,3.47.21.86.64,1.54,1.31,2.03.67.49,1.5.74,2.48.74s1.91-.25,2.77-.76c.86-.51,1.47-1.19,1.83-2.06.36-.87.54-2.13.54-3.78v-10.38h3.28v19.37h-2.94Z"/>
    <path class="cls-1" d="M174,130.42v-19.37h2.96v2.94c.75-1.37,1.45-2.28,2.09-2.72.64-.44,1.34-.66,2.11-.66,1.11,0,2.23.35,3.38,1.06l-1.13,3.05c-.8-.48-1.61-.71-2.41-.71-.72,0-1.36.22-1.93.65-.57.43-.98,1.03-1.22,1.8-.36,1.17-.55,2.44-.55,3.83v10.14h-3.28Z"/>
    <path class="cls-1" d="M199.16,128.03c-1.22,1.03-2.39,1.76-3.51,2.19-1.13.43-2.33.64-3.62.64-2.13,0-3.76-.52-4.91-1.56-1.14-1.04-1.71-2.37-1.71-3.99,0-.95.22-1.82.65-2.6.43-.78,1-1.41,1.7-1.89s1.49-.83,2.36-1.08c.64-.17,1.62-.33,2.92-.49,2.65-.32,4.6-.69,5.86-1.13.01-.45.02-.74.02-.86,0-1.34-.31-2.28-.93-2.83-.84-.74-2.09-1.11-3.74-1.11-1.54,0-2.69.27-3.42.81-.74.54-1.28,1.5-1.63,2.87l-3.21-.44c.29-1.37.77-2.48,1.44-3.33.67-.84,1.64-1.5,2.9-1.95,1.26-.46,2.73-.68,4.4-.68s3,.19,4.03.58,1.79.88,2.28,1.47c.49.59.83,1.34,1.02,2.23.11.56.16,1.57.16,3.03v4.38c0,3.05.07,4.98.21,5.79.14.81.42,1.58.83,2.33h-3.43c-.34-.68-.56-1.48-.66-2.39ZM198.89,120.7c-1.19.49-2.98.9-5.36,1.24-1.35.19-2.3.41-2.86.66s-.99.6-1.3,1.07c-.3.47-.46.99-.46,1.56,0,.88.33,1.61.99,2.19s1.63.88,2.91.88,2.39-.28,3.38-.83c.99-.55,1.71-1.31,2.17-2.27.35-.74.53-1.84.53-3.28v-1.2Z"/>
    <path class="cls-1" d="M207.33,130.42v-19.37h2.96v2.75c1.42-2.13,3.48-3.19,6.17-3.19,1.17,0,2.24.21,3.22.63.98.42,1.71.97,2.2,1.65s.83,1.49,1.02,2.43c.12.61.18,1.67.18,3.19v11.91h-3.28v-11.79c0-1.34-.13-2.34-.38-3-.26-.66-.71-1.19-1.36-1.59-.65-.39-1.41-.59-2.29-.59-1.4,0-2.61.44-3.62,1.33s-1.52,2.57-1.52,5.05v10.58h-3.28Z"/>
    <path class="cls-1" d="M240.79,123.32l3.23.42c-.35,2.23-1.26,3.97-2.71,5.23-1.45,1.26-3.24,1.89-5.35,1.89-2.65,0-4.78-.87-6.39-2.6-1.61-1.73-2.42-4.22-2.42-7.45,0-2.09.35-3.92,1.04-5.49s1.75-2.75,3.17-3.53c1.42-.78,2.96-1.18,4.62-1.18,2.1,0,3.83.53,5.16,1.6,1.34,1.06,2.2,2.58,2.57,4.53l-3.19.49c-.3-1.3-.84-2.28-1.61-2.94s-1.71-.99-2.8-.99c-1.65,0-3,.59-4.03,1.78-1.03,1.19-1.55,3.06-1.55,5.63s.5,4.49,1.5,5.67,2.3,1.77,3.9,1.77c1.29,0,2.37-.39,3.23-1.19s1.41-2.01,1.64-3.65Z"/>
    <path class="cls-1" d="M260.13,124.18l3.39.42c-.54,1.98-1.53,3.52-2.97,4.62-1.45,1.09-3.3,1.64-5.55,1.64-2.83,0-5.08-.87-6.74-2.62-1.66-1.74-2.49-4.19-2.49-7.34s.84-5.79,2.52-7.59c1.68-1.8,3.86-2.7,6.53-2.7s4.71.88,6.35,2.65c1.64,1.76,2.46,4.24,2.46,7.44,0,.19,0,.49-.02.88h-14.45c.12,2.13.72,3.76,1.81,4.89,1.08,1.13,2.43,1.7,4.05,1.7,1.2,0,2.23-.32,3.08-.95s1.53-1.64,2.03-3.03ZM249.35,118.87h10.82c-.15-1.63-.56-2.85-1.24-3.67-1.05-1.26-2.4-1.9-4.07-1.9-1.51,0-2.78.51-3.8,1.51-1.03,1.01-1.6,2.36-1.71,4.05Z"/>
  </g>
  <g>
    <path class="cls-1" d="M37.18,89.01c0-1.08.78-1.99,1.84-2.16,4.17-.57,5.56-2.33,5.56-6.99v-26.41c0-3.47-.83-4.2-3.23-4.2h-3.62c-1,0-1.78-.8-1.78-1.82,0-.91.61-1.65,1.5-1.76,4.34-.68,7.12-1.59,7.12-4.83,0-13.8,9.18-21.7,23.15-21.7,7.51,0,14.91,2.22,14.91,9.09,0,3.18-1.56,6.87-7.18,6.87-10.63,0-6.68-12.04-11.8-12.04-3.23,0-3.45,3.07-3.45,10.85v6.65c0,2.84,1.34,3.47,6.68,3.47h4.56c1.45,0,2.62,1.19,2.62,2.67s-1.22,2.67-2.67,2.67l-4.51-.11c-5.29-.11-6.68.62-6.68,4.43v26.19c0,4.77,1.45,6.53,7.34,7.04,1.11.11,1.95,1.02,1.95,2.1,0,1.19-.95,2.1-2.11,2.1h-28.04c-1.17.06-2.17-.91-2.17-2.1Z"/>
    <path class="cls-1" d="M70.68,67.59c0-17.32,13.97-24.99,26.88-24.99,11.02,0,19.98,5.62,19.98,14.88s-9.07,10.05-18.25,10.79l-8.12.62c-1.89.11-3,1.36-2.62,4.43.72,6.53,8.24,10.22,15.19,10.22,3.17,0,7.34-.8,10.85-3.92.89-.8,2.17-.8,3.06,0l.06.06c.89.8,1,2.22.28,3.12-3.17,3.98-10.91,8.97-21.42,8.97-12.96,0-25.87-7.61-25.87-24.2ZM95.77,64.3c7.18-.74,8.62-2.61,8.62-6.76,0-5.06-2.06-10.11-7.51-10.11-6.07,0-8.46,6.13-8.46,12.04,0,3.58.72,5.4,3.56,5.28l3.78-.45Z"/>
    <path class="cls-1" d="M124.09,76.06v-23.12c0-3.69-.83-4.43-3.23-4.43h-2.84c-1.06,0-1.89-.85-1.89-1.87,0-.85.56-1.59,1.39-1.82,7.73-2.1,11.63-5.96,14.97-11.47.83-1.36,1.56-1.82,2.89-1.82h1.89c1.56,0,2.5.97,2.5,2.56l-.11,6.53c0,2.33,1.17,2.95,6.45,2.95h4.12c1.5,0,2.67,1.19,2.67,2.73s-1.28,2.78-2.84,2.73l-3.95-.23c-5.29-.34-6.45.62-6.45,4.43v22.38c0,5.79.72,9.71,4.79,9.71.95,0,3-.17,4.79-1.02.95-.4,2-.17,2.62.68.67.91.5,2.16-.33,2.9-2.84,2.44-7.12,3.86-12.07,3.86-9.63-.06-15.36-5.45-15.36-15.68Z"/>
    <path class="cls-1" d="M150.64,67.48c0-17.21,13.97-24.94,26.65-24.94,11.8,0,20.2,6.76,20.2,14.37,0,3.46-1.67,7.27-6.96,7.27-5.73,0-7.07-4.43-7.62-7.16-.5-3.81.11-9.6-6.34-9.6-6.9,0-9.18,6.53-9.18,14.03,0,13.06,6.9,21.98,17.08,21.98,2.39,0,5.73-.57,8.85-3.98.72-.8,1.89-.85,2.73-.23.89.62,1.17,1.87.56,2.84-2.78,4.43-9.9,9.77-20.25,9.77-12.58-.06-25.71-8.01-25.71-24.37Z"/>
    <path class="cls-1" d="M262.53,79.69c-.5,0-1.06.23-1.5.74-2,2.1-3.28,3.07-5.34,3.07-.61,0-1.11-.06-1.56-.23-1.22-.45-1.5-1.82-1.62-2.39v-20.28c0-15.39-7.62-18.46-15.02-18.46s-11.8,3.07-14.36,6.53c-1.22,1.7-3.56,1.08-3.56-2.56v-19.71c0-3.18-1.67-4.77-5.23-4.2l-15.13,2.56c-1.06.17-1.84,1.08-1.84,2.16,0,1.19.89,2.1,2.06,2.22,2.73.17,4.51,1.53,4.51,5.51v44.76c0,4.94-1.34,6.82-4.9,7.38-1,.17-1.78,1.08-1.78,2.16,0,1.19.95,2.16,2.17,2.16h24.43c1.17,0,2.17-.97,2.17-2.16,0-1.02-.72-1.93-1.72-2.16-3.39-.62-4.73-2.44-4.73-7.38v-16.36c0-6.25,2.89-11.53,8.62-11.53s8.62,5.28,8.62,11.53v17.1c0,5.96,2.78,9.6,7.07,10.96.22.11.5.17.78.23h.11c.11,0,.22.06.39.11.11,0,.17,0,.28.06.56.11,1.11.17,1.72.23,3.45.28,6.12-.17,6.12-.17,4.12-.57,6.62-2.27,8.57-5,.95-1.36,2.17-3.58,2.17-5.11.11-1.08-.61-1.76-1.5-1.76Z"/>
    <path class="cls-1" d="M259.51,42.33c-.85,0-1.61-.19-2.28-.56-.65-.39-1.16-.91-1.53-1.58-.37-.68-.55-1.45-.55-2.31s.18-1.61.55-2.29c.37-.68.88-1.2,1.53-1.58.67-.39,1.43-.58,2.28-.58s1.58.19,2.24.58c.67.37,1.18.9,1.55,1.58.37.68.55,1.44.55,2.29s-.18,1.63-.55,2.31c-.37.66-.89,1.19-1.55,1.58-.66.37-1.4.56-2.24.56ZM259.51,41.44c1.02,0,1.84-.33,2.47-.99.62-.66.94-1.52.94-2.57s-.31-1.88-.94-2.55c-.63-.66-1.45-.99-2.47-.99s-1.87.33-2.49.99c-.63.66-.94,1.51-.94,2.55s.31,1.91.94,2.57c.63.66,1.45.99,2.49.99ZM257.75,40.15v-4.62h2.13c.47,0,.84.13,1.13.39.28.26.43.61.43,1.06,0,.7-.34,1.16-1,1.36l1.19,1.81h-1.32l-1.04-1.75h-.38v1.75h-1.13ZM258.87,37.53h.85c.15,0,.29-.04.4-.11.11-.09.17-.22.17-.41,0-.17-.06-.29-.17-.37-.11-.07-.25-.11-.4-.11h-.85v.99Z"/>
  </g>
</svg>