<?xml version="1.0" encoding="UTF-8"?>
<svg id="Layer_1" data-name="Layer 1" xmlns="http://www.w3.org/2000/svg" viewBox="0 0 300 150">
  <defs>
    <style>
      .cls-1 {
        fill: #255061;
      }
    </style>
  </defs>
  <g id="Layer_2-2" data-name="Layer 2-2">
    <g id="Layer_1-2" data-name="Layer 1-2">
      <path class="cls-1" d="M236.66,118c-2.61-.43-1.38-3.17-.87-4.81-1.1.24-5.54.56-5.93-.71-.44-1.43,2.04-5.73,2.23-7.52.08-.73-.22-1.05-.93-.69-.93,2.92-1.71,6.8-3.66,9.21-5.82,7.19-21.81,4.76-29.86,3.31-1.66-.3-4.98-.74-6.4-1.29-.3-.11-.55-.16-.48-.57l7.61.2c7.93-.48,18.45-1.08,21.36-10.02,4.14-12.73,2.97-25.39,15.35-34.1,4.79-3.38,10.58-4.35,15.05-8.04,1.89-1.57,4.92-4.54,5.98-6.72,1.64-3.38,1.43-8.23,5.86-9.63.29-.26-.01-.35-.29-.39-.97-.12-1.99-.07-3.03-.25-5.51-.93-10.32-4.32-9.98-10.39l.39-.24,18.5,9.24c4.05,2.34,7.08,6.23,10,9.81-.41.89-1.04,2.3-2.1,2.53-.72.15-2.1-.42-2.99-.5-1.94-.17-4.8-.12-6.34,1.16-1.66,1.38-5.05,7.74-5.28,9.92-.46,4.61,2.48,5.65,5.18,8.44.99,1.02,2.19,2.36,3.07,3.47,1.55,1.95,3.49,4.52,3.85,7.02-2.69-2.53-5.01-5.88-8.02-8.05-.5-.36-1.76-1.22-2.28-1.38-.69-.21.08.69.14.82,1.66,3.97,1.78,9.15.25,13.21-.8,2.12-1.78,2.73-4.04,2.89-.96.07-5.62-.35-6.15-.97-1.25-1.47.69-5.61,2.86-5.56,1.31.03,4.59,2.45,5.87.44.8-1.26-.65-2.1-1.29-3.09-1.34-2.1-1.51-3.81-4.26-4.59-.48-.14-.95-.07-1.5-.24-2.27-.71-5.06-3.13-7.36-3.8-.26-.08-.5-.12-.77-.09-.07,3.23,2.72,4.69,5.58,4.9-1.29.91-1.43,2.43-2.08,3.69-.72,1.4-2.29,3.17-3.49,4.2-.44.38-1.21,1.16-1.72.96-1.45-.56-4.54-3.11-5.37-4.46-.27-.44-.22-1.33-.8-1.22-.72,2.2,1.82,4.19,3.4,5.35,4.2,3.08,11.87,5.96,17.09,5.62.56-.04,1.11-.17,1.63-.39.09.33-.14.39-.29.57-2.94,3.78-7.54,6.14-12.12,7.31-.99,2.54-2.22,4.96-3.75,7.22,3.24-.2,6.78.7,8.85,3.37h-11.26c-.16,0-.39.48-.29.67.16.28.38.27.66.3,7.75.89,16.78-3.49,23.48,2.3l1.65,1.53h-30.88v.03h0ZM254.84,79.71l-3.75-5.58-.67-.2c-.26.8-.67,2.3-.29,3.08.14.29,2.03,1.33,2.47,1.57.29.16,2.15,1.21,2.25,1.12h0ZM235.02,110.3c.48.12,1.46.44,1.83,0l1.25-4.24c-.39.49-3.24,4-3.08,4.23h0Z"/>
      <path class="cls-1" d="M265.8,42.57l-9.32-4.63c-.7-1.71-.61-3.75.13-5.43.2-.46.57-1.32,1.11-.62l8.08,10.67h0Z"/>
      <path class="cls-1" d="M258.62,107.21c0,2.2-1.78,3.98-3.98,3.98s-3.98-1.78-3.98-3.98,1.78-3.98,3.98-3.98,3.98,1.78,3.98,3.98ZM258.04,107.21c0-1.88-1.53-3.41-3.41-3.41s-3.41,1.53-3.41,3.41,1.53,3.41,3.41,3.41,3.41-1.53,3.41-3.41Z"/>
      <path class="cls-1" d="M253.21,104.85c.95.05,2.62-.3,2.92.95.18.72-.1,1.38-.79,1.68l1.26,2.1h-.95l-1.09-1.87h-.51v1.87h-.86v-4.74h0ZM254.07,107.01h.64s.16-.04.2-.05c.27-.09.4-.29.43-.57.07-.87-.6-.82-1.26-.82v1.44h0Z"/>
      <path class="cls-1" d="M114.12,108.85c4.86-.11,12.35,3.04,13.31-3.96-4.5-.08-9.13.7-13.12-1.85-5.97-3.81-5.73-17.41.67-20.8,4.22-2.24,15.4-3.35,18.06,1.51,1.83,3.35,1.61,23.22-.37,26.68-2.92,5.11-13.16,5.28-17.9,2.76l-.65-4.33h0ZM126.76,86.34c-12.97-5.01-14.33,15.47-1.1,13.14l1.1-.89v-12.25h0Z"/>
      <path class="cls-1" d="M29.59,90.32c6-2.57,8.72-12.12,16.64-9.26,1.42,1.63-8.14,9.19-9.31,10.92l9.96,11.26c-7.84,4.62-10.69-4.41-15.28-8.63-.66-.61-.94-1.21-2.02-.97v10.6c-2.71.74-5.73,1.78-6.5-1.8-.93-4.26-.67-23.43-.19-28.37.42-4.22,3.37-4.75,6.69-2.61v18.88h0Z"/>
      <path class="cls-1" d="M66.53,90.32l.71-1.34c-1.74-6.2-11.61-1.42-13.73-2.92-.89-.63-.91-3.55-.33-4.39.44-.63,7.55-1.95,8.72-1.97,4.36-.05,9.9,2.05,11.44,6.49s2.36,16.97-4.19,17.99c-2.54.4-11.24.34-13.63-.27-6.57-1.69-4.94-13.59,1.01-13.59h10ZM66.87,94.95l-8.23.1c-4.12,5.56,3.15,4.76,7.14,4.45,1.65-.54,1.02-3.12,1.1-4.54h0Z"/>
      <path class="cls-1" d="M197.14,80.54c6-1.01,12.4-.12,14.94,6,4.98,11.95-4.81,21.92-16.93,17.5-9.7-3.53-8.83-21.69,1.98-23.5ZM199.83,85.81c-6.87.99-5.95,14.36,1.66,13.63,7.05-.67,6.93-14.87-1.66-13.63Z"/>
      <path class="cls-1" d="M146.73,96.61c.97,4.54,10.65,3.12,10.65,0v-14.57c2.02-2.19,4.66-2.15,6.65,0v15.23c0,.26-1.36,3.12-1.69,3.61-3.8,5.58-16.8,5.54-20.57,0-.33-.49-1.69-3.35-1.69-3.61v-15.23c2.02-2.19,4.66-2.15,6.65,0v14.57h0Z"/>
      <path class="cls-1" d="M80.17,88.66c1.1-7.78,8.92-9.13,15.58-8.22,3.12.43,8.38,3.47,8.38,6.89v15.89c-1.43,1.56-5.22,1.56-6.65,0v-14.57c0-3.86-10.65-4.3-10.65.66v13.91c-.72,1.65-6.65,1.27-6.65,0,.46-4.55-.63-10.17,0-14.57h0Z"/>
      <path class="cls-1" d="M176.53,104.07c-1.33,1.32-5.67,1.37-6.37-.97-.55-1.88-.39-15.27.03-17.6.99-5.51,9.06-5.14,13.4-5.03,3.38,5.15.02,6.53-5.14,5.95l-.99.99c-.72,3.19.99,14.75-.91,16.64h0s0,.01,0,.01Z"/>
    </g>
  </g>
</svg>