<?xml version="1.0" encoding="UTF-8"?><svg id="Layer_2" xmlns="http://www.w3.org/2000/svg" viewBox="0 0 444.69 310.18"><defs><style>.cls-1{fill:#2a392e;}</style></defs><g id="Layer_2-2"><path class="cls-1" d="M27.9,296.09c-.66,1.5-1.86,2.7-3.36,3.36-.79.33-1.63.49-2.48.48h-5.78v9.86h-2.3v-25.69h8.11c.85,0,1.69.17,2.48.48.74.33,1.42.79,2,1.36.58.58,1.05,1.27,1.36,2.03.33.77.5,1.61.48,2.45v3.03c.02.9-.15,1.8-.51,2.63h0ZM26.09,290.43c0-.55-.12-1.1-.33-1.6-.21-.48-.51-.92-.87-1.3-.37-.38-.81-.68-1.3-.87-.5-.23-1.05-.34-1.6-.33h-5.69v11.4h5.72c.56.01,1.1-.1,1.6-.33.49-.2.93-.5,1.3-.87.38-.37.67-.81.87-1.3.22-.51.33-1.05.33-1.6l-.03-3.19h0Z"/><path class="cls-1" d="M49.23,309.8v-25.69h14.46v2.21h-12.1v9.53h9.83v2.21h-9.86v9.53h12.1v2.21h-14.43Z"/><path class="cls-1" d="M90.77,286.32v23.48h-2.3v-23.48h-6.05v-2.21h14.55v2.21h-6.2Z"/><path class="cls-1" d="M141.87,309.8v-25.69h2.33v25.69h-2.33Z"/><path class="cls-1" d="M179.65,309.8l-10.65-18.57-.21-1.12v19.82h-2.3v-25.81h1.21l10.71,18.73.21,1.09v-19.82h2.33v25.69h-1.31,0Z"/><path class="cls-1" d="M217.35,303.87c0,.85-.18,1.68-.54,2.45-.35.74-.83,1.42-1.42,2-.59.59-1.29,1.05-2.06,1.36-.79.33-1.63.49-2.48.48h-1.84c-.85.01-1.7-.15-2.48-.48-.76-.33-1.46-.79-2.06-1.36-.59-.58-1.06-1.25-1.42-2-.34-.77-.51-1.61-.51-2.45v-1.03l2.3-.4v1.42c0,.56.12,1.11.36,1.6.24.48.56.92.94,1.3.4.37.86.67,1.36.87.52.22,1.07.33,1.63.33h1.63c.56,0,1.12-.12,1.63-.33.5-.21.96-.51,1.36-.87.38-.38.7-.82.94-1.3.22-.51.33-1.05.33-1.6v-.79c.02-.77-.16-1.53-.51-2.21-.35-.59-.82-1.1-1.39-1.48-.6-.43-1.25-.79-1.94-1.06l-2.24-.85c-.76-.3-1.48-.6-2.21-.97-.72-.31-1.37-.76-1.94-1.3-.6-.53-1.07-1.18-1.39-1.9-.38-.87-.56-1.81-.51-2.75v-.48c0-.84.15-1.68.48-2.45.32-.76.78-1.45,1.36-2.03.57-.57,1.25-1.02,2-1.33.79-.34,1.63-.51,2.48-.51h1.66c.85,0,1.68.17,2.45.51.76.3,1.45.75,2.03,1.33s1.02,1.27,1.33,2.03c.34.77.51,1.61.51,2.45v.67l-2.33.36v-1.03c0-.55-.09-1.09-.3-1.6-.21-.48-.51-.92-.87-1.3-.38-.36-.82-.66-1.3-.87-.51-.22-1.05-.33-1.6-.33h-1.45c-.55,0-1.1.12-1.6.33-.48.22-.92.51-1.3.87-.38.37-.67.81-.87,1.3-.22.51-.33,1.05-.33,1.6v.48c-.02.72.15,1.43.51,2.06.36.57.83,1.07,1.39,1.45.6.42,1.25.76,1.94,1.03l2.24.91c.76.3,1.51.63,2.24,1,.7.36,1.35.81,1.94,1.33.59.55,1.05,1.22,1.36,1.97.38.87.57,1.83.54,2.78l-.02.78h-.03Z"/><path class="cls-1" d="M252.27,306.34c-.66,1.5-1.86,2.7-3.36,3.36-.77.33-1.61.5-2.45.48h-1.84c-.84.01-1.68-.15-2.45-.48-.76-.32-1.45-.78-2.03-1.36s-1.02-1.25-1.33-2c-.34-.77-.51-1.61-.51-2.45v-19.79h2.33v19.76c0,.55.09,1.09.3,1.6.22.48.53.93.91,1.3s.82.67,1.3.87c.51.22,1.05.33,1.6.33h1.6c.55,0,1.1-.11,1.6-.33.49-.2.93-.5,1.3-.87.36-.38.66-.82.87-1.3.22-.51.33-1.05.33-1.6v-19.76h2.3v19.76c.02.86-.15,1.7-.47,2.48h0Z"/><path class="cls-1" d="M286.85,309.8l-6.99-10.95h-3.03v10.95h-2.33v-25.69h8.02c1.67-.02,3.29.64,4.45,1.84.58.58,1.05,1.27,1.36,2.03.33.77.5,1.61.48,2.45v2.09c.01.84-.15,1.68-.48,2.45-.32.76-.78,1.45-1.36,2.03s-1.25,1.02-2,1.33c-.77.34-1.61.51-2.45.51l6.96,10.95h-2.63ZM286.55,290.43c0-.55-.12-1.1-.33-1.6-.21-.48-.51-.92-.87-1.3-.8-.8-1.89-1.24-3.03-1.21h-5.72v10.32h5.93c.55,0,1.1-.11,1.6-.33.49-.2.93-.5,1.3-.87.37-.38.67-.82.87-1.3.22-.51.33-1.05.33-1.6l-.09-2.09v-.02h.01Z"/><path class="cls-1" d="M319.98,303.81h-8.11l-1.7,6.05h-2.39l7.5-25.69h1.24l7.53,25.69h-2.21l-1.87-6.05h.01ZM312.47,301.63h6.9l-3.39-11.86v-.94.94l-3.51,11.86h0Z"/><path class="cls-1" d="M357.04,309.8l-10.71-18.57-.21-1.12v19.82h-2.3v-25.81h1.18l10.71,18.73.24,1.09v-19.82h2.21v25.69h-1.12Z"/><path class="cls-1" d="M394.16,306.34c-.66,1.5-1.86,2.7-3.36,3.36-.77.33-1.61.5-2.45.48h-1.84c-.84.01-1.68-.15-2.45-.48-.76-.33-1.44-.79-2.03-1.36-.57-.57-1.02-1.25-1.33-2-.34-.77-.51-1.61-.51-2.45v-13.83c0-.85.17-1.68.51-2.45.31-.76.76-1.45,1.33-2.03.58-.57,1.27-1.03,2.03-1.33.77-.34,1.61-.51,2.45-.51h1.9c.85,0,1.68.17,2.45.51.74.31,1.42.76,2,1.33.58.58,1.05,1.27,1.36,2.03.33.77.5,1.61.48,2.45v1.15l-2.3.36v-1.39c0-.55-.11-1.1-.33-1.6-.41-.98-1.2-1.76-2.18-2.18-.51-.22-1.05-.33-1.6-.33h-1.6c-.55,0-1.1.11-1.6.33-.48.21-.92.51-1.3.87-.83.78-1.28,1.89-1.21,3.03v13.8c0,.55.09,1.09.3,1.6.23.48.54.92.91,1.3.38.37.82.67,1.3.87.51.22,1.05.33,1.6.33h1.6c.55,0,1.1-.11,1.6-.33.49-.2.93-.5,1.3-.87.36-.38.66-.82.87-1.3.22-.51.33-1.05.33-1.6v-1.42l2.3.4v1.03c-.04.78-.22,1.54-.54,2.24h.01Z"/><path class="cls-1" d="M416.21,309.8v-25.69h14.55v2.21h-12.1v9.53h9.83v2.21h-9.83v9.53h12.1v2.21h-14.55Z"/><rect class="cls-1" x="13.93" y="273.67" width="416.83" height="1.57"/><path class="cls-1" d="M99.53.01h-26.71c-4.44,0-8.03,3.6-8.03,8.03v88.84c0,4.89,3.96,8.85,8.85,8.85h0c4.88-.03,8.83-3.98,8.85-8.85v-32.39h2.66c-.03.32-.03.65,0,.97l12.49,34.9c1.21,3.12,4.23,5.15,7.57,5.12h2.71c4.44,0,8.04-3.59,8.05-8.02,0-.93-.16-1.85-.47-2.72l-11.16-31.11c8.12-2.25,13.75-9.64,13.77-18.06v-26.83C118.1,8.45,109.81.09,99.53,0h0ZM82.49,44.79v-24.87c0-1.48,1.18-2.68,2.66-2.71h10.24c4.44,0,8.03,3.6,8.03,8.03v14.23c-.08,4.38-3.66,7.88-8.03,7.88h-10.24c-1.42-.03-2.58-1.14-2.66-2.56Z"/><path class="cls-1" d="M174.19.01h-1.54c-4.44,0-8.03,3.6-8.03,8.03v74.61c.14,2.82-2.03,5.23-4.86,5.37-.09,0-.17,0-.26,0h-7.32c-2.83,0-5.12-2.28-5.12-5.11V8.04C147.06,3.6,143.46.01,139.03.01h-1.69c-4.44,0-8.03,3.6-8.03,8.03v81.57c0,8.88,7.19,16.09,16.07,16.12h20.78c8.87,0,16.07-7.19,16.07-16.07V8.04C182.23,3.61,178.62,0,174.18,0h0Z"/><path class="cls-1" d="M228.59.01h-26.15c-4.44,0-8.03,3.6-8.03,8.03v89.61c0,4.45,3.59,8.06,8.03,8.09h26.15c10.36-.03,18.75-8.42,18.78-18.78V18.74C247.34,8.39,238.94.01,228.59.01ZM229.67,79.94c.14,4.46-3.36,8.2-7.83,8.34h-7.02c-1.5,0-2.71-1.21-2.71-2.71V20.37c0-1.47,1.19-2.66,2.66-2.66h6.81c4.44-.03,8.06,3.55,8.09,7.98v54.25h0Z"/><path class="cls-1" d="M372.55.01h-1.64c-4.44,0-8.03,3.6-8.03,8.03h0v53.43l-20.83-56.29c-1.23-3.11-4.23-5.14-7.57-5.12h-5.42c-4.4.03-7.96,3.59-7.98,7.98v89.61c-.03,4.44,3.55,8.06,7.98,8.09h1.69c4.44,0,8.03-3.6,8.03-8.03v-53.64l20.93,56.29c1.2,3.11,4.19,5.15,7.52,5.12h5.37c4.44,0,8.03-3.6,8.03-8.03V8.04c0-4.44-3.6-8.03-8.03-8.03h-.05,0Z"/><path class="cls-1" d="M302.59.01h-34.54c-4.44,0-8.03,3.6-8.03,8.03v89.61c0,4.45,3.59,8.06,8.03,8.09h34.54c4.46.08,8.15-3.47,8.24-7.93v-1.74c-.14-4.42-3.82-7.89-8.24-7.78h-22.16c-1.5,0-2.71-1.21-2.71-2.71v-22.01c0-1.5,1.21-2.71,2.71-2.71h13.71c4.44,0,8.03-3.6,8.03-8.03v-1.64c0-4.44-3.6-8.03-8.03-8.03h-13.71c-1.47.03-2.68-1.14-2.71-2.61v-20.17c0-1.47,1.19-2.66,2.66-2.66h22.21c4.46.08,8.15-3.47,8.24-7.93v-1.75c0-4.44-3.59-8.04-8.03-8.04h-.21Z"/><path class="cls-1" d="M436.57.01h-39.56c-4.44,0-8.03,3.6-8.03,8.03h0v1.64c.03,4.43,3.61,8.01,8.03,8.03h11.05v79.94c-.03,4.44,3.55,8.06,7.98,8.09h1.69c4.45-.03,8.03-3.64,8.03-8.09V17.72h10.9c4.44,0,8.03-3.6,8.03-8.03h0v-1.65C444.69,3.6,441.09.01,436.66,0h-.09Z"/><path class="cls-1" d="M34.74.01H8.03C3.59.01,0,3.61,0,8.04v88.84c0,4.89,3.96,8.85,8.85,8.85h.05c4.88-.03,8.83-3.98,8.85-8.85v-32.39h17.04c10.35,0,18.75-8.38,18.78-18.73v-27.02C53.54,8.37,45.11-.02,34.74.01h0ZM38.53,39.41c-.08,4.39-3.65,7.91-8.03,7.93h-10.24c-1.47,0-2.66-1.19-2.66-2.66v-24.76c-.03-1.47,1.14-2.68,2.61-2.71h10.29c4.45.03,8.03,3.64,8.03,8.09v14.11h0Z"/><path class="cls-1" d="M165.26,141.45h-26.71c-4.44,0-8.03,3.6-8.03,8.03v88.84c0,4.89,3.96,8.85,8.85,8.85h.05c4.88-.03,8.83-3.98,8.85-8.85v-32.39h17.04c10.35,0,18.75-8.38,18.78-18.73v-27.02c-.03-10.37-8.46-18.76-18.83-18.73h0ZM169.06,180.85c-.08,4.39-3.65,7.91-8.03,7.93h-10.24c-1.47,0-2.66-1.19-2.66-2.66v-24.76c-.03-1.47,1.14-2.68,2.61-2.71h10.29c4.45.03,8.03,3.64,8.03,8.09v14.11h0Z"/><path class="cls-1" d="M240.55,142.37h-34.54c-4.44,0-8.03,3.6-8.03,8.03v89.61c0,4.45,3.59,8.06,8.03,8.09h34.54c4.46.08,8.15-3.47,8.24-7.93v-1.74c-.14-4.42-3.82-7.89-8.24-7.78h-22.16c-1.5,0-2.71-1.21-2.71-2.71v-22.01c0-1.5,1.21-2.71,2.71-2.71h13.71c4.44,0,8.03-3.6,8.03-8.03v-1.64c0-4.44-3.6-8.03-8.03-8.03h-13.71c-1.47.03-2.68-1.14-2.71-2.61v-20.17c0-1.47,1.19-2.66,2.66-2.66h22.21c4.46.08,8.15-3.47,8.24-7.93v-1.75c0-4.44-3.59-8.04-8.03-8.04h-.21Z"/><path class="cls-1" d="M306.04,141.58h-39.56c-4.44,0-8.03,3.6-8.03,8.03h0v1.64c.03,4.43,3.61,8.01,8.03,8.03h11.05v79.94c-.03,4.44,3.55,8.06,7.98,8.09h1.69c4.45-.03,8.03-3.64,8.03-8.09v-79.93h10.9c4.44,0,8.03-3.6,8.03-8.03h0v-1.65c0-4.44-3.6-8.03-8.03-8.04h-.09Z"/></g></svg>