<?xml version="1.0" encoding="UTF-8"?>
<svg id="Layer_1" data-name="Layer 1" xmlns="http://www.w3.org/2000/svg" viewBox="0 0 300 150">
  <defs>
    <style>
      .cls-1 {
        fill: #255061;
      }

      .cls-2 {
        fill: #ddd;
      }

      .cls-3 {
        fill: #ababab;
      }

      .cls-4 {
        fill: #d1d1d1;
      }
    </style>
  </defs>
  <g id="Layer_2-2" data-name="Layer 2-2">
    <g id="Layer_2-2-2" data-name="Layer 2-2">
      <path class="cls-4" d="M115.49,98.57c-.04.6-.04,1.19,0,1.79,1.89-2.25,4.24-4.06,6.9-5.31l-1.54-1.69c-1.35.93-2.89,1.57-4.51,1.86-.38,1.09-.66,2.21-.84,3.35Z"/>
      <path class="cls-4" d="M149.8,114.22c-.2-3.82-1.56-7.49-3.89-10.52-2.48-2.91-5.92-4.85-9.7-5.45-5.38-1.08-10.96.27-15.25,3.7-5.28,4.57-8.09,14.63-2.98,20.39,3.85,4.37,10.94,5.65,16.52,5.21,3.84-.22,7.54-1.43,10.76-3.52,3.13-2.24,4.86-5.96,4.54-9.8h0s0-.01,0-.01Z"/>
      <path class="cls-4" d="M145.95,91.08l-3.45,3.77c2.73,1.22,5.17,3.03,7.12,5.31.05-.68.05-1.37,0-2.06-.06-.51-.14-1.01-.25-1.51,0-.49-.25-.99-.38-1.46-.4-1.33-.93-2.61-1.56-3.85-.03-.07-.07-.12-.12-.18h-.42c-.09-.02-.18-.02-.27,0h0c-.22-.08-.45-.09-.67-.02h0Z"/>
      <path class="cls-2" d="M91.88,109.31c-3.45-3.65-4.83-8.79-3.67-13.67,1.01-4.58,4.94-7.93,9.63-8.19-.44-.93-.8-1.9-1.04-2.9-.13-.53-.22-1.05-.27-1.59-.02-.27-.02-.53,0-.8,0-.64.15-.64-.4-.89-1.01-.29-2.05-.48-3.1-.55l-3.13-.42c-1.9-.24-3.82-.3-5.73-.18l-2.78.32-1.62.22c-.57-.02-1.13.08-1.66.27-.27.2,0,.94,0,1.39.04.52.04,1.04,0,1.56-.13,1.04-.39,2.05-.77,3.03-.54,1.49-1.3,2.9-2.26,4.17-1.92,2.43-4.62,4.11-7.64,4.79-.62.15-.6.18-.7.82l-.22,1.51c-.18,1.07-.29,2.11-.42,3.17-.27,2.09-.43,4.19-.47,6.3-.25,1.8-.16,3.64.25,5.41.73,1.84,1.73,3.55,2.95,5.11,4.63,6.08,12.13,10.39,19.97,9.15,4.08-.76,7.87-2.66,10.92-5.48,3.49-2.74,5.94-6.6,6.92-10.94-4.62,3.88-10.75,2.27-14.76-1.63h0s0-.01,0-.01Z"/>
      <path class="cls-2" d="M64.45,91.15c3.55-.26,6.62-2.62,7.77-6,.76-1.97.67-4.17-.22-6.08-.64-1.31-1.98-3.22-3.65-3.2-1.66.02-2.03,1.69-2.63,2.8-.87,1.59-2.03,2.98-3.45,4.09-1.53,1.24-3.28,2.21-4.69,3.55-.77.75-1.86,2.06-1.26,3.2s2.48,1.29,3.5,1.46c1.52.26,3.08.31,4.63.18h0Z"/>
      <path class="cls-2" d="M101.85,83.81c.94,3.59,4.02,6.23,7.71,6.62,2.51.38,5.07.1,7.44-.82,3.82-1.76-2.48-5.71-3.82-6.73-1.49-.99-2.78-2.24-3.82-3.7-.8-1.19-1.24-3.37-2.7-3.92s-2.95.97-3.7,2.08c-1.34,1.86-1.75,4.25-1.12,6.46h0Z"/>
      <path class="cls-3" d="M101.38,90.71c-1.03-.44-2.13-.67-3.25-.7-.93,0-1.85.18-2.7.52-4.46,1.79-6.32,7.62-4.19,13.02,1.07,2.83,3.21,5.11,5.95,6.37,1.86.83,3.98.91,5.91.2,4.46-1.79,6.32-7.64,4.19-13.05-1.07-2.81-3.19-5.09-5.91-6.37h0Z"/>
      <path class="cls-1" d="M140.3,117.89c-.41-.19-.9-.01-1.09.4-.01.02-.02.05-.03.07,0,.12-1.39,3.22-6.15,1.39-.13-.06-.28-.1-.42-.12-.15.02-.29.06-.42.12-4.63,1.79-6.03-1.07-6.15-1.42-.24-.42-.77-.56-1.19-.32-.35.2-.51.61-.4.99.92,1.89,2.86,3.07,4.96,3.03,1.05.01,2.08-.15,3.08-.49,1,.39,2.07.6,3.15.62,2.1.04,4.03-1.14,4.96-3.03.27-.4.16-.93-.24-1.2-.03-.02-.05-.02-.07-.04h0Z"/>
      <ellipse class="cls-1" cx="139.46" cy="110.4" rx="1.86" ry="2.21"/>
      <ellipse class="cls-1" cx="125.49" cy="110.4" rx="1.86" ry="2.21"/>
      <path class="cls-1" d="M132.12,119.07c.13.21.41.26.62.12.05-.04.09-.08.12-.12l1.96-3.39c.08-.13.08-.29,0-.42-.07-.14-.21-.23-.38-.22h-3.92c-.15,0-.31.08-.38.22-.08.13-.08.29,0,.42l1.96,3.39h.01,0Z"/>
      <path class="cls-1" d="M154.73,112.16c0-.89-.29-1.79-.49-2.68,0-.47-.25-.94-.4-1.42-.21-.44-.36-.89-.44-1.36.16-.85.42-1.68.77-2.48.26-.99.44-2.01.55-3.03.21-3.52-.42-7.02-1.84-10.24-1.09-2.66-2.68-4.96-5.83-5.31-2.18-.06-4.26.94-5.58,2.68l-3.8,4.19c-.7.77-.7.62-1.81.47-1.81-.16-3.63-.16-5.43,0l-1.64.18c-.27,0-1.02.29-1.24.2-.22-.1-.27-.29-.35-.4l-1.79-2.13c-.57-.64-1.29-1.26-1.81-1.96-.52-.7-.27-1.79-.52-2.7-1.01-2.65-2.88-4.87-5.31-6.32-1.29-.81-2.48-1.76-3.57-2.83-.67-.87-1.24-1.82-1.66-2.83-1.3-2.64-4.03-4.26-6.97-4.15-3.39.49-6.29,2.71-7.66,5.86-.25.47-.27.44-.77.35l-1.02-.2-2.31-.4c-1.84-.27-3.67-.49-5.53-.64-3.6-.19-7.23.08-10.76.81-.35.12-.72.2-1.09.2-.32,0-.52-.62-.77-.94-.54-.83-1.2-1.59-1.96-2.24-1.2-1.11-2.72-1.83-4.34-2.06-3.06-.4-6.05,1.18-7.44,3.94-.45,1.01-1.01,1.98-1.66,2.88-1.06,1.09-2.25,2.04-3.55,2.83-2.4,1.45-4.28,3.63-5.36,6.22-1.11,3.71,1,7.62,4.71,8.74.15.05.29.08.44.11,1.56.47,3.16.74,4.79.8-.57,3.28-.93,6.6-1.07,9.92-.23,2.72.02,5.45.75,8.09,3.69,9.34,11.9,16.14,21.75,18.06,5.62.8,11.35-.41,16.17-3.39,4.84-2.96,8.76-7.19,11.33-12.25.89,10.29,10.64,15.18,19.84,15.95,6.96.8,13.94-1.16,19.47-5.45,4.21-3.79,6.17-9.48,5.18-15.06h.01s0-.01,0-.01ZM145.95,91.08c1.12-1.22,1.98,1.39,2.24,2.01.97,2.23,1.46,4.63,1.44,7.07-1.95-2.28-4.37-4.09-7.12-5.31l3.45-3.77h0ZM120.68,93.36l1.53,1.69c-2.66,1.25-5.01,3.06-6.9,5.31,0-.99.1-1.98.29-2.95,0-.4.15-.77.25-1.14s.12-.47.2-.7.15-.47.47-.42c.67-.35,1.53-.42,2.26-.72.67-.28,1.3-.64,1.89-1.07h0ZM64.45,91.15c-2.57.42-5.22.04-7.57-1.09-2.85-1.88,2.78-5.39,3.99-6.25,1.6-1.05,2.99-2.37,4.12-3.92.8-1.19,1.22-3.35,2.68-3.89,1.46-.54,2.78.77,3.55,1.81,1.22,1.65,1.74,3.7,1.44,5.73-.65,4.13-4.05,7.28-8.21,7.62h0ZM106.26,112.96c-2.84,6.96-8.79,12.19-16.05,14.14-7.59,1.45-15.35-1.42-20.19-7.44-2.7-2.74-4.35-6.34-4.69-10.17-.06-4.08.28-8.16,1.02-12.18,0-.38,0-1.04.32-1.24.32-.12.67-.21,1.02-.25.85-.21,1.68-.5,2.48-.87,1.3-.62,2.5-1.46,3.52-2.48,2.38-2.4,3.88-5.54,4.24-8.9.04-.59.04-1.17,0-1.76-.02-.26-.02-.51,0-.77.36-.11.72-.18,1.09-.2l3.5-.47c2-.26,4.02-.31,6.03-.12,2.28.22,4.54.52,6.8.94.2,0,.57,0,.77.15s.38.25.4.89c.02.6.1,1.19.22,1.79.24,1.21.63,2.38,1.16,3.5-4.7.22-8.66,3.55-9.7,8.14-1.14,4.89.25,10.03,3.72,13.67-2.18-1.06-4.62-1.46-7.02-1.14-1.56.06-3.1.43-4.51,1.09-1.53.84-1.16,2.48-.35,3.67.39.61.88,1.15,1.44,1.62.73.49,1.61.73,2.48.67h1.19c.12,0,0,.29,0,.4.06.6.06,1.21,0,1.81.05.61.05,1.23,0,1.84v.38c0,.1-1.04.32-1.31.38-1.45.36-2.97.07-4.19-.77-.49-.46-.92-.99-1.26-1.56-.21-.42-.72-.59-1.14-.38s-.59.72-.38,1.14c.08.24.2.47.35.67.77,1.16,1.92,2.05,3.25,2.48.85.26,1.75.36,2.63.27.54-.04,1.07-.11,1.59-.25.36-.13.72-.24,1.09-.32.38-.07.77-.02,1.12.12,3.05,1.26,6.58.16,8.36-2.63.6-1.14-.64-2.08-1.44-.89-.37.63-.87,1.17-1.46,1.59-.67.42-1.46.65-2.26.67-.44.04-.88.04-1.31,0-.29,0-1.74-.22-1.91-.49s0-.97,0-1.24v-2.28c0-.8,0-.82.82-.89.97.08,1.95-.07,2.85-.42,1.26-.77,3.08-3.17,2.35-4.71,3.82,3.66,9.74,4.01,13.97.8-.15.69-.35,1.38-.61,2.05v.02h0v-.03h0ZM103.09,110.13c-4.24,1.26-8.78-.61-10.89-4.49-2.21-3.35-2.55-7.6-.92-11.26,1.77-3.7,6.14-5.36,9.92-3.75,3.73,1.7,6.31,5.21,6.84,9.28.87,4.14-1.16,8.34-4.96,10.22h0ZM109.94,90.46c-3.48-.18-6.52-2.38-7.77-5.63-1.26-3.1-.67-7.74,2.68-9.37,1.36-.7,2.48,0,3.08,1.29.72,1.61,1.7,3.07,2.93,4.34,1.5,1.3,3.07,2.51,4.71,3.62,1.04.82,3.13,2.48,2.48,4.07-.49,1.04-2.48,1.31-3.39,1.49-1.54.27-3.11.33-4.67.2h-.06ZM149.62,115.95c-.47,7.44-7.66,10.67-14.19,11.46-5.71.7-12.78-.32-17.07-4.41-5.51-5.26-3.37-15.11,1.42-20.14,4.15-3.95,9.91-5.71,15.55-4.73,4.08.47,7.84,2.46,10.52,5.58,2.76,3.48,4.15,7.83,3.94,12.25h-.18s0-.01,0-.01h0Z"/>
      <ellipse class="cls-1" cx="95.72" cy="100.04" rx="2.16" ry="2.55"/>
      <ellipse class="cls-1" cx="76.05" cy="100.04" rx="2.16" ry="2.55"/>
      <path class="cls-1" d="M95.35,17.15h-11.89c-1.98,0-3.57,1.6-3.57,3.57v39.54c0,2.18,1.76,3.94,3.94,3.94h0c2.17-.02,3.93-1.77,3.94-3.94v-14.41h1.18c-.02.14-.02.29,0,.43l5.56,15.53c.54,1.39,1.88,2.29,3.37,2.28h1.21c1.98,0,3.58-1.6,3.58-3.57,0-.41-.07-.82-.21-1.21l-4.96-13.84c3.62-1,6.12-4.29,6.13-8.04v-11.94c0-4.58-3.69-8.3-8.27-8.34h0ZM87.76,37.07v-11.07c0-.66.53-1.19,1.18-1.21h4.56c1.98,0,3.57,1.6,3.57,3.57v6.33c-.04,1.95-1.63,3.51-3.57,3.51h-4.56c-.63-.02-1.15-.51-1.18-1.14h0Z"/>
      <path class="cls-1" d="M128.57,17.15h-.68c-1.98,0-3.57,1.6-3.57,3.57v33.2c.06,1.26-.9,2.33-2.16,2.39h-3.37c-1.26,0-2.28-1.01-2.28-2.28V20.72c0-1.98-1.6-3.57-3.57-3.57h-.75c-1.98,0-3.57,1.6-3.57,3.57v36.3c0,3.95,3.2,7.16,7.15,7.17h9.25c3.94,0,7.15-3.2,7.15-7.15V20.72c0-1.97-1.61-3.57-3.58-3.57h0Z"/>
      <path class="cls-1" d="M152.78,17.15h-11.64c-1.98,0-3.57,1.6-3.57,3.57v39.88c0,1.98,1.6,3.58,3.57,3.6h11.64c4.61-.02,8.34-3.75,8.36-8.36v-30.36c-.02-4.6-3.75-8.34-8.36-8.34h0ZM153.26,52.72c.06,1.98-1.49,3.65-3.49,3.71h-3.13c-.67,0-1.21-.54-1.21-1.21v-29.02c0-.65.53-1.18,1.18-1.18h3.03c1.98-.02,3.59,1.58,3.6,3.55v24.14h0Z"/>
      <path class="cls-1" d="M216.85,17.15h-.73c-1.98,0-3.57,1.6-3.57,3.57h0v23.78l-9.27-25.05c-.55-1.39-1.88-2.29-3.37-2.28h-2.41c-1.96.02-3.54,1.6-3.55,3.55v39.88c-.02,1.98,1.58,3.58,3.55,3.6h.75c1.98,0,3.57-1.6,3.57-3.57v-23.87l9.32,25.05c.54,1.39,1.86,2.29,3.35,2.28h2.39c1.98,0,3.57-1.6,3.57-3.57V20.72c0-1.98-1.6-3.57-3.57-3.57h-.03Z"/>
      <path class="cls-1" d="M185.71,17.15h-15.37c-1.98,0-3.57,1.6-3.57,3.57v39.88c0,1.98,1.6,3.58,3.57,3.6h15.37c1.98.04,3.63-1.54,3.67-3.53v-.77c-.06-1.97-1.7-3.51-3.67-3.46h-9.86c-.67,0-1.21-.54-1.21-1.21v-9.8c0-.67.54-1.21,1.21-1.21h6.1c1.98,0,3.57-1.6,3.57-3.57v-.73c0-1.98-1.6-3.57-3.57-3.57h-6.1c-.65.02-1.19-.51-1.21-1.16v-8.98c0-.65.53-1.18,1.18-1.18h9.88c1.98.04,3.63-1.54,3.67-3.53v-.78c0-1.98-1.6-3.58-3.57-3.58,0,0-.09,0-.09,0Z"/>
      <path class="cls-1" d="M245.33,17.15h-17.61c-1.98,0-3.57,1.6-3.57,3.57h0v.73c.02,1.97,1.61,3.56,3.57,3.57h4.92v35.58c-.02,1.98,1.58,3.58,3.55,3.6h.75c1.98-.02,3.57-1.62,3.57-3.6V25.03h4.85c1.98,0,3.57-1.6,3.57-3.57h0v-.74c0-1.98-1.6-3.57-3.57-3.58h-.04Z"/>
      <path class="cls-1" d="M66.51,17.15h-11.89c-1.98,0-3.57,1.6-3.57,3.57v39.54c0,2.18,1.76,3.94,3.94,3.94h.02c2.17-.02,3.93-1.77,3.94-3.94v-14.41h7.59c4.6,0,8.34-3.73,8.36-8.34v-12.02c-.02-4.61-3.76-8.35-8.38-8.34h0ZM68.2,34.68c-.04,1.95-1.62,3.52-3.57,3.53h-4.56c-.65,0-1.18-.53-1.18-1.18v-11.02c-.02-.65.51-1.19,1.16-1.21h4.58c1.98.02,3.57,1.62,3.57,3.6v6.28h0Z"/>
      <path class="cls-1" d="M182.69,80.09h-11.89c-1.98,0-3.57,1.6-3.57,3.57v39.54c0,2.18,1.76,3.94,3.94,3.94h.02c2.17-.02,3.93-1.77,3.94-3.94v-14.41h7.59c4.6,0,8.34-3.73,8.36-8.34v-12.02c-.02-4.61-3.76-8.35-8.38-8.34h0ZM184.38,97.63c-.04,1.95-1.62,3.52-3.57,3.53h-4.56c-.65,0-1.18-.53-1.18-1.18v-11.02c-.02-.65.51-1.19,1.16-1.21h4.58c1.98.02,3.57,1.62,3.57,3.6v6.28h0Z"/>
      <path class="cls-1" d="M216.19,80.5h-15.37c-1.98,0-3.57,1.6-3.57,3.57v39.88c0,1.98,1.6,3.58,3.57,3.6h15.37c1.98.04,3.63-1.54,3.67-3.53v-.77c-.06-1.97-1.7-3.51-3.67-3.46h-9.86c-.67,0-1.21-.54-1.21-1.21v-9.8c0-.67.54-1.21,1.21-1.21h6.1c1.98,0,3.57-1.6,3.57-3.57v-.73c0-1.98-1.6-3.57-3.57-3.57h-6.1c-.65.02-1.19-.51-1.21-1.16v-8.98c0-.65.53-1.18,1.18-1.18h9.88c1.98.04,3.63-1.54,3.67-3.53v-.78c0-1.98-1.6-3.58-3.57-3.58h-.09Z"/>
      <path class="cls-1" d="M245.33,80.15h-17.61c-1.98,0-3.57,1.6-3.57,3.57h0v.73c.02,1.97,1.61,3.56,3.57,3.57h4.92v35.58c-.02,1.98,1.58,3.58,3.55,3.6h.75c1.98-.02,3.57-1.62,3.57-3.6v-35.57h4.85c1.98,0,3.57-1.6,3.57-3.57h0v-.74c0-1.98-1.6-3.57-3.57-3.58h-.04Z"/>
    </g>
  </g>
</svg>